%TF.GenerationSoftware,KiCad,Pcbnew,10.0.4*%
%TF.CreationDate,2026-07-25T23:09:19-04:00*%
%TF.ProjectId,MACK10_Controller,4d41434b-3130-45f4-936f-6e74726f6c6c,rev?*%
%TF.SameCoordinates,Original*%
%TF.FileFunction,Soldermask,Top*%
%TF.FilePolarity,Negative*%
%FSLAX46Y46*%
G04 Gerber Fmt 4.6, Leading zero omitted, Abs format (unit mm)*
G04 Created by KiCad (PCBNEW 10.0.4) date 2026-07-25 23:09:19*
%MOMM*%
%LPD*%
G01*
G04 APERTURE LIST*
G04 Aperture macros list*
%AMRoundRect*
0 Rectangle with rounded corners*
0 $1 Rounding radius*
0 $2 $3 $4 $5 $6 $7 $8 $9 X,Y pos of 4 corners*
0 Add a 4 corners polygon primitive as box body*
4,1,4,$2,$3,$4,$5,$6,$7,$8,$9,$2,$3,0*
0 Add four circle primitives for the rounded corners*
1,1,$1+$1,$2,$3*
1,1,$1+$1,$4,$5*
1,1,$1+$1,$6,$7*
1,1,$1+$1,$8,$9*
0 Add four rect primitives between the rounded corners*
20,1,$1+$1,$2,$3,$4,$5,0*
20,1,$1+$1,$4,$5,$6,$7,0*
20,1,$1+$1,$6,$7,$8,$9,0*
20,1,$1+$1,$8,$9,$2,$3,0*%
G04 Aperture macros list end*
%ADD10O,1.700000X1.950000*%
%ADD11RoundRect,0.250000X-0.600000X-0.725000X0.600000X-0.725000X0.600000X0.725000X-0.600000X0.725000X0*%
%ADD12C,1.700000*%
%ADD13R,1.700000X1.700000*%
%ADD14RoundRect,0.250000X0.450000X-0.262500X0.450000X0.262500X-0.450000X0.262500X-0.450000X-0.262500X0*%
%ADD15RoundRect,0.250000X-0.475000X0.250000X-0.475000X-0.250000X0.475000X-0.250000X0.475000X0.250000X0*%
%ADD16RoundRect,0.250000X-0.550000X1.500000X-0.550000X-1.500000X0.550000X-1.500000X0.550000X1.500000X0*%
%ADD17RoundRect,0.250000X-0.600000X-0.750000X0.600000X-0.750000X0.600000X0.750000X-0.600000X0.750000X0*%
%ADD18O,1.700000X2.000000*%
%ADD19C,3.200000*%
%ADD20R,2.000000X2.000000*%
%ADD21R,2.400000X2.400000*%
%ADD22C,2.400000*%
%ADD23R,2.600000X2.600000*%
%ADD24C,2.600000*%
%ADD25RoundRect,0.250000X0.450000X-0.325000X0.450000X0.325000X-0.450000X0.325000X-0.450000X-0.325000X0*%
%ADD26R,1.500000X1.000000*%
G04 APERTURE END LIST*
%TO.C,JP1*%
G36*
X84500000Y-74200000D02*
G01*
X86000000Y-74200000D01*
X86000000Y-74500000D01*
X84500000Y-74500000D01*
X84500000Y-74200000D01*
G37*
%TD*%
D10*
%TO.C,J3*%
X68925000Y-100025000D03*
X66425000Y-100025000D03*
X63925000Y-100025000D03*
D11*
X61425000Y-100025000D03*
%TD*%
D10*
%TO.C,J5*%
X83425000Y-100000000D03*
X80925000Y-100000000D03*
X78425000Y-100000000D03*
D11*
X75925000Y-100000000D03*
%TD*%
D12*
%TO.C,U1*%
X50720000Y-66850000D03*
X48180000Y-66850000D03*
X50720000Y-64310000D03*
X48180000Y-64310000D03*
X50720000Y-61770000D03*
X48180000Y-61770000D03*
X50720000Y-59230000D03*
X48180000Y-59230000D03*
X50720000Y-56690000D03*
X48180000Y-56690000D03*
X50720000Y-54150000D03*
X48180000Y-54150000D03*
X50720000Y-51610000D03*
X48180000Y-51610000D03*
X50720000Y-49070000D03*
X48180000Y-49070000D03*
X50720000Y-46530000D03*
X48180000Y-46530000D03*
X50720000Y-43990000D03*
X48180000Y-43990000D03*
X50720000Y-41450000D03*
X48180000Y-41450000D03*
X50720000Y-38910000D03*
X48180000Y-38910000D03*
X50720000Y-36370000D03*
X48180000Y-36370000D03*
X50720000Y-33830000D03*
X48180000Y-33830000D03*
D13*
X50720000Y-31290000D03*
D12*
X48180000Y-31290000D03*
X25320000Y-66850000D03*
X22780000Y-66850000D03*
X25320000Y-64310000D03*
X22780000Y-64310000D03*
X25320000Y-61770000D03*
X22780000Y-61770000D03*
X25320000Y-59230000D03*
X22780000Y-59230000D03*
X25320000Y-56690000D03*
X22780000Y-56690000D03*
X25320000Y-54150000D03*
X22780000Y-54150000D03*
X25320000Y-51610000D03*
X22780000Y-51610000D03*
X25320000Y-49070000D03*
X22780000Y-49070000D03*
X25320000Y-46530000D03*
X22780000Y-46530000D03*
X25320000Y-43990000D03*
X22780000Y-43990000D03*
X25320000Y-41450000D03*
X22780000Y-41450000D03*
X25320000Y-38910000D03*
X22780000Y-38910000D03*
X25320000Y-36370000D03*
X22780000Y-36370000D03*
X25320000Y-33830000D03*
X22780000Y-33830000D03*
D13*
X25320000Y-31290000D03*
D12*
X22780000Y-31290000D03*
%TD*%
D10*
%TO.C,J6*%
X88425000Y-91750000D03*
X85925000Y-91750000D03*
X83425000Y-91750000D03*
X80925000Y-91750000D03*
X78425000Y-91750000D03*
D11*
X75925000Y-91750000D03*
%TD*%
D14*
%TO.C,R1*%
X44750000Y-41312500D03*
X44750000Y-43137500D03*
%TD*%
%TO.C,R4*%
X44725000Y-30612500D03*
X44725000Y-32437500D03*
%TD*%
%TO.C,R3*%
X44775000Y-36012500D03*
X44775000Y-34187500D03*
%TD*%
%TO.C,R2*%
X44775000Y-39562500D03*
X44775000Y-37737500D03*
%TD*%
D15*
%TO.C,C2*%
X57400000Y-84825000D03*
X57400000Y-86725000D03*
%TD*%
D16*
%TO.C,C1*%
X90700000Y-86825000D03*
X90700000Y-81425000D03*
%TD*%
D17*
%TO.C,J10*%
X89975000Y-68425000D03*
D18*
X92475000Y-68425000D03*
%TD*%
D19*
%TO.C,Mount 1*%
X25000000Y-25000000D03*
%TD*%
D20*
%TO.C,TP5*%
X97175000Y-42025000D03*
%TD*%
D17*
%TO.C,J8*%
X89875000Y-47225000D03*
D18*
X92375000Y-47225000D03*
%TD*%
D20*
%TO.C,TP6*%
X42643750Y-104100000D03*
%TD*%
%TO.C,TP7*%
X39637500Y-104100000D03*
%TD*%
%TO.C,TP4*%
X30225000Y-104100000D03*
%TD*%
%TO.C,TP3*%
X51775000Y-104100000D03*
%TD*%
D17*
%TO.C,J7*%
X89900000Y-61475000D03*
D18*
X92400000Y-61475000D03*
%TD*%
D19*
%TO.C,Mount 4*%
X95000000Y-101000000D03*
%TD*%
D21*
%TO.C,U4*%
X61890833Y-65100167D03*
D22*
X79340833Y-65100167D03*
X61890833Y-25603167D03*
X79340833Y-25603167D03*
%TD*%
D19*
%TO.C,Mount 3*%
X95000000Y-25000000D03*
%TD*%
D17*
%TO.C,F1*%
X90000000Y-75500000D03*
D18*
X92500000Y-75500000D03*
%TD*%
D20*
%TO.C,TP1*%
X54875000Y-104100000D03*
%TD*%
D23*
%TO.C,J4*%
X85575000Y-34625000D03*
D24*
X91575000Y-34625000D03*
X88575000Y-29925000D03*
%TD*%
D11*
%TO.C,J1*%
X61425000Y-91775000D03*
D10*
X63925000Y-91775000D03*
X66425000Y-91775000D03*
X68925000Y-91775000D03*
%TD*%
D17*
%TO.C,J9*%
X89850000Y-54425000D03*
D18*
X92350000Y-54425000D03*
%TD*%
D25*
%TO.C,D2*%
X54000000Y-37775000D03*
X54000000Y-35725000D03*
%TD*%
D19*
%TO.C,Mount 2*%
X24500000Y-101000000D03*
%TD*%
D13*
%TO.C,U2*%
X25575000Y-80300000D03*
D12*
X25575000Y-82840000D03*
X25575000Y-85380000D03*
X25575000Y-87920000D03*
X25575000Y-90460000D03*
X25575000Y-93000000D03*
X50775000Y-82840000D03*
X50775000Y-85380000D03*
X50775000Y-87920000D03*
X50775000Y-90460000D03*
%TD*%
D25*
%TO.C,D1*%
X56245000Y-37800000D03*
X56245000Y-35750000D03*
%TD*%
D13*
%TO.C,U3*%
X61175000Y-85205000D03*
D12*
X63715000Y-85205000D03*
X66255000Y-85205000D03*
X68795000Y-85205000D03*
X71335000Y-85205000D03*
X73875000Y-85205000D03*
X76415000Y-85205000D03*
X78955000Y-85205000D03*
X61175000Y-72825000D03*
X63715000Y-72825000D03*
X66255000Y-72825000D03*
X68795000Y-72825000D03*
X71335000Y-72825000D03*
X73875000Y-72825000D03*
X76415000Y-72825000D03*
D13*
X78955000Y-72825000D03*
%TD*%
D20*
%TO.C,TP8*%
X36631250Y-104100000D03*
%TD*%
%TO.C,TP2*%
X45675000Y-104100000D03*
%TD*%
D26*
%TO.C,JP1*%
X85250000Y-75000000D03*
X85250000Y-73700000D03*
%TD*%
D20*
%TO.C,TP9*%
X33625000Y-104100000D03*
%TD*%
M02*
