%TF.GenerationSoftware,KiCad,Pcbnew,10.0.4*%
%TF.CreationDate,2026-08-30T22:45:04-04:00*%
%TF.ProjectId,MACK10_Controller,4d41434b-3130-45f4-936f-6e74726f6c6c,rev?*%
%TF.SameCoordinates,Original*%
%TF.FileFunction,Soldermask,Bot*%
%TF.FilePolarity,Negative*%
%FSLAX46Y46*%
G04 Gerber Fmt 4.6, Leading zero omitted, Abs format (unit mm)*
G04 Created by KiCad (PCBNEW 10.0.4) date 2026-08-30 22:45:04*
%MOMM*%
%LPD*%
G01*
G04 APERTURE LIST*
G04 Aperture macros list*
%AMRoundRect*
0 Rectangle with rounded corners*
0 $1 Rounding radius*
0 $2 $3 $4 $5 $6 $7 $8 $9 X,Y pos of 4 corners*
0 Add a 4 corners polygon primitive as box body*
4,1,4,$2,$3,$4,$5,$6,$7,$8,$9,$2,$3,0*
0 Add four circle primitives for the rounded corners*
1,1,$1+$1,$2,$3*
1,1,$1+$1,$4,$5*
1,1,$1+$1,$6,$7*
1,1,$1+$1,$8,$9*
0 Add four rect primitives between the rounded corners*
20,1,$1+$1,$2,$3,$4,$5,0*
20,1,$1+$1,$4,$5,$6,$7,0*
20,1,$1+$1,$6,$7,$8,$9,0*
20,1,$1+$1,$8,$9,$2,$3,0*%
G04 Aperture macros list end*
%ADD10RoundRect,0.250000X-1.000000X-0.650000X1.000000X-0.650000X1.000000X0.650000X-1.000000X0.650000X0*%
%ADD11C,1.500000*%
%ADD12C,1.700000*%
%ADD13R,1.700000X1.700000*%
%ADD14RoundRect,0.250000X0.250000X0.475000X-0.250000X0.475000X-0.250000X-0.475000X0.250000X-0.475000X0*%
%ADD15RoundRect,0.255000X-0.595000X-0.595000X0.595000X-0.595000X0.595000X0.595000X-0.595000X0.595000X0*%
%ADD16C,0.800000*%
%ADD17C,6.400000*%
%ADD18RoundRect,0.250000X-0.600000X-0.750000X0.600000X-0.750000X0.600000X0.750000X-0.600000X0.750000X0*%
%ADD19O,1.700000X2.000000*%
%ADD20R,2.600000X2.600000*%
%ADD21C,2.600000*%
%ADD22RoundRect,0.250000X-0.600000X-0.725000X0.600000X-0.725000X0.600000X0.725000X-0.600000X0.725000X0*%
%ADD23O,1.700000X1.950000*%
%ADD24RoundRect,0.250000X0.600000X-0.600000X0.600000X0.600000X-0.600000X0.600000X-0.600000X-0.600000X0*%
%ADD25RoundRect,0.250000X0.262500X0.450000X-0.262500X0.450000X-0.262500X-0.450000X0.262500X-0.450000X0*%
%ADD26RoundRect,0.250000X-0.250000X-0.475000X0.250000X-0.475000X0.250000X0.475000X-0.250000X0.475000X0*%
%ADD27RoundRect,0.150000X-0.150000X0.587500X-0.150000X-0.587500X0.150000X-0.587500X0.150000X0.587500X0*%
%ADD28RoundRect,0.250000X-0.262500X-0.450000X0.262500X-0.450000X0.262500X0.450000X-0.262500X0.450000X0*%
%ADD29R,2.000000X2.000000*%
%ADD30RoundRect,0.250000X0.450000X-0.262500X0.450000X0.262500X-0.450000X0.262500X-0.450000X-0.262500X0*%
%ADD31RoundRect,0.255000X-0.595000X1.745000X-0.595000X-1.745000X0.595000X-1.745000X0.595000X1.745000X0*%
%ADD32O,1.700000X4.000000*%
%ADD33O,2.500000X2.000000*%
%ADD34RoundRect,0.250000X0.600000X0.600000X-0.600000X0.600000X-0.600000X-0.600000X0.600000X-0.600000X0*%
G04 APERTURE END LIST*
D10*
%TO.C,D3*%
X47400000Y-20500000D03*
X51400000Y-20500000D03*
%TD*%
D11*
%TO.C,U3*%
X34675000Y-23315000D03*
%TD*%
D12*
%TO.C,J7*%
X19650000Y-28000000D03*
D13*
X19650000Y-30540000D03*
%TD*%
D12*
%TO.C,J10*%
X23300000Y-27985000D03*
D13*
X23300000Y-30525000D03*
%TD*%
D14*
%TO.C,C8*%
X22250000Y-39575000D03*
X24150000Y-39575000D03*
%TD*%
%TO.C,C1*%
X20575000Y-48800000D03*
X18675000Y-48800000D03*
%TD*%
D15*
%TO.C,U5*%
X30591528Y-68045000D03*
D12*
X30591528Y-65505000D03*
X30591528Y-62965000D03*
X30591528Y-60425000D03*
X30591528Y-57885000D03*
X30591528Y-55345000D03*
X30591528Y-52805000D03*
X30591528Y-50265000D03*
X30591528Y-47725000D03*
X30591528Y-45185000D03*
X48371528Y-45185000D03*
X48371528Y-47725000D03*
X48371528Y-50265000D03*
X48371528Y-52805000D03*
X48371528Y-55345000D03*
X48371528Y-57885000D03*
X48371528Y-60425000D03*
X48371528Y-62965000D03*
X48371528Y-65505000D03*
D15*
X48371528Y-68045000D03*
D12*
X44561528Y-74225000D03*
X42021528Y-74225000D03*
X39481528Y-74225000D03*
X36941528Y-74225000D03*
D15*
X34401528Y-74225000D03*
%TD*%
D16*
%TO.C,Mount 2*%
X18750000Y-80450000D03*
X19452944Y-78752944D03*
X19452944Y-82147056D03*
X21150000Y-78050000D03*
D17*
X21150000Y-80450000D03*
D16*
X21150000Y-82850000D03*
X22847056Y-78752944D03*
X22847056Y-82147056D03*
X23550000Y-80450000D03*
%TD*%
D18*
%TO.C,J4*%
X59725000Y-20150000D03*
D19*
X62225000Y-20150000D03*
%TD*%
D13*
%TO.C,JP1*%
X48185000Y-37550000D03*
D12*
X50725000Y-37550000D03*
%TD*%
D20*
%TO.C,J9*%
X51700000Y-31425000D03*
D21*
X47000000Y-28425000D03*
X51700000Y-25425000D03*
%TD*%
D22*
%TO.C,J2*%
X55775000Y-80025000D03*
D23*
X58275000Y-80025000D03*
X60775000Y-80025000D03*
X63275000Y-80025000D03*
%TD*%
D24*
%TO.C,J6*%
X57205000Y-47450000D03*
D12*
X57205000Y-44910000D03*
X59745000Y-47450000D03*
X59745000Y-44910000D03*
X62285000Y-47450000D03*
X62285000Y-44910000D03*
X64825000Y-47450000D03*
X64825000Y-44910000D03*
X67365000Y-47450000D03*
X67365000Y-44910000D03*
%TD*%
D18*
%TO.C,J8*%
X47225000Y-80050000D03*
D19*
X49725000Y-80050000D03*
%TD*%
D16*
%TO.C,Mount 1*%
X18750000Y-21150000D03*
X19452944Y-19452944D03*
X19452944Y-22847056D03*
X21150000Y-18750000D03*
D17*
X21150000Y-21150000D03*
D16*
X21150000Y-23550000D03*
X22847056Y-19452944D03*
X22847056Y-22847056D03*
X23550000Y-21150000D03*
%TD*%
D13*
%TO.C,U1*%
X54175000Y-54895000D03*
D12*
X54175000Y-57435000D03*
X54175000Y-59975000D03*
X54175000Y-62515000D03*
X54175000Y-65055000D03*
X54175000Y-67595000D03*
X54175000Y-70135000D03*
X54175000Y-72675000D03*
X66555000Y-54895000D03*
X66555000Y-57435000D03*
X66555000Y-59975000D03*
X66555000Y-62515000D03*
X66555000Y-65055000D03*
X66555000Y-67595000D03*
X66555000Y-70135000D03*
D13*
X66555000Y-72675000D03*
%TD*%
%TO.C,J3*%
X27185000Y-82165000D03*
D12*
X27185000Y-79625000D03*
X29725000Y-82165000D03*
X29725000Y-79625000D03*
X32265000Y-82165000D03*
X32265000Y-79625000D03*
X34805000Y-82165000D03*
X34805000Y-79625000D03*
X37345000Y-82165000D03*
X37345000Y-79625000D03*
X39885000Y-82165000D03*
X39885000Y-79625000D03*
X42425000Y-82165000D03*
X42425000Y-79625000D03*
%TD*%
D18*
%TO.C,F1*%
X59725000Y-27125000D03*
D19*
X62225000Y-27125000D03*
%TD*%
D16*
%TO.C,Mount 3*%
X68200000Y-21150000D03*
X68902944Y-19452944D03*
X68902944Y-22847056D03*
X70600000Y-18750000D03*
D17*
X70600000Y-21150000D03*
D16*
X70600000Y-23550000D03*
X72297056Y-19452944D03*
X72297056Y-22847056D03*
X73000000Y-21150000D03*
%TD*%
D25*
%TO.C,R9*%
X52050000Y-50250000D03*
X50225000Y-50250000D03*
%TD*%
D26*
%TO.C,C6*%
X18675000Y-40250000D03*
X20575000Y-40250000D03*
%TD*%
D25*
%TO.C,R6*%
X50500000Y-42525000D03*
X48675000Y-42525000D03*
%TD*%
D14*
%TO.C,C4*%
X20650000Y-45400000D03*
X18750000Y-45400000D03*
%TD*%
D25*
%TO.C,R8*%
X52050000Y-52800000D03*
X50225000Y-52800000D03*
%TD*%
D26*
%TO.C,C2*%
X18725000Y-51825000D03*
X20625000Y-51825000D03*
%TD*%
D27*
%TO.C,Q1*%
X18725000Y-54125000D03*
X20625000Y-54125000D03*
X19675000Y-56000000D03*
%TD*%
D25*
%TO.C,R5*%
X47987500Y-34400000D03*
X46162500Y-34400000D03*
%TD*%
%TO.C,R1*%
X24225000Y-46625000D03*
X22400000Y-46625000D03*
%TD*%
D28*
%TO.C,R7*%
X21600000Y-37600000D03*
X23425000Y-37600000D03*
%TD*%
D14*
%TO.C,C5*%
X63000000Y-54900000D03*
X61100000Y-54900000D03*
%TD*%
D29*
%TO.C,TP11*%
X72850000Y-75325000D03*
%TD*%
D30*
%TO.C,R13*%
X46100000Y-39125000D03*
X46100000Y-37300000D03*
%TD*%
D25*
%TO.C,R3*%
X24200000Y-42375000D03*
X22375000Y-42375000D03*
%TD*%
D28*
%TO.C,R11*%
X21625000Y-33550000D03*
X23450000Y-33550000D03*
%TD*%
D25*
%TO.C,R2*%
X24225000Y-48725000D03*
X22400000Y-48725000D03*
%TD*%
%TO.C,R10*%
X52050000Y-47675000D03*
X50225000Y-47675000D03*
%TD*%
D31*
%TO.C,U4*%
X25995000Y-19750000D03*
D32*
X28535000Y-19750000D03*
X31075000Y-19750000D03*
X33615000Y-19750000D03*
X36155000Y-19750000D03*
X38695000Y-19750000D03*
X41235000Y-19750000D03*
X43775000Y-19750000D03*
%TD*%
D26*
%TO.C,C3*%
X18675000Y-42450000D03*
X20575000Y-42450000D03*
%TD*%
D28*
%TO.C,R12*%
X21612500Y-35575000D03*
X23437500Y-35575000D03*
%TD*%
D25*
%TO.C,R4*%
X24350000Y-44525000D03*
X22525000Y-44525000D03*
%TD*%
D29*
%TO.C,TP8*%
X72850000Y-63460000D03*
%TD*%
%TO.C,TP10*%
X72850000Y-71370000D03*
%TD*%
D16*
%TO.C,Mount 4*%
X73000000Y-80450000D03*
X72297056Y-82147056D03*
X72297056Y-78752944D03*
X70600000Y-82850000D03*
D17*
X70600000Y-80450000D03*
D16*
X70600000Y-78050000D03*
X68902944Y-82147056D03*
X68902944Y-78752944D03*
X68200000Y-80450000D03*
%TD*%
D33*
%TO.C,U6*%
X56480000Y-40420000D03*
X56480000Y-31280000D03*
X71720000Y-40420000D03*
X71720000Y-31280000D03*
%TD*%
D34*
%TO.C,J5*%
X23900000Y-69375000D03*
D12*
X21360000Y-69375000D03*
X23900000Y-66835000D03*
X21360000Y-66835000D03*
X23900000Y-64295000D03*
X21360000Y-64295000D03*
X23900000Y-61755000D03*
X21360000Y-61755000D03*
X23900000Y-59215000D03*
X21360000Y-59215000D03*
%TD*%
M02*
