%TF.GenerationSoftware,KiCad,Pcbnew,10.0.4*%
%TF.CreationDate,2026-08-30T22:45:04-04:00*%
%TF.ProjectId,MACK10_Controller,4d41434b-3130-45f4-936f-6e74726f6c6c,rev?*%
%TF.SameCoordinates,Original*%
%TF.FileFunction,Soldermask,Top*%
%TF.FilePolarity,Negative*%
%FSLAX46Y46*%
G04 Gerber Fmt 4.6, Leading zero omitted, Abs format (unit mm)*
G04 Created by KiCad (PCBNEW 10.0.4) date 2026-08-30 22:45:04*
%MOMM*%
%LPD*%
G01*
G04 APERTURE LIST*
G04 Aperture macros list*
%AMRoundRect*
0 Rectangle with rounded corners*
0 $1 Rounding radius*
0 $2 $3 $4 $5 $6 $7 $8 $9 X,Y pos of 4 corners*
0 Add a 4 corners polygon primitive as box body*
4,1,4,$2,$3,$4,$5,$6,$7,$8,$9,$2,$3,0*
0 Add four circle primitives for the rounded corners*
1,1,$1+$1,$2,$3*
1,1,$1+$1,$4,$5*
1,1,$1+$1,$6,$7*
1,1,$1+$1,$8,$9*
0 Add four rect primitives between the rounded corners*
20,1,$1+$1,$2,$3,$4,$5,0*
20,1,$1+$1,$4,$5,$6,$7,0*
20,1,$1+$1,$6,$7,$8,$9,0*
20,1,$1+$1,$8,$9,$2,$3,0*%
G04 Aperture macros list end*
%ADD10RoundRect,0.550800X-0.875000X-0.500000X0.875000X-0.500000X0.875000X0.500000X-0.875000X0.500000X0*%
%ADD11C,1.500000*%
%ADD12RoundRect,0.250000X0.325000X0.450000X-0.325000X0.450000X-0.325000X-0.450000X0.325000X-0.450000X0*%
%ADD13C,1.700000*%
%ADD14R,1.700000X1.700000*%
%ADD15RoundRect,0.250000X-0.325000X-0.450000X0.325000X-0.450000X0.325000X0.450000X-0.325000X0.450000X0*%
%ADD16R,1.500000X1.500000*%
%ADD17RoundRect,0.255000X-0.595000X-0.595000X0.595000X-0.595000X0.595000X0.595000X-0.595000X0.595000X0*%
%ADD18R,2.000000X2.000000*%
%ADD19C,0.800000*%
%ADD20C,6.400000*%
%ADD21RoundRect,0.250000X-0.600000X-0.750000X0.600000X-0.750000X0.600000X0.750000X-0.600000X0.750000X0*%
%ADD22O,1.700000X2.000000*%
%ADD23R,2.600000X2.600000*%
%ADD24C,2.600000*%
%ADD25RoundRect,0.250000X-0.600000X-0.725000X0.600000X-0.725000X0.600000X0.725000X-0.600000X0.725000X0*%
%ADD26O,1.700000X1.950000*%
%ADD27RoundRect,0.250000X0.600000X-0.600000X0.600000X0.600000X-0.600000X0.600000X-0.600000X-0.600000X0*%
%ADD28RoundRect,0.250000X-1.500000X-0.550000X1.500000X-0.550000X1.500000X0.550000X-1.500000X0.550000X0*%
%ADD29RoundRect,0.150000X-0.825000X-0.150000X0.825000X-0.150000X0.825000X0.150000X-0.825000X0.150000X0*%
%ADD30RoundRect,0.250000X0.600000X0.600000X-0.600000X0.600000X-0.600000X-0.600000X0.600000X-0.600000X0*%
G04 APERTURE END LIST*
D10*
%TO.C,U3*%
X44058400Y-21796500D03*
X44058400Y-24336500D03*
X44058400Y-26876500D03*
X44058400Y-29416500D03*
X44058400Y-31956500D03*
X44058400Y-34496500D03*
X44058400Y-37036500D03*
X27893400Y-37036500D03*
X27893400Y-34496500D03*
X27893400Y-31956500D03*
X27893400Y-29416500D03*
X27893400Y-26876500D03*
X27893400Y-24336500D03*
X27893400Y-21796500D03*
D11*
X34675000Y-23315000D03*
%TD*%
D12*
%TO.C,D1*%
X48525000Y-40800000D03*
X50575000Y-40800000D03*
%TD*%
D13*
%TO.C,J7*%
X19650000Y-28000000D03*
D14*
X19650000Y-30540000D03*
%TD*%
D13*
%TO.C,J10*%
X23300000Y-27985000D03*
D14*
X23300000Y-30525000D03*
%TD*%
D15*
%TO.C,D2*%
X20725000Y-35875000D03*
X18675000Y-35875000D03*
%TD*%
D16*
%TO.C,SW1*%
X72200000Y-60375000D03*
X72200000Y-52575000D03*
%TD*%
D17*
%TO.C,U5*%
X30591528Y-68045000D03*
D13*
X30591528Y-65505000D03*
X30591528Y-62965000D03*
X30591528Y-60425000D03*
X30591528Y-57885000D03*
X30591528Y-55345000D03*
X30591528Y-52805000D03*
X30591528Y-50265000D03*
X30591528Y-47725000D03*
X30591528Y-45185000D03*
X48371528Y-45185000D03*
X48371528Y-47725000D03*
X48371528Y-50265000D03*
X48371528Y-52805000D03*
X48371528Y-55345000D03*
X48371528Y-57885000D03*
X48371528Y-60425000D03*
X48371528Y-62965000D03*
X48371528Y-65505000D03*
D17*
X48371528Y-68045000D03*
D13*
X44561528Y-74225000D03*
X42021528Y-74225000D03*
X39481528Y-74225000D03*
X36941528Y-74225000D03*
D17*
X34401528Y-74225000D03*
%TD*%
D18*
%TO.C,TP11*%
X72850000Y-75325000D03*
%TD*%
%TO.C,TP8*%
X72850000Y-63460000D03*
%TD*%
D19*
%TO.C,Mount 2*%
X18750000Y-80450000D03*
X19452944Y-78752944D03*
X19452944Y-82147056D03*
X21150000Y-78050000D03*
D20*
X21150000Y-80450000D03*
D19*
X21150000Y-82850000D03*
X22847056Y-78752944D03*
X22847056Y-82147056D03*
X23550000Y-80450000D03*
%TD*%
D21*
%TO.C,J4*%
X59725000Y-20150000D03*
D22*
X62225000Y-20150000D03*
%TD*%
D14*
%TO.C,JP1*%
X48185000Y-37550000D03*
D13*
X50725000Y-37550000D03*
%TD*%
D18*
%TO.C,TP10*%
X72850000Y-71370000D03*
%TD*%
D23*
%TO.C,J9*%
X51700000Y-31425000D03*
D24*
X47000000Y-28425000D03*
X51700000Y-25425000D03*
%TD*%
D25*
%TO.C,J2*%
X55775000Y-80025000D03*
D26*
X58275000Y-80025000D03*
X60775000Y-80025000D03*
X63275000Y-80025000D03*
%TD*%
D18*
%TO.C,TP4*%
X73025000Y-35650000D03*
%TD*%
D27*
%TO.C,J6*%
X57205000Y-47450000D03*
D13*
X57205000Y-44910000D03*
X59745000Y-47450000D03*
X59745000Y-44910000D03*
X62285000Y-47450000D03*
X62285000Y-44910000D03*
X64825000Y-47450000D03*
X64825000Y-44910000D03*
X67365000Y-47450000D03*
X67365000Y-44910000D03*
%TD*%
D21*
%TO.C,J8*%
X47225000Y-80050000D03*
D22*
X49725000Y-80050000D03*
%TD*%
D28*
%TO.C,C7*%
X54975000Y-36925000D03*
X60375000Y-36925000D03*
%TD*%
D19*
%TO.C,Mount 1*%
X18750000Y-21150000D03*
X19452944Y-19452944D03*
X19452944Y-22847056D03*
X21150000Y-18750000D03*
D20*
X21150000Y-21150000D03*
D19*
X21150000Y-23550000D03*
X22847056Y-19452944D03*
X22847056Y-22847056D03*
X23550000Y-21150000D03*
%TD*%
D14*
%TO.C,U1*%
X54175000Y-54895000D03*
D13*
X54175000Y-57435000D03*
X54175000Y-59975000D03*
X54175000Y-62515000D03*
X54175000Y-65055000D03*
X54175000Y-67595000D03*
X54175000Y-70135000D03*
X54175000Y-72675000D03*
X66555000Y-54895000D03*
X66555000Y-57435000D03*
X66555000Y-59975000D03*
X66555000Y-62515000D03*
X66555000Y-65055000D03*
X66555000Y-67595000D03*
X66555000Y-70135000D03*
D14*
X66555000Y-72675000D03*
%TD*%
D18*
%TO.C,TP1*%
X68625000Y-35650000D03*
%TD*%
%TO.C,TP2*%
X20675000Y-51800000D03*
%TD*%
%TO.C,TP3*%
X24175000Y-51825000D03*
%TD*%
D29*
%TO.C,U2*%
X19075000Y-39135000D03*
X19075000Y-40405000D03*
X19075000Y-41675000D03*
X19075000Y-42945000D03*
X19075000Y-44215000D03*
X19075000Y-45485000D03*
X19075000Y-46755000D03*
X19075000Y-48025000D03*
X24025000Y-48025000D03*
X24025000Y-46755000D03*
X24025000Y-45485000D03*
X24025000Y-44215000D03*
X24025000Y-42945000D03*
X24025000Y-41675000D03*
X24025000Y-40405000D03*
X24025000Y-39135000D03*
%TD*%
D14*
%TO.C,J3*%
X27185000Y-82165000D03*
D13*
X27185000Y-79625000D03*
X29725000Y-82165000D03*
X29725000Y-79625000D03*
X32265000Y-82165000D03*
X32265000Y-79625000D03*
X34805000Y-82165000D03*
X34805000Y-79625000D03*
X37345000Y-82165000D03*
X37345000Y-79625000D03*
X39885000Y-82165000D03*
X39885000Y-79625000D03*
X42425000Y-82165000D03*
X42425000Y-79625000D03*
%TD*%
D21*
%TO.C,F1*%
X59725000Y-27125000D03*
D22*
X62225000Y-27125000D03*
%TD*%
D18*
%TO.C,TP5*%
X73025000Y-31875000D03*
%TD*%
%TO.C,TP11*%
X73025000Y-27975000D03*
%TD*%
%TO.C,TP7*%
X72800000Y-67350000D03*
%TD*%
%TO.C,TP6*%
X73025000Y-39425000D03*
%TD*%
D19*
%TO.C,Mount 3*%
X68200000Y-21150000D03*
X68902944Y-19452944D03*
X68902944Y-22847056D03*
X70600000Y-18750000D03*
D20*
X70600000Y-21150000D03*
D19*
X70600000Y-23550000D03*
X72297056Y-19452944D03*
X72297056Y-22847056D03*
X73000000Y-21150000D03*
%TD*%
D18*
%TO.C,TP9*%
X68600000Y-27975000D03*
%TD*%
D19*
%TO.C,Mount 4*%
X73000000Y-80450000D03*
X72297056Y-82147056D03*
X72297056Y-78752944D03*
X70600000Y-82850000D03*
D20*
X70600000Y-80450000D03*
D19*
X70600000Y-78050000D03*
X68902944Y-82147056D03*
X68902944Y-78752944D03*
X68200000Y-80450000D03*
%TD*%
D30*
%TO.C,J5*%
X23900000Y-69375000D03*
D13*
X21360000Y-69375000D03*
X23900000Y-66835000D03*
X21360000Y-66835000D03*
X23900000Y-64295000D03*
X21360000Y-64295000D03*
X23900000Y-61755000D03*
X21360000Y-61755000D03*
X23900000Y-59215000D03*
X21360000Y-59215000D03*
%TD*%
M02*
