M48
; DRILL file KiCad 10.0.4 date 2026-08-30T22:45:10
; FORMAT={-:-/ absolute / metric / decimal}
; #@! TF.CreationDate,2026-08-30T22:45:10-04:00
; #@! TF.GenerationSoftware,Kicad,Pcbnew,10.0.4
; #@! TF.FileFunction,Plated,1,2,PTH
FMAT,2
METRIC
; #@! TA.AperFunction,Plated,PTH,ViaDrill
T1C0.300
; #@! TA.AperFunction,Plated,PTH,ViaDrill
T2C0.400
; #@! TA.AperFunction,Plated,PTH,ComponentDrill
T3C0.500
; #@! TA.AperFunction,Plated,PTH,ComponentDrill
T4C0.950
; #@! TA.AperFunction,Plated,PTH,ComponentDrill
T5C1.000
; #@! TA.AperFunction,Plated,PTH,ComponentDrill
T6C1.600
; #@! TA.AperFunction,Plated,PTH,ComponentDrill
T7C3.200
%
G90
G05
T1
X18.375Y-38.0
X18.65Y-43.85
X18.692Y-42.145
X18.725Y-51.825
X18.725Y-54.125
X18.925Y-25.1
X19.075Y-38.875
X19.075Y-45.485
X19.075Y-46.755
X19.075Y-48.025
X19.325Y-62.906
X19.65Y-43.275
X19.675Y-56.0
X20.575Y-40.25
X20.575Y-42.45
X20.65Y-45.4
X21.507Y-44.484
X21.875Y-76.075
X22.05Y-75.189
X22.15Y-39.6
X22.25Y-53.325
X22.532Y-55.225
X23.05Y-40.725
X23.1Y-56.425
X23.35Y-45.564
X23.425Y-37.6
X23.991Y-75.325
X24.025Y-39.135
X24.387Y-38.335
X25.45Y-42.2
X25.55Y-37.824
X25.786Y-42.98
X25.8Y-45.6
X25.825Y-44.875
X25.925Y-71.925
X26.183Y-40.725
X26.65Y-69.975
X26.8Y-38.518
X26.95Y-41.975
X26.983Y-40.725
X27.125Y-77.575
X27.25Y-74.2
X27.268Y-31.912
X27.268Y-34.451
X27.268Y-36.991
X27.325Y-43.125
X27.608Y-40.051
X27.893Y-29.996
X28.233Y-40.725
X28.233Y-41.525
X28.792Y-50.25
X28.825Y-32.997
X28.925Y-34.475
X28.935Y-47.725
X29.241Y-53.096
X29.6Y-39.35
X29.768Y-36.425
X29.85Y-75.975
X31.57Y-51.455
X31.9Y-49.525
X32.25Y-71.675
X33.164Y-39.286
X34.2Y-32.925
X35.6Y-68.35
X36.155Y-20.9
X36.875Y-68.475
X36.925Y-71.0
X37.225Y-23.3
X37.3Y-34.475
X37.325Y-39.4
X38.075Y-44.95
X38.1Y-45.825
X38.675Y-38.0
X38.7Y-44.075
X39.95Y-42.506
X41.225Y-23.375
X41.642Y-77.958
X41.95Y-36.075
X42.943Y-67.448
X43.433Y-34.451
X43.433Y-36.991
X43.775Y-20.296
X43.8Y-67.475
X44.182Y-22.2
X44.6Y-58.149
X44.725Y-39.337
X45.225Y-67.975
X46.163Y-34.4
X46.4Y-51.475
X46.95Y-24.925
X47.0Y-52.125
X47.775Y-74.05
X47.975Y-71.525
X48.525Y-41.438
X49.05Y-32.925
X49.758Y-27.736
X50.5Y-42.525
X50.95Y-66.375
X51.4Y-20.5
X52.175Y-61.45
X53.403Y-52.978
X53.43Y-33.208
X53.725Y-76.55
X54.55Y-18.85
X54.675Y-52.475
X54.72Y-23.67
X55.7Y-42.55
X57.275Y-19.975
X57.6Y-73.75
X58.0Y-65.675
X58.225Y-59.0
X59.4Y-49.925
X59.509Y-43.581
X59.602Y-29.348
X60.375Y-36.925
X60.535Y-42.839
X62.775Y-59.15
X63.98Y-49.17
X65.375Y-38.375
X65.375Y-40.475
X65.725Y-33.05
X65.9Y-29.225
X66.525Y-19.325
X67.45Y-42.375
X67.7Y-74.575
X67.75Y-51.35
X67.9Y-70.15
X68.4Y-50.0
X68.575Y-57.4
X68.675Y-33.8
X69.046Y-51.695
X71.03Y-62.81
X72.85Y-63.46
X72.85Y-71.37
X73.025Y-35.65
X73.075Y-24.675
X73.5Y-77.55
T2
X30.64Y-18.775
X31.075Y-20.9
X32.95Y-36.95
X34.225Y-25.7
X34.225Y-30.95
X52.2Y-28.7
X52.8Y-23.175
X54.975Y-36.925
X55.166Y-28.666
X56.416Y-28.666
X60.95Y-24.65
X63.0Y-54.9
X66.65Y-23.825
X69.6Y-68.95
X69.625Y-53.1
X70.725Y-37.35
X72.8Y-67.35
T3
X18.75Y-21.15
X18.75Y-80.45
X19.453Y-19.453
X19.453Y-22.847
X19.453Y-78.753
X19.453Y-82.147
X21.15Y-18.75
X21.15Y-23.55
X21.15Y-78.05
X21.15Y-82.85
X22.847Y-19.453
X22.847Y-22.847
X22.847Y-78.753
X22.847Y-82.147
X23.55Y-21.15
X23.55Y-80.45
X34.675Y-23.315
X68.2Y-21.15
X68.2Y-80.45
X68.903Y-19.453
X68.903Y-22.847
X68.903Y-78.753
X68.903Y-82.147
X70.6Y-18.75
X70.6Y-23.55
X70.6Y-78.05
X70.6Y-82.85
X72.297Y-19.453
X72.297Y-22.847
X72.297Y-78.753
X72.297Y-82.147
X73.0Y-21.15
X73.0Y-80.45
T4
X55.775Y-80.025
X58.275Y-80.025
X60.775Y-80.025
X63.275Y-80.025
T5
X19.65Y-28.0
X19.65Y-30.54
X21.36Y-59.215
X21.36Y-61.755
X21.36Y-64.295
X21.36Y-66.835
X21.36Y-69.375
X23.3Y-27.985
X23.3Y-30.525
X23.9Y-59.215
X23.9Y-61.755
X23.9Y-64.295
X23.9Y-66.835
X23.9Y-69.375
X27.185Y-79.625
X27.185Y-82.165
X29.725Y-79.625
X29.725Y-82.165
X30.592Y-45.185
X30.592Y-47.725
X30.592Y-50.265
X30.592Y-52.805
X30.592Y-55.345
X30.592Y-57.885
X30.592Y-60.425
X30.592Y-62.965
X30.592Y-65.505
X30.592Y-68.045
X32.265Y-79.625
X32.265Y-82.165
X34.402Y-74.225
X34.805Y-79.625
X34.805Y-82.165
X36.942Y-74.225
X37.345Y-79.625
X37.345Y-82.165
X39.482Y-74.225
X39.885Y-79.625
X39.885Y-82.165
X42.022Y-74.225
X42.425Y-79.625
X42.425Y-82.165
X44.562Y-74.225
X47.225Y-80.05
X48.185Y-37.55
X48.372Y-45.185
X48.372Y-47.725
X48.372Y-50.265
X48.372Y-52.805
X48.372Y-55.345
X48.372Y-57.885
X48.372Y-60.425
X48.372Y-62.965
X48.372Y-65.505
X48.372Y-68.045
X49.725Y-80.05
X50.725Y-37.55
X54.175Y-54.895
X54.175Y-57.435
X54.175Y-59.975
X54.175Y-62.515
X54.175Y-65.055
X54.175Y-67.595
X54.175Y-70.135
X54.175Y-72.675
X57.205Y-44.91
X57.205Y-47.45
X59.725Y-20.15
X59.725Y-27.125
X59.745Y-44.91
X59.745Y-47.45
X62.225Y-20.15
X62.225Y-27.125
X62.285Y-44.91
X62.285Y-47.45
X64.825Y-44.91
X64.825Y-47.45
X66.555Y-54.895
X66.555Y-57.435
X66.555Y-59.975
X66.555Y-62.515
X66.555Y-65.055
X66.555Y-67.595
X66.555Y-70.135
X66.555Y-72.675
X67.365Y-44.91
X67.365Y-47.45
T6
X47.0Y-28.425
X51.7Y-25.425
X51.7Y-31.425
T7
X21.15Y-21.15
X21.15Y-80.45
X70.6Y-21.15
X70.6Y-80.45
M30
