M48
; DRILL file KiCad 10.0.4 date 2026-07-17T21:11:27
; FORMAT={-:-/ absolute / metric / decimal}
; #@! TF.CreationDate,2026-07-17T21:11:27-04:00
; #@! TF.GenerationSoftware,Kicad,Pcbnew,10.0.4
; #@! TF.FileFunction,Plated,1,2,PTH
FMAT,2
METRIC
; #@! TA.AperFunction,Plated,PTH,ComponentDrill
T1C0.800
; #@! TA.AperFunction,Plated,PTH,ComponentDrill
T2C0.950
; #@! TA.AperFunction,Plated,PTH,ComponentDrill
T3C1.000
; #@! TA.AperFunction,Plated,PTH,ComponentDrill
T4C1.780
%
G90
G05
T1
X48.735Y-106.995
X48.92Y-95.0
X48.92Y-99.05
X48.92Y-103.1
X58.895Y-106.995
X59.08Y-95.0
X59.08Y-99.05
X59.08Y-103.1
X92.0Y-93.5
X95.5Y-93.5
X103.5Y-91.0
X103.5Y-96.0
T2
X23.75Y-106.525
X26.25Y-106.525
X28.75Y-106.525
X31.25Y-106.525
X33.75Y-106.525
X36.0Y-79.0
X36.25Y-88.0
X36.25Y-106.525
X38.5Y-79.0
X38.75Y-88.0
X41.0Y-79.0
X41.25Y-88.0
X43.5Y-79.0
X43.75Y-88.0
X92.08Y-78.5
X94.58Y-78.5
X97.08Y-78.5
X99.58Y-78.5
T3
X23.295Y-30.17
X23.295Y-32.71
X23.295Y-35.25
X23.295Y-37.79
X23.295Y-40.33
X23.295Y-42.87
X23.295Y-45.41
X23.295Y-47.95
X23.295Y-50.49
X23.295Y-53.03
X23.295Y-55.57
X23.295Y-58.11
X23.295Y-60.65
X23.295Y-63.19
X23.295Y-65.73
X24.0Y-79.0
X24.0Y-87.975
X24.0Y-97.0
X25.835Y-30.17
X25.835Y-32.71
X25.835Y-35.25
X25.835Y-37.79
X25.835Y-40.33
X25.835Y-42.87
X25.835Y-45.41
X25.835Y-47.95
X25.835Y-50.49
X25.835Y-53.03
X25.835Y-55.57
X25.835Y-58.11
X25.835Y-60.65
X25.835Y-63.19
X25.835Y-65.73
X26.5Y-79.0
X26.5Y-87.975
X26.5Y-97.0
X48.695Y-30.17
X48.695Y-32.71
X48.695Y-35.25
X48.695Y-37.79
X48.695Y-40.33
X48.695Y-42.87
X48.695Y-45.41
X48.695Y-47.95
X48.695Y-50.49
X48.695Y-53.03
X48.695Y-55.57
X48.695Y-58.11
X48.695Y-60.65
X48.695Y-63.19
X48.695Y-65.73
X51.235Y-30.17
X51.235Y-32.71
X51.235Y-35.25
X51.235Y-37.79
X51.235Y-40.33
X51.235Y-42.87
X51.235Y-45.41
X51.235Y-47.95
X51.235Y-50.49
X51.235Y-53.03
X51.235Y-55.57
X51.235Y-58.11
X51.235Y-60.65
X51.235Y-63.19
X51.235Y-65.73
X57.89Y-25.852
X57.89Y-43.302
X58.3Y-53.46
X58.3Y-56.0
X58.3Y-58.54
X58.3Y-61.08
X58.3Y-63.62
X58.3Y-66.16
X64.815Y-103.72
X64.815Y-106.26
X72.0Y-104.0
X74.5Y-104.0
X83.5Y-56.0
X83.5Y-58.54
X83.5Y-61.08
X83.5Y-63.62
X91.57Y-52.0
X91.57Y-54.54
X91.57Y-57.08
X91.57Y-59.62
X91.57Y-62.16
X91.57Y-64.7
X91.57Y-67.24
X91.57Y-69.78
X97.387Y-25.852
X97.387Y-43.302
X103.95Y-52.0
X103.95Y-54.54
X103.95Y-57.08
X103.95Y-59.62
X103.95Y-62.16
X103.95Y-64.7
X103.95Y-67.24
X103.95Y-69.78
T4
X92.5Y-103.5
X92.5Y-106.9
X102.42Y-103.5
X102.42Y-106.9
M30
