M48
; DRILL file KiCad 10.0.4 date 2026-07-25T23:09:22
; FORMAT={-:-/ absolute / metric / decimal}
; #@! TF.CreationDate,2026-07-25T23:09:22-04:00
; #@! TF.GenerationSoftware,Kicad,Pcbnew,10.0.4
; #@! TF.FileFunction,Plated,1,2,PTH
FMAT,2
METRIC
; #@! TA.AperFunction,Plated,PTH,ViaDrill
T1C0.300
; #@! TA.AperFunction,Plated,PTH,ViaDrill
T2C0.400
; #@! TA.AperFunction,Plated,PTH,ComponentDrill
T3C0.950
; #@! TA.AperFunction,Plated,PTH,ComponentDrill
T4C1.000
; #@! TA.AperFunction,Plated,PTH,ComponentDrill
T5C1.600
%
G90
G05
T1
X21.775Y-27.95
X26.487Y-76.237
X27.7Y-96.125
X28.125Y-33.625
X30.35Y-98.225
X30.975Y-77.425
X38.65Y-92.9
X42.775Y-81.125
X42.775Y-92.525
X43.042Y-30.175
X43.042Y-37.575
X43.05Y-28.875
X44.325Y-77.175
X44.95Y-55.15
X45.756Y-85.375
X45.9Y-38.575
X45.9Y-43.2
X47.85Y-104.3
X50.25Y-70.525
X52.242Y-36.892
X52.859Y-38.916
X61.125Y-37.8
X61.45Y-96.675
X63.925Y-96.7
X64.041Y-49.075
X66.25Y-74.75
X66.4Y-101.6
X66.575Y-80.825
X68.8Y-74.725
X71.35Y-74.675
X72.05Y-58.275
X72.223Y-49.077
X72.25Y-37.775
X73.85Y-74.575
X74.126Y-66.8
X76.425Y-74.625
X76.425Y-82.45
X78.95Y-82.475
X80.925Y-93.425
X83.275Y-72.4
X83.35Y-104.3
X85.85Y-27.125
X87.166Y-71.134
X88.175Y-72.975
X89.575Y-103.325
X90.2Y-22.925
X96.925Y-66.775
T2
X84.95Y-29.9
T3
X61.425Y-91.775
X61.425Y-100.025
X63.925Y-91.775
X63.925Y-100.025
X66.425Y-91.775
X66.425Y-100.025
X68.925Y-91.775
X68.925Y-100.025
X75.925Y-91.75
X75.925Y-100.0
X78.425Y-91.75
X78.425Y-100.0
X80.925Y-91.75
X80.925Y-100.0
X83.425Y-91.75
X83.425Y-100.0
X85.925Y-91.75
X88.425Y-91.75
T4
X22.78Y-31.29
X22.78Y-33.83
X22.78Y-36.37
X22.78Y-38.91
X22.78Y-41.45
X22.78Y-43.99
X22.78Y-46.53
X22.78Y-49.07
X22.78Y-51.61
X22.78Y-54.15
X22.78Y-56.69
X22.78Y-59.23
X22.78Y-61.77
X22.78Y-64.31
X22.78Y-66.85
X25.32Y-31.29
X25.32Y-33.83
X25.32Y-36.37
X25.32Y-38.91
X25.32Y-41.45
X25.32Y-43.99
X25.32Y-46.53
X25.32Y-49.07
X25.32Y-51.61
X25.32Y-54.15
X25.32Y-56.69
X25.32Y-59.23
X25.32Y-61.77
X25.32Y-64.31
X25.32Y-66.85
X25.575Y-80.3
X25.575Y-82.84
X25.575Y-85.38
X25.575Y-87.92
X25.575Y-90.46
X25.575Y-93.0
X48.18Y-31.29
X48.18Y-33.83
X48.18Y-36.37
X48.18Y-38.91
X48.18Y-41.45
X48.18Y-43.99
X48.18Y-46.53
X48.18Y-49.07
X48.18Y-51.61
X48.18Y-54.15
X48.18Y-56.69
X48.18Y-59.23
X48.18Y-61.77
X48.18Y-64.31
X48.18Y-66.85
X50.72Y-31.29
X50.72Y-33.83
X50.72Y-36.37
X50.72Y-38.91
X50.72Y-41.45
X50.72Y-43.99
X50.72Y-46.53
X50.72Y-49.07
X50.72Y-51.61
X50.72Y-54.15
X50.72Y-56.69
X50.72Y-59.23
X50.72Y-61.77
X50.72Y-64.31
X50.72Y-66.85
X50.775Y-82.84
X50.775Y-85.38
X50.775Y-87.92
X50.775Y-90.46
X61.175Y-72.825
X61.175Y-85.205
X61.891Y-25.603
X61.891Y-65.1
X63.715Y-72.825
X63.715Y-85.205
X66.255Y-72.825
X66.255Y-85.205
X68.795Y-72.825
X68.795Y-85.205
X71.335Y-72.825
X71.335Y-85.205
X73.875Y-72.825
X73.875Y-85.205
X76.415Y-72.825
X76.415Y-85.205
X78.955Y-72.825
X78.955Y-85.205
X79.341Y-25.603
X79.341Y-65.1
X89.85Y-54.425
X89.875Y-47.225
X89.9Y-61.475
X89.975Y-68.425
X90.0Y-75.5
X92.35Y-54.425
X92.375Y-47.225
X92.4Y-61.475
X92.475Y-68.425
X92.5Y-75.5
T5
X85.575Y-34.625
X88.575Y-29.925
X91.575Y-34.625
M30
