%TF.GenerationSoftware,KiCad,Pcbnew,10.0.4*%
%TF.CreationDate,2026-07-25T23:09:19-04:00*%
%TF.ProjectId,MACK10_Controller,4d41434b-3130-45f4-936f-6e74726f6c6c,rev?*%
%TF.SameCoordinates,Original*%
%TF.FileFunction,Soldermask,Bot*%
%TF.FilePolarity,Negative*%
%FSLAX46Y46*%
G04 Gerber Fmt 4.6, Leading zero omitted, Abs format (unit mm)*
G04 Created by KiCad (PCBNEW 10.0.4) date 2026-07-25 23:09:19*
%MOMM*%
%LPD*%
G01*
G04 APERTURE LIST*
G04 Aperture macros list*
%AMRoundRect*
0 Rectangle with rounded corners*
0 $1 Rounding radius*
0 $2 $3 $4 $5 $6 $7 $8 $9 X,Y pos of 4 corners*
0 Add a 4 corners polygon primitive as box body*
4,1,4,$2,$3,$4,$5,$6,$7,$8,$9,$2,$3,0*
0 Add four circle primitives for the rounded corners*
1,1,$1+$1,$2,$3*
1,1,$1+$1,$4,$5*
1,1,$1+$1,$6,$7*
1,1,$1+$1,$8,$9*
0 Add four rect primitives between the rounded corners*
20,1,$1+$1,$2,$3,$4,$5,0*
20,1,$1+$1,$4,$5,$6,$7,0*
20,1,$1+$1,$6,$7,$8,$9,0*
20,1,$1+$1,$8,$9,$2,$3,0*%
G04 Aperture macros list end*
%ADD10O,1.700000X1.950000*%
%ADD11RoundRect,0.250000X-0.600000X-0.725000X0.600000X-0.725000X0.600000X0.725000X-0.600000X0.725000X0*%
%ADD12C,1.700000*%
%ADD13R,1.700000X1.700000*%
%ADD14RoundRect,0.250000X-0.600000X-0.750000X0.600000X-0.750000X0.600000X0.750000X-0.600000X0.750000X0*%
%ADD15O,1.700000X2.000000*%
%ADD16C,3.200000*%
%ADD17R,2.400000X2.400000*%
%ADD18C,2.400000*%
%ADD19R,2.600000X2.600000*%
%ADD20C,2.600000*%
G04 APERTURE END LIST*
D10*
%TO.C,J3*%
X68925000Y-100025000D03*
X66425000Y-100025000D03*
X63925000Y-100025000D03*
D11*
X61425000Y-100025000D03*
%TD*%
D10*
%TO.C,J5*%
X83425000Y-100000000D03*
X80925000Y-100000000D03*
X78425000Y-100000000D03*
D11*
X75925000Y-100000000D03*
%TD*%
D12*
%TO.C,U1*%
X50720000Y-66850000D03*
X48180000Y-66850000D03*
X50720000Y-64310000D03*
X48180000Y-64310000D03*
X50720000Y-61770000D03*
X48180000Y-61770000D03*
X50720000Y-59230000D03*
X48180000Y-59230000D03*
X50720000Y-56690000D03*
X48180000Y-56690000D03*
X50720000Y-54150000D03*
X48180000Y-54150000D03*
X50720000Y-51610000D03*
X48180000Y-51610000D03*
X50720000Y-49070000D03*
X48180000Y-49070000D03*
X50720000Y-46530000D03*
X48180000Y-46530000D03*
X50720000Y-43990000D03*
X48180000Y-43990000D03*
X50720000Y-41450000D03*
X48180000Y-41450000D03*
X50720000Y-38910000D03*
X48180000Y-38910000D03*
X50720000Y-36370000D03*
X48180000Y-36370000D03*
X50720000Y-33830000D03*
X48180000Y-33830000D03*
D13*
X50720000Y-31290000D03*
D12*
X48180000Y-31290000D03*
X25320000Y-66850000D03*
X22780000Y-66850000D03*
X25320000Y-64310000D03*
X22780000Y-64310000D03*
X25320000Y-61770000D03*
X22780000Y-61770000D03*
X25320000Y-59230000D03*
X22780000Y-59230000D03*
X25320000Y-56690000D03*
X22780000Y-56690000D03*
X25320000Y-54150000D03*
X22780000Y-54150000D03*
X25320000Y-51610000D03*
X22780000Y-51610000D03*
X25320000Y-49070000D03*
X22780000Y-49070000D03*
X25320000Y-46530000D03*
X22780000Y-46530000D03*
X25320000Y-43990000D03*
X22780000Y-43990000D03*
X25320000Y-41450000D03*
X22780000Y-41450000D03*
X25320000Y-38910000D03*
X22780000Y-38910000D03*
X25320000Y-36370000D03*
X22780000Y-36370000D03*
X25320000Y-33830000D03*
X22780000Y-33830000D03*
D13*
X25320000Y-31290000D03*
D12*
X22780000Y-31290000D03*
%TD*%
D10*
%TO.C,J6*%
X88425000Y-91750000D03*
X85925000Y-91750000D03*
X83425000Y-91750000D03*
X80925000Y-91750000D03*
X78425000Y-91750000D03*
D11*
X75925000Y-91750000D03*
%TD*%
D14*
%TO.C,J10*%
X89975000Y-68425000D03*
D15*
X92475000Y-68425000D03*
%TD*%
D16*
%TO.C,Mount 1*%
X25000000Y-25000000D03*
%TD*%
D14*
%TO.C,J8*%
X89875000Y-47225000D03*
D15*
X92375000Y-47225000D03*
%TD*%
D14*
%TO.C,J7*%
X89900000Y-61475000D03*
D15*
X92400000Y-61475000D03*
%TD*%
D16*
%TO.C,Mount 4*%
X95000000Y-101000000D03*
%TD*%
D17*
%TO.C,U4*%
X61890833Y-65100167D03*
D18*
X79340833Y-65100167D03*
X61890833Y-25603167D03*
X79340833Y-25603167D03*
%TD*%
D16*
%TO.C,Mount 3*%
X95000000Y-25000000D03*
%TD*%
D14*
%TO.C,F1*%
X90000000Y-75500000D03*
D15*
X92500000Y-75500000D03*
%TD*%
D19*
%TO.C,J4*%
X85575000Y-34625000D03*
D20*
X91575000Y-34625000D03*
X88575000Y-29925000D03*
%TD*%
D11*
%TO.C,J1*%
X61425000Y-91775000D03*
D10*
X63925000Y-91775000D03*
X66425000Y-91775000D03*
X68925000Y-91775000D03*
%TD*%
D14*
%TO.C,J9*%
X89850000Y-54425000D03*
D15*
X92350000Y-54425000D03*
%TD*%
D16*
%TO.C,Mount 2*%
X24500000Y-101000000D03*
%TD*%
D13*
%TO.C,U2*%
X25575000Y-80300000D03*
D12*
X25575000Y-82840000D03*
X25575000Y-85380000D03*
X25575000Y-87920000D03*
X25575000Y-90460000D03*
X25575000Y-93000000D03*
X50775000Y-82840000D03*
X50775000Y-85380000D03*
X50775000Y-87920000D03*
X50775000Y-90460000D03*
%TD*%
D13*
%TO.C,U3*%
X61175000Y-85205000D03*
D12*
X63715000Y-85205000D03*
X66255000Y-85205000D03*
X68795000Y-85205000D03*
X71335000Y-85205000D03*
X73875000Y-85205000D03*
X76415000Y-85205000D03*
X78955000Y-85205000D03*
X61175000Y-72825000D03*
X63715000Y-72825000D03*
X66255000Y-72825000D03*
X68795000Y-72825000D03*
X71335000Y-72825000D03*
X73875000Y-72825000D03*
X76415000Y-72825000D03*
D13*
X78955000Y-72825000D03*
%TD*%
M02*
