%TF.GenerationSoftware,KiCad,Pcbnew,10.0.4*%
%TF.CreationDate,2026-07-25T23:09:19-04:00*%
%TF.ProjectId,MACK10_Controller,4d41434b-3130-45f4-936f-6e74726f6c6c,rev?*%
%TF.SameCoordinates,Original*%
%TF.FileFunction,Legend,Top*%
%TF.FilePolarity,Positive*%
%FSLAX46Y46*%
G04 Gerber Fmt 4.6, Leading zero omitted, Abs format (unit mm)*
G04 Created by KiCad (PCBNEW 10.0.4) date 2026-07-25 23:09:19*
%MOMM*%
%LPD*%
G01*
G04 APERTURE LIST*
%ADD10C,0.200000*%
%ADD11C,0.150000*%
%ADD12C,0.100000*%
%ADD13C,0.120000*%
G04 APERTURE END LIST*
D10*
X81900000Y-35312430D02*
X82950000Y-34612430D01*
X81900000Y-33900000D01*
X81900000Y-35300000D01*
X81900000Y-35312430D01*
G36*
X82950000Y-34612430D02*
G01*
X81900000Y-35312430D01*
X81900000Y-35300000D01*
X81900000Y-33900000D01*
X82950000Y-34612430D01*
G37*
X28800000Y-79662570D02*
X27750000Y-80362570D01*
X28800000Y-81075000D01*
X28800000Y-79675000D01*
X28800000Y-79662570D01*
G36*
X28800000Y-79675000D02*
G01*
X28800000Y-81075000D01*
X27750000Y-80362570D01*
X28800000Y-79662570D01*
X28800000Y-79675000D01*
G37*
X81225000Y-72112570D02*
X80175000Y-72812570D01*
X81225000Y-73525000D01*
X81225000Y-72125000D01*
X81225000Y-72112570D01*
G36*
X81225000Y-72125000D02*
G01*
X81225000Y-73525000D01*
X80175000Y-72812570D01*
X81225000Y-72112570D01*
X81225000Y-72125000D01*
G37*
X59150000Y-65850000D02*
X60200000Y-65150000D01*
X59150000Y-64437570D01*
X59150000Y-65837570D01*
X59150000Y-65850000D01*
G36*
X60200000Y-65150000D02*
G01*
X59150000Y-65850000D01*
X59150000Y-65837570D01*
X59150000Y-64437570D01*
X60200000Y-65150000D01*
G37*
X28600000Y-30600000D02*
X27550000Y-31300000D01*
X28600000Y-32012430D01*
X28600000Y-30612430D01*
X28600000Y-30600000D01*
G36*
X28600000Y-30612430D02*
G01*
X28600000Y-32012430D01*
X27550000Y-31300000D01*
X28600000Y-30600000D01*
X28600000Y-30612430D01*
G37*
X60737570Y-88025000D02*
X61437570Y-89075000D01*
X62150000Y-88025000D01*
X60750000Y-88025000D01*
X60737570Y-88025000D01*
G36*
X61437570Y-89075000D02*
G01*
X60737570Y-88025000D01*
X60750000Y-88025000D01*
X62150000Y-88025000D01*
X61437570Y-89075000D01*
G37*
X75250000Y-88000000D02*
X75950000Y-89050000D01*
X76662430Y-88000000D01*
X75262430Y-88000000D01*
X75250000Y-88000000D01*
G36*
X75950000Y-89050000D02*
G01*
X75250000Y-88000000D01*
X75262430Y-88000000D01*
X76662430Y-88000000D01*
X75950000Y-89050000D01*
G37*
X75250000Y-96150000D02*
X75950000Y-97200000D01*
X76662430Y-96150000D01*
X75262430Y-96150000D01*
X75250000Y-96150000D01*
G36*
X75950000Y-97200000D02*
G01*
X75250000Y-96150000D01*
X75262430Y-96150000D01*
X76662430Y-96150000D01*
X75950000Y-97200000D01*
G37*
X85430041Y-77700000D02*
X86480041Y-77000000D01*
X85430041Y-76287570D01*
X85430041Y-77687570D01*
X85430041Y-77700000D01*
G36*
X86480041Y-77000000D02*
G01*
X85430041Y-77700000D01*
X85430041Y-77687570D01*
X85430041Y-76287570D01*
X86480041Y-77000000D01*
G37*
X85430041Y-69125000D02*
X86480041Y-68425000D01*
X85430041Y-67712570D01*
X85430041Y-69112570D01*
X85430041Y-69125000D01*
G36*
X86480041Y-68425000D02*
G01*
X85430041Y-69125000D01*
X85430041Y-69112570D01*
X85430041Y-67712570D01*
X86480041Y-68425000D01*
G37*
X85430041Y-62200000D02*
X86480041Y-61500000D01*
X85430041Y-60787570D01*
X85430041Y-62187570D01*
X85430041Y-62200000D01*
G36*
X86480041Y-61500000D02*
G01*
X85430041Y-62200000D01*
X85430041Y-62187570D01*
X85430041Y-60787570D01*
X86480041Y-61500000D01*
G37*
X85430041Y-55150000D02*
X86480041Y-54450000D01*
X85430041Y-53737570D01*
X85430041Y-55137570D01*
X85430041Y-55150000D01*
G36*
X86480041Y-54450000D02*
G01*
X85430041Y-55150000D01*
X85430041Y-55137570D01*
X85430041Y-53737570D01*
X86480041Y-54450000D01*
G37*
D11*
X55374847Y-63375654D02*
X54374847Y-63375654D01*
X54374847Y-63375654D02*
X55089132Y-63042321D01*
X55089132Y-63042321D02*
X54374847Y-62708988D01*
X54374847Y-62708988D02*
X55374847Y-62708988D01*
X55089132Y-62280416D02*
X55089132Y-61804226D01*
X55374847Y-62375654D02*
X54374847Y-62042321D01*
X54374847Y-62042321D02*
X55374847Y-61708988D01*
X55279608Y-60804226D02*
X55327228Y-60851845D01*
X55327228Y-60851845D02*
X55374847Y-60994702D01*
X55374847Y-60994702D02*
X55374847Y-61089940D01*
X55374847Y-61089940D02*
X55327228Y-61232797D01*
X55327228Y-61232797D02*
X55231989Y-61328035D01*
X55231989Y-61328035D02*
X55136751Y-61375654D01*
X55136751Y-61375654D02*
X54946275Y-61423273D01*
X54946275Y-61423273D02*
X54803418Y-61423273D01*
X54803418Y-61423273D02*
X54612942Y-61375654D01*
X54612942Y-61375654D02*
X54517704Y-61328035D01*
X54517704Y-61328035D02*
X54422466Y-61232797D01*
X54422466Y-61232797D02*
X54374847Y-61089940D01*
X54374847Y-61089940D02*
X54374847Y-60994702D01*
X54374847Y-60994702D02*
X54422466Y-60851845D01*
X54422466Y-60851845D02*
X54470085Y-60804226D01*
X55374847Y-60375654D02*
X54374847Y-60375654D01*
X55374847Y-59804226D02*
X54803418Y-60232797D01*
X54374847Y-59804226D02*
X54946275Y-60375654D01*
X54993894Y-59375654D02*
X54993894Y-58613750D01*
X55374847Y-57613750D02*
X55374847Y-58185178D01*
X55374847Y-57899464D02*
X54374847Y-57899464D01*
X54374847Y-57899464D02*
X54517704Y-57994702D01*
X54517704Y-57994702D02*
X54612942Y-58089940D01*
X54612942Y-58089940D02*
X54660561Y-58185178D01*
X54374847Y-56994702D02*
X54374847Y-56899464D01*
X54374847Y-56899464D02*
X54422466Y-56804226D01*
X54422466Y-56804226D02*
X54470085Y-56756607D01*
X54470085Y-56756607D02*
X54565323Y-56708988D01*
X54565323Y-56708988D02*
X54755799Y-56661369D01*
X54755799Y-56661369D02*
X54993894Y-56661369D01*
X54993894Y-56661369D02*
X55184370Y-56708988D01*
X55184370Y-56708988D02*
X55279608Y-56756607D01*
X55279608Y-56756607D02*
X55327228Y-56804226D01*
X55327228Y-56804226D02*
X55374847Y-56899464D01*
X55374847Y-56899464D02*
X55374847Y-56994702D01*
X55374847Y-56994702D02*
X55327228Y-57089940D01*
X55327228Y-57089940D02*
X55279608Y-57137559D01*
X55279608Y-57137559D02*
X55184370Y-57185178D01*
X55184370Y-57185178D02*
X54993894Y-57232797D01*
X54993894Y-57232797D02*
X54755799Y-57232797D01*
X54755799Y-57232797D02*
X54565323Y-57185178D01*
X54565323Y-57185178D02*
X54470085Y-57137559D01*
X54470085Y-57137559D02*
X54422466Y-57089940D01*
X54422466Y-57089940D02*
X54374847Y-56994702D01*
X55279608Y-54899464D02*
X55327228Y-54947083D01*
X55327228Y-54947083D02*
X55374847Y-55089940D01*
X55374847Y-55089940D02*
X55374847Y-55185178D01*
X55374847Y-55185178D02*
X55327228Y-55328035D01*
X55327228Y-55328035D02*
X55231989Y-55423273D01*
X55231989Y-55423273D02*
X55136751Y-55470892D01*
X55136751Y-55470892D02*
X54946275Y-55518511D01*
X54946275Y-55518511D02*
X54803418Y-55518511D01*
X54803418Y-55518511D02*
X54612942Y-55470892D01*
X54612942Y-55470892D02*
X54517704Y-55423273D01*
X54517704Y-55423273D02*
X54422466Y-55328035D01*
X54422466Y-55328035D02*
X54374847Y-55185178D01*
X54374847Y-55185178D02*
X54374847Y-55089940D01*
X54374847Y-55089940D02*
X54422466Y-54947083D01*
X54422466Y-54947083D02*
X54470085Y-54899464D01*
X54374847Y-54280416D02*
X54374847Y-54089940D01*
X54374847Y-54089940D02*
X54422466Y-53994702D01*
X54422466Y-53994702D02*
X54517704Y-53899464D01*
X54517704Y-53899464D02*
X54708180Y-53851845D01*
X54708180Y-53851845D02*
X55041513Y-53851845D01*
X55041513Y-53851845D02*
X55231989Y-53899464D01*
X55231989Y-53899464D02*
X55327228Y-53994702D01*
X55327228Y-53994702D02*
X55374847Y-54089940D01*
X55374847Y-54089940D02*
X55374847Y-54280416D01*
X55374847Y-54280416D02*
X55327228Y-54375654D01*
X55327228Y-54375654D02*
X55231989Y-54470892D01*
X55231989Y-54470892D02*
X55041513Y-54518511D01*
X55041513Y-54518511D02*
X54708180Y-54518511D01*
X54708180Y-54518511D02*
X54517704Y-54470892D01*
X54517704Y-54470892D02*
X54422466Y-54375654D01*
X54422466Y-54375654D02*
X54374847Y-54280416D01*
X55374847Y-53423273D02*
X54374847Y-53423273D01*
X54374847Y-53423273D02*
X55374847Y-52851845D01*
X55374847Y-52851845D02*
X54374847Y-52851845D01*
X54374847Y-52518511D02*
X54374847Y-51947083D01*
X55374847Y-52232797D02*
X54374847Y-52232797D01*
X55374847Y-51042321D02*
X54898656Y-51375654D01*
X55374847Y-51613749D02*
X54374847Y-51613749D01*
X54374847Y-51613749D02*
X54374847Y-51232797D01*
X54374847Y-51232797D02*
X54422466Y-51137559D01*
X54422466Y-51137559D02*
X54470085Y-51089940D01*
X54470085Y-51089940D02*
X54565323Y-51042321D01*
X54565323Y-51042321D02*
X54708180Y-51042321D01*
X54708180Y-51042321D02*
X54803418Y-51089940D01*
X54803418Y-51089940D02*
X54851037Y-51137559D01*
X54851037Y-51137559D02*
X54898656Y-51232797D01*
X54898656Y-51232797D02*
X54898656Y-51613749D01*
X54374847Y-50423273D02*
X54374847Y-50232797D01*
X54374847Y-50232797D02*
X54422466Y-50137559D01*
X54422466Y-50137559D02*
X54517704Y-50042321D01*
X54517704Y-50042321D02*
X54708180Y-49994702D01*
X54708180Y-49994702D02*
X55041513Y-49994702D01*
X55041513Y-49994702D02*
X55231989Y-50042321D01*
X55231989Y-50042321D02*
X55327228Y-50137559D01*
X55327228Y-50137559D02*
X55374847Y-50232797D01*
X55374847Y-50232797D02*
X55374847Y-50423273D01*
X55374847Y-50423273D02*
X55327228Y-50518511D01*
X55327228Y-50518511D02*
X55231989Y-50613749D01*
X55231989Y-50613749D02*
X55041513Y-50661368D01*
X55041513Y-50661368D02*
X54708180Y-50661368D01*
X54708180Y-50661368D02*
X54517704Y-50613749D01*
X54517704Y-50613749D02*
X54422466Y-50518511D01*
X54422466Y-50518511D02*
X54374847Y-50423273D01*
X55374847Y-49089940D02*
X55374847Y-49566130D01*
X55374847Y-49566130D02*
X54374847Y-49566130D01*
X54851037Y-47661368D02*
X54898656Y-47518511D01*
X54898656Y-47518511D02*
X54946275Y-47470892D01*
X54946275Y-47470892D02*
X55041513Y-47423273D01*
X55041513Y-47423273D02*
X55184370Y-47423273D01*
X55184370Y-47423273D02*
X55279608Y-47470892D01*
X55279608Y-47470892D02*
X55327228Y-47518511D01*
X55327228Y-47518511D02*
X55374847Y-47613749D01*
X55374847Y-47613749D02*
X55374847Y-47994701D01*
X55374847Y-47994701D02*
X54374847Y-47994701D01*
X54374847Y-47994701D02*
X54374847Y-47661368D01*
X54374847Y-47661368D02*
X54422466Y-47566130D01*
X54422466Y-47566130D02*
X54470085Y-47518511D01*
X54470085Y-47518511D02*
X54565323Y-47470892D01*
X54565323Y-47470892D02*
X54660561Y-47470892D01*
X54660561Y-47470892D02*
X54755799Y-47518511D01*
X54755799Y-47518511D02*
X54803418Y-47566130D01*
X54803418Y-47566130D02*
X54851037Y-47661368D01*
X54851037Y-47661368D02*
X54851037Y-47994701D01*
X54374847Y-46804225D02*
X54374847Y-46613749D01*
X54374847Y-46613749D02*
X54422466Y-46518511D01*
X54422466Y-46518511D02*
X54517704Y-46423273D01*
X54517704Y-46423273D02*
X54708180Y-46375654D01*
X54708180Y-46375654D02*
X55041513Y-46375654D01*
X55041513Y-46375654D02*
X55231989Y-46423273D01*
X55231989Y-46423273D02*
X55327228Y-46518511D01*
X55327228Y-46518511D02*
X55374847Y-46613749D01*
X55374847Y-46613749D02*
X55374847Y-46804225D01*
X55374847Y-46804225D02*
X55327228Y-46899463D01*
X55327228Y-46899463D02*
X55231989Y-46994701D01*
X55231989Y-46994701D02*
X55041513Y-47042320D01*
X55041513Y-47042320D02*
X54708180Y-47042320D01*
X54708180Y-47042320D02*
X54517704Y-46994701D01*
X54517704Y-46994701D02*
X54422466Y-46899463D01*
X54422466Y-46899463D02*
X54374847Y-46804225D01*
X55089132Y-45994701D02*
X55089132Y-45518511D01*
X55374847Y-46089939D02*
X54374847Y-45756606D01*
X54374847Y-45756606D02*
X55374847Y-45423273D01*
X55374847Y-44518511D02*
X54898656Y-44851844D01*
X55374847Y-45089939D02*
X54374847Y-45089939D01*
X54374847Y-45089939D02*
X54374847Y-44708987D01*
X54374847Y-44708987D02*
X54422466Y-44613749D01*
X54422466Y-44613749D02*
X54470085Y-44566130D01*
X54470085Y-44566130D02*
X54565323Y-44518511D01*
X54565323Y-44518511D02*
X54708180Y-44518511D01*
X54708180Y-44518511D02*
X54803418Y-44566130D01*
X54803418Y-44566130D02*
X54851037Y-44613749D01*
X54851037Y-44613749D02*
X54898656Y-44708987D01*
X54898656Y-44708987D02*
X54898656Y-45089939D01*
X55374847Y-44089939D02*
X54374847Y-44089939D01*
X54374847Y-44089939D02*
X54374847Y-43851844D01*
X54374847Y-43851844D02*
X54422466Y-43708987D01*
X54422466Y-43708987D02*
X54517704Y-43613749D01*
X54517704Y-43613749D02*
X54612942Y-43566130D01*
X54612942Y-43566130D02*
X54803418Y-43518511D01*
X54803418Y-43518511D02*
X54946275Y-43518511D01*
X54946275Y-43518511D02*
X55136751Y-43566130D01*
X55136751Y-43566130D02*
X55231989Y-43613749D01*
X55231989Y-43613749D02*
X55327228Y-43708987D01*
X55327228Y-43708987D02*
X55374847Y-43851844D01*
X55374847Y-43851844D02*
X55374847Y-44089939D01*
X56984791Y-54947083D02*
X56508600Y-55280416D01*
X56984791Y-55518511D02*
X55984791Y-55518511D01*
X55984791Y-55518511D02*
X55984791Y-55137559D01*
X55984791Y-55137559D02*
X56032410Y-55042321D01*
X56032410Y-55042321D02*
X56080029Y-54994702D01*
X56080029Y-54994702D02*
X56175267Y-54947083D01*
X56175267Y-54947083D02*
X56318124Y-54947083D01*
X56318124Y-54947083D02*
X56413362Y-54994702D01*
X56413362Y-54994702D02*
X56460981Y-55042321D01*
X56460981Y-55042321D02*
X56508600Y-55137559D01*
X56508600Y-55137559D02*
X56508600Y-55518511D01*
X56937172Y-54137559D02*
X56984791Y-54232797D01*
X56984791Y-54232797D02*
X56984791Y-54423273D01*
X56984791Y-54423273D02*
X56937172Y-54518511D01*
X56937172Y-54518511D02*
X56841933Y-54566130D01*
X56841933Y-54566130D02*
X56460981Y-54566130D01*
X56460981Y-54566130D02*
X56365743Y-54518511D01*
X56365743Y-54518511D02*
X56318124Y-54423273D01*
X56318124Y-54423273D02*
X56318124Y-54232797D01*
X56318124Y-54232797D02*
X56365743Y-54137559D01*
X56365743Y-54137559D02*
X56460981Y-54089940D01*
X56460981Y-54089940D02*
X56556219Y-54089940D01*
X56556219Y-54089940D02*
X56651457Y-54566130D01*
X56318124Y-53756606D02*
X56984791Y-53518511D01*
X56984791Y-53518511D02*
X56318124Y-53280416D01*
X56603838Y-52899463D02*
X56603838Y-52137559D01*
X56699076Y-51708987D02*
X56699076Y-51232797D01*
X56984791Y-51804225D02*
X55984791Y-51470892D01*
X55984791Y-51470892D02*
X56984791Y-51137559D01*
X56080029Y-50089939D02*
X56032410Y-50042320D01*
X56032410Y-50042320D02*
X55984791Y-49947082D01*
X55984791Y-49947082D02*
X55984791Y-49708987D01*
X55984791Y-49708987D02*
X56032410Y-49613749D01*
X56032410Y-49613749D02*
X56080029Y-49566130D01*
X56080029Y-49566130D02*
X56175267Y-49518511D01*
X56175267Y-49518511D02*
X56270505Y-49518511D01*
X56270505Y-49518511D02*
X56413362Y-49566130D01*
X56413362Y-49566130D02*
X56984791Y-50137558D01*
X56984791Y-50137558D02*
X56984791Y-49518511D01*
X55984791Y-48899463D02*
X55984791Y-48804225D01*
X55984791Y-48804225D02*
X56032410Y-48708987D01*
X56032410Y-48708987D02*
X56080029Y-48661368D01*
X56080029Y-48661368D02*
X56175267Y-48613749D01*
X56175267Y-48613749D02*
X56365743Y-48566130D01*
X56365743Y-48566130D02*
X56603838Y-48566130D01*
X56603838Y-48566130D02*
X56794314Y-48613749D01*
X56794314Y-48613749D02*
X56889552Y-48661368D01*
X56889552Y-48661368D02*
X56937172Y-48708987D01*
X56937172Y-48708987D02*
X56984791Y-48804225D01*
X56984791Y-48804225D02*
X56984791Y-48899463D01*
X56984791Y-48899463D02*
X56937172Y-48994701D01*
X56937172Y-48994701D02*
X56889552Y-49042320D01*
X56889552Y-49042320D02*
X56794314Y-49089939D01*
X56794314Y-49089939D02*
X56603838Y-49137558D01*
X56603838Y-49137558D02*
X56365743Y-49137558D01*
X56365743Y-49137558D02*
X56175267Y-49089939D01*
X56175267Y-49089939D02*
X56080029Y-49042320D01*
X56080029Y-49042320D02*
X56032410Y-48994701D01*
X56032410Y-48994701D02*
X55984791Y-48899463D01*
X56080029Y-48185177D02*
X56032410Y-48137558D01*
X56032410Y-48137558D02*
X55984791Y-48042320D01*
X55984791Y-48042320D02*
X55984791Y-47804225D01*
X55984791Y-47804225D02*
X56032410Y-47708987D01*
X56032410Y-47708987D02*
X56080029Y-47661368D01*
X56080029Y-47661368D02*
X56175267Y-47613749D01*
X56175267Y-47613749D02*
X56270505Y-47613749D01*
X56270505Y-47613749D02*
X56413362Y-47661368D01*
X56413362Y-47661368D02*
X56984791Y-48232796D01*
X56984791Y-48232796D02*
X56984791Y-47613749D01*
X55984791Y-46756606D02*
X55984791Y-46947082D01*
X55984791Y-46947082D02*
X56032410Y-47042320D01*
X56032410Y-47042320D02*
X56080029Y-47089939D01*
X56080029Y-47089939D02*
X56222886Y-47185177D01*
X56222886Y-47185177D02*
X56413362Y-47232796D01*
X56413362Y-47232796D02*
X56794314Y-47232796D01*
X56794314Y-47232796D02*
X56889552Y-47185177D01*
X56889552Y-47185177D02*
X56937172Y-47137558D01*
X56937172Y-47137558D02*
X56984791Y-47042320D01*
X56984791Y-47042320D02*
X56984791Y-46851844D01*
X56984791Y-46851844D02*
X56937172Y-46756606D01*
X56937172Y-46756606D02*
X56889552Y-46708987D01*
X56889552Y-46708987D02*
X56794314Y-46661368D01*
X56794314Y-46661368D02*
X56556219Y-46661368D01*
X56556219Y-46661368D02*
X56460981Y-46708987D01*
X56460981Y-46708987D02*
X56413362Y-46756606D01*
X56413362Y-46756606D02*
X56365743Y-46851844D01*
X56365743Y-46851844D02*
X56365743Y-47042320D01*
X56365743Y-47042320D02*
X56413362Y-47137558D01*
X56413362Y-47137558D02*
X56460981Y-47185177D01*
X56460981Y-47185177D02*
X56556219Y-47232796D01*
X56603838Y-46232796D02*
X56603838Y-45470892D01*
X55984791Y-44804225D02*
X55984791Y-44708987D01*
X55984791Y-44708987D02*
X56032410Y-44613749D01*
X56032410Y-44613749D02*
X56080029Y-44566130D01*
X56080029Y-44566130D02*
X56175267Y-44518511D01*
X56175267Y-44518511D02*
X56365743Y-44470892D01*
X56365743Y-44470892D02*
X56603838Y-44470892D01*
X56603838Y-44470892D02*
X56794314Y-44518511D01*
X56794314Y-44518511D02*
X56889552Y-44566130D01*
X56889552Y-44566130D02*
X56937172Y-44613749D01*
X56937172Y-44613749D02*
X56984791Y-44708987D01*
X56984791Y-44708987D02*
X56984791Y-44804225D01*
X56984791Y-44804225D02*
X56937172Y-44899463D01*
X56937172Y-44899463D02*
X56889552Y-44947082D01*
X56889552Y-44947082D02*
X56794314Y-44994701D01*
X56794314Y-44994701D02*
X56603838Y-45042320D01*
X56603838Y-45042320D02*
X56365743Y-45042320D01*
X56365743Y-45042320D02*
X56175267Y-44994701D01*
X56175267Y-44994701D02*
X56080029Y-44947082D01*
X56080029Y-44947082D02*
X56032410Y-44899463D01*
X56032410Y-44899463D02*
X55984791Y-44804225D01*
X55984791Y-44137558D02*
X55984791Y-43470892D01*
X55984791Y-43470892D02*
X56984791Y-43899463D01*
X21882143Y-69506009D02*
X22215476Y-69506009D01*
X22358333Y-70029819D02*
X21882143Y-70029819D01*
X21882143Y-70029819D02*
X21882143Y-69029819D01*
X21882143Y-69029819D02*
X22358333Y-69029819D01*
X22739286Y-69982200D02*
X22882143Y-70029819D01*
X22882143Y-70029819D02*
X23120238Y-70029819D01*
X23120238Y-70029819D02*
X23215476Y-69982200D01*
X23215476Y-69982200D02*
X23263095Y-69934580D01*
X23263095Y-69934580D02*
X23310714Y-69839342D01*
X23310714Y-69839342D02*
X23310714Y-69744104D01*
X23310714Y-69744104D02*
X23263095Y-69648866D01*
X23263095Y-69648866D02*
X23215476Y-69601247D01*
X23215476Y-69601247D02*
X23120238Y-69553628D01*
X23120238Y-69553628D02*
X22929762Y-69506009D01*
X22929762Y-69506009D02*
X22834524Y-69458390D01*
X22834524Y-69458390D02*
X22786905Y-69410771D01*
X22786905Y-69410771D02*
X22739286Y-69315533D01*
X22739286Y-69315533D02*
X22739286Y-69220295D01*
X22739286Y-69220295D02*
X22786905Y-69125057D01*
X22786905Y-69125057D02*
X22834524Y-69077438D01*
X22834524Y-69077438D02*
X22929762Y-69029819D01*
X22929762Y-69029819D02*
X23167857Y-69029819D01*
X23167857Y-69029819D02*
X23310714Y-69077438D01*
X23739286Y-70029819D02*
X23739286Y-69029819D01*
X23739286Y-69029819D02*
X24120238Y-69029819D01*
X24120238Y-69029819D02*
X24215476Y-69077438D01*
X24215476Y-69077438D02*
X24263095Y-69125057D01*
X24263095Y-69125057D02*
X24310714Y-69220295D01*
X24310714Y-69220295D02*
X24310714Y-69363152D01*
X24310714Y-69363152D02*
X24263095Y-69458390D01*
X24263095Y-69458390D02*
X24215476Y-69506009D01*
X24215476Y-69506009D02*
X24120238Y-69553628D01*
X24120238Y-69553628D02*
X23739286Y-69553628D01*
X24644048Y-69029819D02*
X25263095Y-69029819D01*
X25263095Y-69029819D02*
X24929762Y-69410771D01*
X24929762Y-69410771D02*
X25072619Y-69410771D01*
X25072619Y-69410771D02*
X25167857Y-69458390D01*
X25167857Y-69458390D02*
X25215476Y-69506009D01*
X25215476Y-69506009D02*
X25263095Y-69601247D01*
X25263095Y-69601247D02*
X25263095Y-69839342D01*
X25263095Y-69839342D02*
X25215476Y-69934580D01*
X25215476Y-69934580D02*
X25167857Y-69982200D01*
X25167857Y-69982200D02*
X25072619Y-70029819D01*
X25072619Y-70029819D02*
X24786905Y-70029819D01*
X24786905Y-70029819D02*
X24691667Y-69982200D01*
X24691667Y-69982200D02*
X24644048Y-69934580D01*
X25644048Y-69125057D02*
X25691667Y-69077438D01*
X25691667Y-69077438D02*
X25786905Y-69029819D01*
X25786905Y-69029819D02*
X26025000Y-69029819D01*
X26025000Y-69029819D02*
X26120238Y-69077438D01*
X26120238Y-69077438D02*
X26167857Y-69125057D01*
X26167857Y-69125057D02*
X26215476Y-69220295D01*
X26215476Y-69220295D02*
X26215476Y-69315533D01*
X26215476Y-69315533D02*
X26167857Y-69458390D01*
X26167857Y-69458390D02*
X25596429Y-70029819D01*
X25596429Y-70029819D02*
X26215476Y-70029819D01*
D10*
X85430041Y-47940897D02*
X86480041Y-47240897D01*
X85430041Y-46528467D01*
X85430041Y-47928467D01*
X85430041Y-47940897D01*
G36*
X86480041Y-47240897D02*
G01*
X85430041Y-47940897D01*
X85430041Y-47928467D01*
X85430041Y-46528467D01*
X86480041Y-47240897D01*
G37*
X60737570Y-96175000D02*
X61437570Y-97225000D01*
X62150000Y-96175000D01*
X60750000Y-96175000D01*
X60737570Y-96175000D01*
G36*
X61437570Y-97225000D02*
G01*
X60737570Y-96175000D01*
X60750000Y-96175000D01*
X62150000Y-96175000D01*
X61437570Y-97225000D01*
G37*
D11*
X64841666Y-95929819D02*
X64841666Y-96644104D01*
X64841666Y-96644104D02*
X64794047Y-96786961D01*
X64794047Y-96786961D02*
X64698809Y-96882200D01*
X64698809Y-96882200D02*
X64555952Y-96929819D01*
X64555952Y-96929819D02*
X64460714Y-96929819D01*
X65222619Y-95929819D02*
X65841666Y-95929819D01*
X65841666Y-95929819D02*
X65508333Y-96310771D01*
X65508333Y-96310771D02*
X65651190Y-96310771D01*
X65651190Y-96310771D02*
X65746428Y-96358390D01*
X65746428Y-96358390D02*
X65794047Y-96406009D01*
X65794047Y-96406009D02*
X65841666Y-96501247D01*
X65841666Y-96501247D02*
X65841666Y-96739342D01*
X65841666Y-96739342D02*
X65794047Y-96834580D01*
X65794047Y-96834580D02*
X65746428Y-96882200D01*
X65746428Y-96882200D02*
X65651190Y-96929819D01*
X65651190Y-96929819D02*
X65365476Y-96929819D01*
X65365476Y-96929819D02*
X65270238Y-96882200D01*
X65270238Y-96882200D02*
X65222619Y-96834580D01*
X57779819Y-103430953D02*
X57779819Y-103907143D01*
X57779819Y-103907143D02*
X56779819Y-103907143D01*
X57779819Y-102954762D02*
X57732200Y-103050000D01*
X57732200Y-103050000D02*
X57684580Y-103097619D01*
X57684580Y-103097619D02*
X57589342Y-103145238D01*
X57589342Y-103145238D02*
X57303628Y-103145238D01*
X57303628Y-103145238D02*
X57208390Y-103097619D01*
X57208390Y-103097619D02*
X57160771Y-103050000D01*
X57160771Y-103050000D02*
X57113152Y-102954762D01*
X57113152Y-102954762D02*
X57113152Y-102811905D01*
X57113152Y-102811905D02*
X57160771Y-102716667D01*
X57160771Y-102716667D02*
X57208390Y-102669048D01*
X57208390Y-102669048D02*
X57303628Y-102621429D01*
X57303628Y-102621429D02*
X57589342Y-102621429D01*
X57589342Y-102621429D02*
X57684580Y-102669048D01*
X57684580Y-102669048D02*
X57732200Y-102716667D01*
X57732200Y-102716667D02*
X57779819Y-102811905D01*
X57779819Y-102811905D02*
X57779819Y-102954762D01*
X57779819Y-101764286D02*
X57256009Y-101764286D01*
X57256009Y-101764286D02*
X57160771Y-101811905D01*
X57160771Y-101811905D02*
X57113152Y-101907143D01*
X57113152Y-101907143D02*
X57113152Y-102097619D01*
X57113152Y-102097619D02*
X57160771Y-102192857D01*
X57732200Y-101764286D02*
X57779819Y-101859524D01*
X57779819Y-101859524D02*
X57779819Y-102097619D01*
X57779819Y-102097619D02*
X57732200Y-102192857D01*
X57732200Y-102192857D02*
X57636961Y-102240476D01*
X57636961Y-102240476D02*
X57541723Y-102240476D01*
X57541723Y-102240476D02*
X57446485Y-102192857D01*
X57446485Y-102192857D02*
X57398866Y-102097619D01*
X57398866Y-102097619D02*
X57398866Y-101859524D01*
X57398866Y-101859524D02*
X57351247Y-101764286D01*
X57779819Y-100859524D02*
X56779819Y-100859524D01*
X57732200Y-100859524D02*
X57779819Y-100954762D01*
X57779819Y-100954762D02*
X57779819Y-101145238D01*
X57779819Y-101145238D02*
X57732200Y-101240476D01*
X57732200Y-101240476D02*
X57684580Y-101288095D01*
X57684580Y-101288095D02*
X57589342Y-101335714D01*
X57589342Y-101335714D02*
X57303628Y-101335714D01*
X57303628Y-101335714D02*
X57208390Y-101288095D01*
X57208390Y-101288095D02*
X57160771Y-101240476D01*
X57160771Y-101240476D02*
X57113152Y-101145238D01*
X57113152Y-101145238D02*
X57113152Y-100954762D01*
X57113152Y-100954762D02*
X57160771Y-100859524D01*
X57684580Y-99050000D02*
X57732200Y-99097619D01*
X57732200Y-99097619D02*
X57779819Y-99240476D01*
X57779819Y-99240476D02*
X57779819Y-99335714D01*
X57779819Y-99335714D02*
X57732200Y-99478571D01*
X57732200Y-99478571D02*
X57636961Y-99573809D01*
X57636961Y-99573809D02*
X57541723Y-99621428D01*
X57541723Y-99621428D02*
X57351247Y-99669047D01*
X57351247Y-99669047D02*
X57208390Y-99669047D01*
X57208390Y-99669047D02*
X57017914Y-99621428D01*
X57017914Y-99621428D02*
X56922676Y-99573809D01*
X56922676Y-99573809D02*
X56827438Y-99478571D01*
X56827438Y-99478571D02*
X56779819Y-99335714D01*
X56779819Y-99335714D02*
X56779819Y-99240476D01*
X56779819Y-99240476D02*
X56827438Y-99097619D01*
X56827438Y-99097619D02*
X56875057Y-99050000D01*
X57732200Y-98240476D02*
X57779819Y-98335714D01*
X57779819Y-98335714D02*
X57779819Y-98526190D01*
X57779819Y-98526190D02*
X57732200Y-98621428D01*
X57732200Y-98621428D02*
X57636961Y-98669047D01*
X57636961Y-98669047D02*
X57256009Y-98669047D01*
X57256009Y-98669047D02*
X57160771Y-98621428D01*
X57160771Y-98621428D02*
X57113152Y-98526190D01*
X57113152Y-98526190D02*
X57113152Y-98335714D01*
X57113152Y-98335714D02*
X57160771Y-98240476D01*
X57160771Y-98240476D02*
X57256009Y-98192857D01*
X57256009Y-98192857D02*
X57351247Y-98192857D01*
X57351247Y-98192857D02*
X57446485Y-98669047D01*
X57779819Y-97621428D02*
X57732200Y-97716666D01*
X57732200Y-97716666D02*
X57636961Y-97764285D01*
X57636961Y-97764285D02*
X56779819Y-97764285D01*
X57779819Y-97097618D02*
X57732200Y-97192856D01*
X57732200Y-97192856D02*
X57636961Y-97240475D01*
X57636961Y-97240475D02*
X56779819Y-97240475D01*
X79341666Y-95904819D02*
X79341666Y-96619104D01*
X79341666Y-96619104D02*
X79294047Y-96761961D01*
X79294047Y-96761961D02*
X79198809Y-96857200D01*
X79198809Y-96857200D02*
X79055952Y-96904819D01*
X79055952Y-96904819D02*
X78960714Y-96904819D01*
X80294047Y-95904819D02*
X79817857Y-95904819D01*
X79817857Y-95904819D02*
X79770238Y-96381009D01*
X79770238Y-96381009D02*
X79817857Y-96333390D01*
X79817857Y-96333390D02*
X79913095Y-96285771D01*
X79913095Y-96285771D02*
X80151190Y-96285771D01*
X80151190Y-96285771D02*
X80246428Y-96333390D01*
X80246428Y-96333390D02*
X80294047Y-96381009D01*
X80294047Y-96381009D02*
X80341666Y-96476247D01*
X80341666Y-96476247D02*
X80341666Y-96714342D01*
X80341666Y-96714342D02*
X80294047Y-96809580D01*
X80294047Y-96809580D02*
X80246428Y-96857200D01*
X80246428Y-96857200D02*
X80151190Y-96904819D01*
X80151190Y-96904819D02*
X79913095Y-96904819D01*
X79913095Y-96904819D02*
X79817857Y-96857200D01*
X79817857Y-96857200D02*
X79770238Y-96809580D01*
X87882200Y-103716666D02*
X87929819Y-103573809D01*
X87929819Y-103573809D02*
X87929819Y-103335714D01*
X87929819Y-103335714D02*
X87882200Y-103240476D01*
X87882200Y-103240476D02*
X87834580Y-103192857D01*
X87834580Y-103192857D02*
X87739342Y-103145238D01*
X87739342Y-103145238D02*
X87644104Y-103145238D01*
X87644104Y-103145238D02*
X87548866Y-103192857D01*
X87548866Y-103192857D02*
X87501247Y-103240476D01*
X87501247Y-103240476D02*
X87453628Y-103335714D01*
X87453628Y-103335714D02*
X87406009Y-103526190D01*
X87406009Y-103526190D02*
X87358390Y-103621428D01*
X87358390Y-103621428D02*
X87310771Y-103669047D01*
X87310771Y-103669047D02*
X87215533Y-103716666D01*
X87215533Y-103716666D02*
X87120295Y-103716666D01*
X87120295Y-103716666D02*
X87025057Y-103669047D01*
X87025057Y-103669047D02*
X86977438Y-103621428D01*
X86977438Y-103621428D02*
X86929819Y-103526190D01*
X86929819Y-103526190D02*
X86929819Y-103288095D01*
X86929819Y-103288095D02*
X86977438Y-103145238D01*
X87882200Y-102764285D02*
X87929819Y-102621428D01*
X87929819Y-102621428D02*
X87929819Y-102383333D01*
X87929819Y-102383333D02*
X87882200Y-102288095D01*
X87882200Y-102288095D02*
X87834580Y-102240476D01*
X87834580Y-102240476D02*
X87739342Y-102192857D01*
X87739342Y-102192857D02*
X87644104Y-102192857D01*
X87644104Y-102192857D02*
X87548866Y-102240476D01*
X87548866Y-102240476D02*
X87501247Y-102288095D01*
X87501247Y-102288095D02*
X87453628Y-102383333D01*
X87453628Y-102383333D02*
X87406009Y-102573809D01*
X87406009Y-102573809D02*
X87358390Y-102669047D01*
X87358390Y-102669047D02*
X87310771Y-102716666D01*
X87310771Y-102716666D02*
X87215533Y-102764285D01*
X87215533Y-102764285D02*
X87120295Y-102764285D01*
X87120295Y-102764285D02*
X87025057Y-102716666D01*
X87025057Y-102716666D02*
X86977438Y-102669047D01*
X86977438Y-102669047D02*
X86929819Y-102573809D01*
X86929819Y-102573809D02*
X86929819Y-102335714D01*
X86929819Y-102335714D02*
X86977438Y-102192857D01*
X87929819Y-101764285D02*
X86929819Y-101764285D01*
X86929819Y-101764285D02*
X86929819Y-101526190D01*
X86929819Y-101526190D02*
X86977438Y-101383333D01*
X86977438Y-101383333D02*
X87072676Y-101288095D01*
X87072676Y-101288095D02*
X87167914Y-101240476D01*
X87167914Y-101240476D02*
X87358390Y-101192857D01*
X87358390Y-101192857D02*
X87501247Y-101192857D01*
X87501247Y-101192857D02*
X87691723Y-101240476D01*
X87691723Y-101240476D02*
X87786961Y-101288095D01*
X87786961Y-101288095D02*
X87882200Y-101383333D01*
X87882200Y-101383333D02*
X87929819Y-101526190D01*
X87929819Y-101526190D02*
X87929819Y-101764285D01*
X87929819Y-100240476D02*
X87929819Y-100811904D01*
X87929819Y-100526190D02*
X86929819Y-100526190D01*
X86929819Y-100526190D02*
X87072676Y-100621428D01*
X87072676Y-100621428D02*
X87167914Y-100716666D01*
X87167914Y-100716666D02*
X87215533Y-100811904D01*
X86929819Y-99907142D02*
X86929819Y-99288095D01*
X86929819Y-99288095D02*
X87310771Y-99621428D01*
X87310771Y-99621428D02*
X87310771Y-99478571D01*
X87310771Y-99478571D02*
X87358390Y-99383333D01*
X87358390Y-99383333D02*
X87406009Y-99335714D01*
X87406009Y-99335714D02*
X87501247Y-99288095D01*
X87501247Y-99288095D02*
X87739342Y-99288095D01*
X87739342Y-99288095D02*
X87834580Y-99335714D01*
X87834580Y-99335714D02*
X87882200Y-99383333D01*
X87882200Y-99383333D02*
X87929819Y-99478571D01*
X87929819Y-99478571D02*
X87929819Y-99764285D01*
X87929819Y-99764285D02*
X87882200Y-99859523D01*
X87882200Y-99859523D02*
X87834580Y-99907142D01*
X86929819Y-98669047D02*
X86929819Y-98573809D01*
X86929819Y-98573809D02*
X86977438Y-98478571D01*
X86977438Y-98478571D02*
X87025057Y-98430952D01*
X87025057Y-98430952D02*
X87120295Y-98383333D01*
X87120295Y-98383333D02*
X87310771Y-98335714D01*
X87310771Y-98335714D02*
X87548866Y-98335714D01*
X87548866Y-98335714D02*
X87739342Y-98383333D01*
X87739342Y-98383333D02*
X87834580Y-98430952D01*
X87834580Y-98430952D02*
X87882200Y-98478571D01*
X87882200Y-98478571D02*
X87929819Y-98573809D01*
X87929819Y-98573809D02*
X87929819Y-98669047D01*
X87929819Y-98669047D02*
X87882200Y-98764285D01*
X87882200Y-98764285D02*
X87834580Y-98811904D01*
X87834580Y-98811904D02*
X87739342Y-98859523D01*
X87739342Y-98859523D02*
X87548866Y-98907142D01*
X87548866Y-98907142D02*
X87310771Y-98907142D01*
X87310771Y-98907142D02*
X87120295Y-98859523D01*
X87120295Y-98859523D02*
X87025057Y-98811904D01*
X87025057Y-98811904D02*
X86977438Y-98764285D01*
X86977438Y-98764285D02*
X86929819Y-98669047D01*
X86929819Y-97478571D02*
X86929819Y-97669047D01*
X86929819Y-97669047D02*
X86977438Y-97764285D01*
X86977438Y-97764285D02*
X87025057Y-97811904D01*
X87025057Y-97811904D02*
X87167914Y-97907142D01*
X87167914Y-97907142D02*
X87358390Y-97954761D01*
X87358390Y-97954761D02*
X87739342Y-97954761D01*
X87739342Y-97954761D02*
X87834580Y-97907142D01*
X87834580Y-97907142D02*
X87882200Y-97859523D01*
X87882200Y-97859523D02*
X87929819Y-97764285D01*
X87929819Y-97764285D02*
X87929819Y-97573809D01*
X87929819Y-97573809D02*
X87882200Y-97478571D01*
X87882200Y-97478571D02*
X87834580Y-97430952D01*
X87834580Y-97430952D02*
X87739342Y-97383333D01*
X87739342Y-97383333D02*
X87501247Y-97383333D01*
X87501247Y-97383333D02*
X87406009Y-97430952D01*
X87406009Y-97430952D02*
X87358390Y-97478571D01*
X87358390Y-97478571D02*
X87310771Y-97573809D01*
X87310771Y-97573809D02*
X87310771Y-97764285D01*
X87310771Y-97764285D02*
X87358390Y-97859523D01*
X87358390Y-97859523D02*
X87406009Y-97907142D01*
X87406009Y-97907142D02*
X87501247Y-97954761D01*
X46988095Y-28279819D02*
X46988095Y-29089342D01*
X46988095Y-29089342D02*
X47035714Y-29184580D01*
X47035714Y-29184580D02*
X47083333Y-29232200D01*
X47083333Y-29232200D02*
X47178571Y-29279819D01*
X47178571Y-29279819D02*
X47369047Y-29279819D01*
X47369047Y-29279819D02*
X47464285Y-29232200D01*
X47464285Y-29232200D02*
X47511904Y-29184580D01*
X47511904Y-29184580D02*
X47559523Y-29089342D01*
X47559523Y-29089342D02*
X47559523Y-28279819D01*
X48559523Y-29279819D02*
X47988095Y-29279819D01*
X48273809Y-29279819D02*
X48273809Y-28279819D01*
X48273809Y-28279819D02*
X48178571Y-28422676D01*
X48178571Y-28422676D02*
X48083333Y-28517914D01*
X48083333Y-28517914D02*
X47988095Y-28565533D01*
X27314819Y-67468095D02*
X28124342Y-67468095D01*
X28124342Y-67468095D02*
X28219580Y-67420476D01*
X28219580Y-67420476D02*
X28267200Y-67372857D01*
X28267200Y-67372857D02*
X28314819Y-67277619D01*
X28314819Y-67277619D02*
X28314819Y-67087143D01*
X28314819Y-67087143D02*
X28267200Y-66991905D01*
X28267200Y-66991905D02*
X28219580Y-66944286D01*
X28219580Y-66944286D02*
X28124342Y-66896667D01*
X28124342Y-66896667D02*
X27314819Y-66896667D01*
X28314819Y-65896667D02*
X28314819Y-66468095D01*
X28314819Y-66182381D02*
X27314819Y-66182381D01*
X27314819Y-66182381D02*
X27457676Y-66277619D01*
X27457676Y-66277619D02*
X27552914Y-66372857D01*
X27552914Y-66372857D02*
X27600533Y-66468095D01*
X27791009Y-64706190D02*
X27791009Y-64372857D01*
X28314819Y-64230000D02*
X28314819Y-64706190D01*
X28314819Y-64706190D02*
X27314819Y-64706190D01*
X27314819Y-64706190D02*
X27314819Y-64230000D01*
X28267200Y-63849047D02*
X28314819Y-63706190D01*
X28314819Y-63706190D02*
X28314819Y-63468095D01*
X28314819Y-63468095D02*
X28267200Y-63372857D01*
X28267200Y-63372857D02*
X28219580Y-63325238D01*
X28219580Y-63325238D02*
X28124342Y-63277619D01*
X28124342Y-63277619D02*
X28029104Y-63277619D01*
X28029104Y-63277619D02*
X27933866Y-63325238D01*
X27933866Y-63325238D02*
X27886247Y-63372857D01*
X27886247Y-63372857D02*
X27838628Y-63468095D01*
X27838628Y-63468095D02*
X27791009Y-63658571D01*
X27791009Y-63658571D02*
X27743390Y-63753809D01*
X27743390Y-63753809D02*
X27695771Y-63801428D01*
X27695771Y-63801428D02*
X27600533Y-63849047D01*
X27600533Y-63849047D02*
X27505295Y-63849047D01*
X27505295Y-63849047D02*
X27410057Y-63801428D01*
X27410057Y-63801428D02*
X27362438Y-63753809D01*
X27362438Y-63753809D02*
X27314819Y-63658571D01*
X27314819Y-63658571D02*
X27314819Y-63420476D01*
X27314819Y-63420476D02*
X27362438Y-63277619D01*
X28314819Y-62849047D02*
X27314819Y-62849047D01*
X27314819Y-62849047D02*
X27314819Y-62468095D01*
X27314819Y-62468095D02*
X27362438Y-62372857D01*
X27362438Y-62372857D02*
X27410057Y-62325238D01*
X27410057Y-62325238D02*
X27505295Y-62277619D01*
X27505295Y-62277619D02*
X27648152Y-62277619D01*
X27648152Y-62277619D02*
X27743390Y-62325238D01*
X27743390Y-62325238D02*
X27791009Y-62372857D01*
X27791009Y-62372857D02*
X27838628Y-62468095D01*
X27838628Y-62468095D02*
X27838628Y-62849047D01*
X27314819Y-61944285D02*
X27314819Y-61325238D01*
X27314819Y-61325238D02*
X27695771Y-61658571D01*
X27695771Y-61658571D02*
X27695771Y-61515714D01*
X27695771Y-61515714D02*
X27743390Y-61420476D01*
X27743390Y-61420476D02*
X27791009Y-61372857D01*
X27791009Y-61372857D02*
X27886247Y-61325238D01*
X27886247Y-61325238D02*
X28124342Y-61325238D01*
X28124342Y-61325238D02*
X28219580Y-61372857D01*
X28219580Y-61372857D02*
X28267200Y-61420476D01*
X28267200Y-61420476D02*
X28314819Y-61515714D01*
X28314819Y-61515714D02*
X28314819Y-61801428D01*
X28314819Y-61801428D02*
X28267200Y-61896666D01*
X28267200Y-61896666D02*
X28219580Y-61944285D01*
X27410057Y-60944285D02*
X27362438Y-60896666D01*
X27362438Y-60896666D02*
X27314819Y-60801428D01*
X27314819Y-60801428D02*
X27314819Y-60563333D01*
X27314819Y-60563333D02*
X27362438Y-60468095D01*
X27362438Y-60468095D02*
X27410057Y-60420476D01*
X27410057Y-60420476D02*
X27505295Y-60372857D01*
X27505295Y-60372857D02*
X27600533Y-60372857D01*
X27600533Y-60372857D02*
X27743390Y-60420476D01*
X27743390Y-60420476D02*
X28314819Y-60991904D01*
X28314819Y-60991904D02*
X28314819Y-60372857D01*
X28410057Y-60182381D02*
X28410057Y-59420476D01*
X28314819Y-59182380D02*
X27314819Y-59182380D01*
X27314819Y-59182380D02*
X27314819Y-58944285D01*
X27314819Y-58944285D02*
X27362438Y-58801428D01*
X27362438Y-58801428D02*
X27457676Y-58706190D01*
X27457676Y-58706190D02*
X27552914Y-58658571D01*
X27552914Y-58658571D02*
X27743390Y-58610952D01*
X27743390Y-58610952D02*
X27886247Y-58610952D01*
X27886247Y-58610952D02*
X28076723Y-58658571D01*
X28076723Y-58658571D02*
X28171961Y-58706190D01*
X28171961Y-58706190D02*
X28267200Y-58801428D01*
X28267200Y-58801428D02*
X28314819Y-58944285D01*
X28314819Y-58944285D02*
X28314819Y-59182380D01*
X27791009Y-58182380D02*
X27791009Y-57849047D01*
X28314819Y-57706190D02*
X28314819Y-58182380D01*
X28314819Y-58182380D02*
X27314819Y-58182380D01*
X27314819Y-58182380D02*
X27314819Y-57706190D01*
X27314819Y-57420475D02*
X28314819Y-57087142D01*
X28314819Y-57087142D02*
X27314819Y-56753809D01*
X28314819Y-56420475D02*
X27314819Y-56420475D01*
X28314819Y-55849047D02*
X27743390Y-56277618D01*
X27314819Y-55849047D02*
X27886247Y-56420475D01*
X28314819Y-55420475D02*
X27314819Y-55420475D01*
X27314819Y-55087142D02*
X27314819Y-54515714D01*
X28314819Y-54801428D02*
X27314819Y-54801428D01*
X28410057Y-54420476D02*
X28410057Y-53658571D01*
X27314819Y-53515713D02*
X27314819Y-52896666D01*
X27314819Y-52896666D02*
X27695771Y-53229999D01*
X27695771Y-53229999D02*
X27695771Y-53087142D01*
X27695771Y-53087142D02*
X27743390Y-52991904D01*
X27743390Y-52991904D02*
X27791009Y-52944285D01*
X27791009Y-52944285D02*
X27886247Y-52896666D01*
X27886247Y-52896666D02*
X28124342Y-52896666D01*
X28124342Y-52896666D02*
X28219580Y-52944285D01*
X28219580Y-52944285D02*
X28267200Y-52991904D01*
X28267200Y-52991904D02*
X28314819Y-53087142D01*
X28314819Y-53087142D02*
X28314819Y-53372856D01*
X28314819Y-53372856D02*
X28267200Y-53468094D01*
X28267200Y-53468094D02*
X28219580Y-53515713D01*
X27314819Y-52277618D02*
X27314819Y-52182380D01*
X27314819Y-52182380D02*
X27362438Y-52087142D01*
X27362438Y-52087142D02*
X27410057Y-52039523D01*
X27410057Y-52039523D02*
X27505295Y-51991904D01*
X27505295Y-51991904D02*
X27695771Y-51944285D01*
X27695771Y-51944285D02*
X27933866Y-51944285D01*
X27933866Y-51944285D02*
X28124342Y-51991904D01*
X28124342Y-51991904D02*
X28219580Y-52039523D01*
X28219580Y-52039523D02*
X28267200Y-52087142D01*
X28267200Y-52087142D02*
X28314819Y-52182380D01*
X28314819Y-52182380D02*
X28314819Y-52277618D01*
X28314819Y-52277618D02*
X28267200Y-52372856D01*
X28267200Y-52372856D02*
X28219580Y-52420475D01*
X28219580Y-52420475D02*
X28124342Y-52468094D01*
X28124342Y-52468094D02*
X27933866Y-52515713D01*
X27933866Y-52515713D02*
X27695771Y-52515713D01*
X27695771Y-52515713D02*
X27505295Y-52468094D01*
X27505295Y-52468094D02*
X27410057Y-52420475D01*
X27410057Y-52420475D02*
X27362438Y-52372856D01*
X27362438Y-52372856D02*
X27314819Y-52277618D01*
X28314819Y-51515713D02*
X27314819Y-51515713D01*
X27314819Y-51515713D02*
X27314819Y-51134761D01*
X27314819Y-51134761D02*
X27362438Y-51039523D01*
X27362438Y-51039523D02*
X27410057Y-50991904D01*
X27410057Y-50991904D02*
X27505295Y-50944285D01*
X27505295Y-50944285D02*
X27648152Y-50944285D01*
X27648152Y-50944285D02*
X27743390Y-50991904D01*
X27743390Y-50991904D02*
X27791009Y-51039523D01*
X27791009Y-51039523D02*
X27838628Y-51134761D01*
X27838628Y-51134761D02*
X27838628Y-51515713D01*
D12*
X33703571Y-71446704D02*
X34179761Y-71446704D01*
X33608333Y-71732419D02*
X33941666Y-70732419D01*
X33941666Y-70732419D02*
X34274999Y-71732419D01*
X34608333Y-71732419D02*
X34608333Y-70732419D01*
X34608333Y-70732419D02*
X35179761Y-71732419D01*
X35179761Y-71732419D02*
X35179761Y-70732419D01*
X35513095Y-70732419D02*
X36084523Y-70732419D01*
X35798809Y-71732419D02*
X35798809Y-70732419D01*
X36417857Y-71208609D02*
X36751190Y-71208609D01*
X36894047Y-71732419D02*
X36417857Y-71732419D01*
X36417857Y-71732419D02*
X36417857Y-70732419D01*
X36417857Y-70732419D02*
X36894047Y-70732419D01*
X37322619Y-71732419D02*
X37322619Y-70732419D01*
X37322619Y-70732419D02*
X37894047Y-71732419D01*
X37894047Y-71732419D02*
X37894047Y-70732419D01*
X38370238Y-71732419D02*
X38370238Y-70732419D01*
X38370238Y-70732419D02*
X38941666Y-71732419D01*
X38941666Y-71732419D02*
X38941666Y-70732419D01*
X39370238Y-71446704D02*
X39846428Y-71446704D01*
X39275000Y-71732419D02*
X39608333Y-70732419D01*
X39608333Y-70732419D02*
X39941666Y-71732419D01*
X34369048Y-25667419D02*
X34369048Y-26476942D01*
X34369048Y-26476942D02*
X34416667Y-26572180D01*
X34416667Y-26572180D02*
X34464286Y-26619800D01*
X34464286Y-26619800D02*
X34559524Y-26667419D01*
X34559524Y-26667419D02*
X34750000Y-26667419D01*
X34750000Y-26667419D02*
X34845238Y-26619800D01*
X34845238Y-26619800D02*
X34892857Y-26572180D01*
X34892857Y-26572180D02*
X34940476Y-26476942D01*
X34940476Y-26476942D02*
X34940476Y-25667419D01*
X35369048Y-26619800D02*
X35511905Y-26667419D01*
X35511905Y-26667419D02*
X35750000Y-26667419D01*
X35750000Y-26667419D02*
X35845238Y-26619800D01*
X35845238Y-26619800D02*
X35892857Y-26572180D01*
X35892857Y-26572180D02*
X35940476Y-26476942D01*
X35940476Y-26476942D02*
X35940476Y-26381704D01*
X35940476Y-26381704D02*
X35892857Y-26286466D01*
X35892857Y-26286466D02*
X35845238Y-26238847D01*
X35845238Y-26238847D02*
X35750000Y-26191228D01*
X35750000Y-26191228D02*
X35559524Y-26143609D01*
X35559524Y-26143609D02*
X35464286Y-26095990D01*
X35464286Y-26095990D02*
X35416667Y-26048371D01*
X35416667Y-26048371D02*
X35369048Y-25953133D01*
X35369048Y-25953133D02*
X35369048Y-25857895D01*
X35369048Y-25857895D02*
X35416667Y-25762657D01*
X35416667Y-25762657D02*
X35464286Y-25715038D01*
X35464286Y-25715038D02*
X35559524Y-25667419D01*
X35559524Y-25667419D02*
X35797619Y-25667419D01*
X35797619Y-25667419D02*
X35940476Y-25715038D01*
X36702381Y-26143609D02*
X36845238Y-26191228D01*
X36845238Y-26191228D02*
X36892857Y-26238847D01*
X36892857Y-26238847D02*
X36940476Y-26334085D01*
X36940476Y-26334085D02*
X36940476Y-26476942D01*
X36940476Y-26476942D02*
X36892857Y-26572180D01*
X36892857Y-26572180D02*
X36845238Y-26619800D01*
X36845238Y-26619800D02*
X36750000Y-26667419D01*
X36750000Y-26667419D02*
X36369048Y-26667419D01*
X36369048Y-26667419D02*
X36369048Y-25667419D01*
X36369048Y-25667419D02*
X36702381Y-25667419D01*
X36702381Y-25667419D02*
X36797619Y-25715038D01*
X36797619Y-25715038D02*
X36845238Y-25762657D01*
X36845238Y-25762657D02*
X36892857Y-25857895D01*
X36892857Y-25857895D02*
X36892857Y-25953133D01*
X36892857Y-25953133D02*
X36845238Y-26048371D01*
X36845238Y-26048371D02*
X36797619Y-26095990D01*
X36797619Y-26095990D02*
X36702381Y-26143609D01*
X36702381Y-26143609D02*
X36369048Y-26143609D01*
X37369048Y-26286466D02*
X38130953Y-26286466D01*
X39178571Y-26572180D02*
X39130952Y-26619800D01*
X39130952Y-26619800D02*
X38988095Y-26667419D01*
X38988095Y-26667419D02*
X38892857Y-26667419D01*
X38892857Y-26667419D02*
X38750000Y-26619800D01*
X38750000Y-26619800D02*
X38654762Y-26524561D01*
X38654762Y-26524561D02*
X38607143Y-26429323D01*
X38607143Y-26429323D02*
X38559524Y-26238847D01*
X38559524Y-26238847D02*
X38559524Y-26095990D01*
X38559524Y-26095990D02*
X38607143Y-25905514D01*
X38607143Y-25905514D02*
X38654762Y-25810276D01*
X38654762Y-25810276D02*
X38750000Y-25715038D01*
X38750000Y-25715038D02*
X38892857Y-25667419D01*
X38892857Y-25667419D02*
X38988095Y-25667419D01*
X38988095Y-25667419D02*
X39130952Y-25715038D01*
X39130952Y-25715038D02*
X39178571Y-25762657D01*
D11*
X92879819Y-93303570D02*
X91879819Y-93303570D01*
X92879819Y-92827380D02*
X91879819Y-92827380D01*
X91879819Y-92827380D02*
X92879819Y-92255952D01*
X92879819Y-92255952D02*
X91879819Y-92255952D01*
X92879819Y-91779761D02*
X91879819Y-91779761D01*
X91879819Y-91779761D02*
X91879819Y-91398809D01*
X91879819Y-91398809D02*
X91927438Y-91303571D01*
X91927438Y-91303571D02*
X91975057Y-91255952D01*
X91975057Y-91255952D02*
X92070295Y-91208333D01*
X92070295Y-91208333D02*
X92213152Y-91208333D01*
X92213152Y-91208333D02*
X92308390Y-91255952D01*
X92308390Y-91255952D02*
X92356009Y-91303571D01*
X92356009Y-91303571D02*
X92403628Y-91398809D01*
X92403628Y-91398809D02*
X92403628Y-91779761D01*
X91879819Y-90779761D02*
X92689342Y-90779761D01*
X92689342Y-90779761D02*
X92784580Y-90732142D01*
X92784580Y-90732142D02*
X92832200Y-90684523D01*
X92832200Y-90684523D02*
X92879819Y-90589285D01*
X92879819Y-90589285D02*
X92879819Y-90398809D01*
X92879819Y-90398809D02*
X92832200Y-90303571D01*
X92832200Y-90303571D02*
X92784580Y-90255952D01*
X92784580Y-90255952D02*
X92689342Y-90208333D01*
X92689342Y-90208333D02*
X91879819Y-90208333D01*
X91879819Y-89874999D02*
X91879819Y-89303571D01*
X92879819Y-89589285D02*
X91879819Y-89589285D01*
X92216666Y-94179819D02*
X92216666Y-94894104D01*
X92216666Y-94894104D02*
X92169047Y-95036961D01*
X92169047Y-95036961D02*
X92073809Y-95132200D01*
X92073809Y-95132200D02*
X91930952Y-95179819D01*
X91930952Y-95179819D02*
X91835714Y-95179819D01*
X93121428Y-94179819D02*
X92930952Y-94179819D01*
X92930952Y-94179819D02*
X92835714Y-94227438D01*
X92835714Y-94227438D02*
X92788095Y-94275057D01*
X92788095Y-94275057D02*
X92692857Y-94417914D01*
X92692857Y-94417914D02*
X92645238Y-94608390D01*
X92645238Y-94608390D02*
X92645238Y-94989342D01*
X92645238Y-94989342D02*
X92692857Y-95084580D01*
X92692857Y-95084580D02*
X92740476Y-95132200D01*
X92740476Y-95132200D02*
X92835714Y-95179819D01*
X92835714Y-95179819D02*
X93026190Y-95179819D01*
X93026190Y-95179819D02*
X93121428Y-95132200D01*
X93121428Y-95132200D02*
X93169047Y-95084580D01*
X93169047Y-95084580D02*
X93216666Y-94989342D01*
X93216666Y-94989342D02*
X93216666Y-94751247D01*
X93216666Y-94751247D02*
X93169047Y-94656009D01*
X93169047Y-94656009D02*
X93121428Y-94608390D01*
X93121428Y-94608390D02*
X93026190Y-94560771D01*
X93026190Y-94560771D02*
X92835714Y-94560771D01*
X92835714Y-94560771D02*
X92740476Y-94608390D01*
X92740476Y-94608390D02*
X92692857Y-94656009D01*
X92692857Y-94656009D02*
X92645238Y-94751247D01*
X43554819Y-42391666D02*
X43078628Y-42724999D01*
X43554819Y-42963094D02*
X42554819Y-42963094D01*
X42554819Y-42963094D02*
X42554819Y-42582142D01*
X42554819Y-42582142D02*
X42602438Y-42486904D01*
X42602438Y-42486904D02*
X42650057Y-42439285D01*
X42650057Y-42439285D02*
X42745295Y-42391666D01*
X42745295Y-42391666D02*
X42888152Y-42391666D01*
X42888152Y-42391666D02*
X42983390Y-42439285D01*
X42983390Y-42439285D02*
X43031009Y-42486904D01*
X43031009Y-42486904D02*
X43078628Y-42582142D01*
X43078628Y-42582142D02*
X43078628Y-42963094D01*
X43554819Y-41439285D02*
X43554819Y-42010713D01*
X43554819Y-41724999D02*
X42554819Y-41724999D01*
X42554819Y-41724999D02*
X42697676Y-41820237D01*
X42697676Y-41820237D02*
X42792914Y-41915475D01*
X42792914Y-41915475D02*
X42840533Y-42010713D01*
X43529819Y-31691666D02*
X43053628Y-32024999D01*
X43529819Y-32263094D02*
X42529819Y-32263094D01*
X42529819Y-32263094D02*
X42529819Y-31882142D01*
X42529819Y-31882142D02*
X42577438Y-31786904D01*
X42577438Y-31786904D02*
X42625057Y-31739285D01*
X42625057Y-31739285D02*
X42720295Y-31691666D01*
X42720295Y-31691666D02*
X42863152Y-31691666D01*
X42863152Y-31691666D02*
X42958390Y-31739285D01*
X42958390Y-31739285D02*
X43006009Y-31786904D01*
X43006009Y-31786904D02*
X43053628Y-31882142D01*
X43053628Y-31882142D02*
X43053628Y-32263094D01*
X42863152Y-30834523D02*
X43529819Y-30834523D01*
X42482200Y-31072618D02*
X43196485Y-31310713D01*
X43196485Y-31310713D02*
X43196485Y-30691666D01*
X43579819Y-35266666D02*
X43103628Y-35599999D01*
X43579819Y-35838094D02*
X42579819Y-35838094D01*
X42579819Y-35838094D02*
X42579819Y-35457142D01*
X42579819Y-35457142D02*
X42627438Y-35361904D01*
X42627438Y-35361904D02*
X42675057Y-35314285D01*
X42675057Y-35314285D02*
X42770295Y-35266666D01*
X42770295Y-35266666D02*
X42913152Y-35266666D01*
X42913152Y-35266666D02*
X43008390Y-35314285D01*
X43008390Y-35314285D02*
X43056009Y-35361904D01*
X43056009Y-35361904D02*
X43103628Y-35457142D01*
X43103628Y-35457142D02*
X43103628Y-35838094D01*
X42579819Y-34933332D02*
X42579819Y-34314285D01*
X42579819Y-34314285D02*
X42960771Y-34647618D01*
X42960771Y-34647618D02*
X42960771Y-34504761D01*
X42960771Y-34504761D02*
X43008390Y-34409523D01*
X43008390Y-34409523D02*
X43056009Y-34361904D01*
X43056009Y-34361904D02*
X43151247Y-34314285D01*
X43151247Y-34314285D02*
X43389342Y-34314285D01*
X43389342Y-34314285D02*
X43484580Y-34361904D01*
X43484580Y-34361904D02*
X43532200Y-34409523D01*
X43532200Y-34409523D02*
X43579819Y-34504761D01*
X43579819Y-34504761D02*
X43579819Y-34790475D01*
X43579819Y-34790475D02*
X43532200Y-34885713D01*
X43532200Y-34885713D02*
X43484580Y-34933332D01*
X43579819Y-38816666D02*
X43103628Y-39149999D01*
X43579819Y-39388094D02*
X42579819Y-39388094D01*
X42579819Y-39388094D02*
X42579819Y-39007142D01*
X42579819Y-39007142D02*
X42627438Y-38911904D01*
X42627438Y-38911904D02*
X42675057Y-38864285D01*
X42675057Y-38864285D02*
X42770295Y-38816666D01*
X42770295Y-38816666D02*
X42913152Y-38816666D01*
X42913152Y-38816666D02*
X43008390Y-38864285D01*
X43008390Y-38864285D02*
X43056009Y-38911904D01*
X43056009Y-38911904D02*
X43103628Y-39007142D01*
X43103628Y-39007142D02*
X43103628Y-39388094D01*
X42675057Y-38435713D02*
X42627438Y-38388094D01*
X42627438Y-38388094D02*
X42579819Y-38292856D01*
X42579819Y-38292856D02*
X42579819Y-38054761D01*
X42579819Y-38054761D02*
X42627438Y-37959523D01*
X42627438Y-37959523D02*
X42675057Y-37911904D01*
X42675057Y-37911904D02*
X42770295Y-37864285D01*
X42770295Y-37864285D02*
X42865533Y-37864285D01*
X42865533Y-37864285D02*
X43008390Y-37911904D01*
X43008390Y-37911904D02*
X43579819Y-38483332D01*
X43579819Y-38483332D02*
X43579819Y-37864285D01*
X57784580Y-82816666D02*
X57832200Y-82864285D01*
X57832200Y-82864285D02*
X57879819Y-83007142D01*
X57879819Y-83007142D02*
X57879819Y-83102380D01*
X57879819Y-83102380D02*
X57832200Y-83245237D01*
X57832200Y-83245237D02*
X57736961Y-83340475D01*
X57736961Y-83340475D02*
X57641723Y-83388094D01*
X57641723Y-83388094D02*
X57451247Y-83435713D01*
X57451247Y-83435713D02*
X57308390Y-83435713D01*
X57308390Y-83435713D02*
X57117914Y-83388094D01*
X57117914Y-83388094D02*
X57022676Y-83340475D01*
X57022676Y-83340475D02*
X56927438Y-83245237D01*
X56927438Y-83245237D02*
X56879819Y-83102380D01*
X56879819Y-83102380D02*
X56879819Y-83007142D01*
X56879819Y-83007142D02*
X56927438Y-82864285D01*
X56927438Y-82864285D02*
X56975057Y-82816666D01*
X56975057Y-82435713D02*
X56927438Y-82388094D01*
X56927438Y-82388094D02*
X56879819Y-82292856D01*
X56879819Y-82292856D02*
X56879819Y-82054761D01*
X56879819Y-82054761D02*
X56927438Y-81959523D01*
X56927438Y-81959523D02*
X56975057Y-81911904D01*
X56975057Y-81911904D02*
X57070295Y-81864285D01*
X57070295Y-81864285D02*
X57165533Y-81864285D01*
X57165533Y-81864285D02*
X57308390Y-81911904D01*
X57308390Y-81911904D02*
X57879819Y-82483332D01*
X57879819Y-82483332D02*
X57879819Y-81864285D01*
X86484580Y-81691666D02*
X86532200Y-81739285D01*
X86532200Y-81739285D02*
X86579819Y-81882142D01*
X86579819Y-81882142D02*
X86579819Y-81977380D01*
X86579819Y-81977380D02*
X86532200Y-82120237D01*
X86532200Y-82120237D02*
X86436961Y-82215475D01*
X86436961Y-82215475D02*
X86341723Y-82263094D01*
X86341723Y-82263094D02*
X86151247Y-82310713D01*
X86151247Y-82310713D02*
X86008390Y-82310713D01*
X86008390Y-82310713D02*
X85817914Y-82263094D01*
X85817914Y-82263094D02*
X85722676Y-82215475D01*
X85722676Y-82215475D02*
X85627438Y-82120237D01*
X85627438Y-82120237D02*
X85579819Y-81977380D01*
X85579819Y-81977380D02*
X85579819Y-81882142D01*
X85579819Y-81882142D02*
X85627438Y-81739285D01*
X85627438Y-81739285D02*
X85675057Y-81691666D01*
X86579819Y-80739285D02*
X86579819Y-81310713D01*
X86579819Y-81024999D02*
X85579819Y-81024999D01*
X85579819Y-81024999D02*
X85722676Y-81120237D01*
X85722676Y-81120237D02*
X85817914Y-81215475D01*
X85817914Y-81215475D02*
X85865533Y-81310713D01*
X84790476Y-71004819D02*
X84790476Y-71719104D01*
X84790476Y-71719104D02*
X84742857Y-71861961D01*
X84742857Y-71861961D02*
X84647619Y-71957200D01*
X84647619Y-71957200D02*
X84504762Y-72004819D01*
X84504762Y-72004819D02*
X84409524Y-72004819D01*
X85790476Y-72004819D02*
X85219048Y-72004819D01*
X85504762Y-72004819D02*
X85504762Y-71004819D01*
X85504762Y-71004819D02*
X85409524Y-71147676D01*
X85409524Y-71147676D02*
X85314286Y-71242914D01*
X85314286Y-71242914D02*
X85219048Y-71290533D01*
X86409524Y-71004819D02*
X86504762Y-71004819D01*
X86504762Y-71004819D02*
X86600000Y-71052438D01*
X86600000Y-71052438D02*
X86647619Y-71100057D01*
X86647619Y-71100057D02*
X86695238Y-71195295D01*
X86695238Y-71195295D02*
X86742857Y-71385771D01*
X86742857Y-71385771D02*
X86742857Y-71623866D01*
X86742857Y-71623866D02*
X86695238Y-71814342D01*
X86695238Y-71814342D02*
X86647619Y-71909580D01*
X86647619Y-71909580D02*
X86600000Y-71957200D01*
X86600000Y-71957200D02*
X86504762Y-72004819D01*
X86504762Y-72004819D02*
X86409524Y-72004819D01*
X86409524Y-72004819D02*
X86314286Y-71957200D01*
X86314286Y-71957200D02*
X86266667Y-71909580D01*
X86266667Y-71909580D02*
X86219048Y-71814342D01*
X86219048Y-71814342D02*
X86171429Y-71623866D01*
X86171429Y-71623866D02*
X86171429Y-71385771D01*
X86171429Y-71385771D02*
X86219048Y-71195295D01*
X86219048Y-71195295D02*
X86266667Y-71100057D01*
X86266667Y-71100057D02*
X86314286Y-71052438D01*
X86314286Y-71052438D02*
X86409524Y-71004819D01*
X97179819Y-69972618D02*
X96179819Y-69972618D01*
X96132200Y-68782143D02*
X97417914Y-69639285D01*
X96179819Y-68258333D02*
X96179819Y-68067857D01*
X96179819Y-68067857D02*
X96227438Y-67972619D01*
X96227438Y-67972619D02*
X96322676Y-67877381D01*
X96322676Y-67877381D02*
X96513152Y-67829762D01*
X96513152Y-67829762D02*
X96846485Y-67829762D01*
X96846485Y-67829762D02*
X97036961Y-67877381D01*
X97036961Y-67877381D02*
X97132200Y-67972619D01*
X97132200Y-67972619D02*
X97179819Y-68067857D01*
X97179819Y-68067857D02*
X97179819Y-68258333D01*
X97179819Y-68258333D02*
X97132200Y-68353571D01*
X97132200Y-68353571D02*
X97036961Y-68448809D01*
X97036961Y-68448809D02*
X96846485Y-68496428D01*
X96846485Y-68496428D02*
X96513152Y-68496428D01*
X96513152Y-68496428D02*
X96322676Y-68448809D01*
X96322676Y-68448809D02*
X96227438Y-68353571D01*
X96227438Y-68353571D02*
X96179819Y-68258333D01*
X92509524Y-41575057D02*
X92557143Y-41527438D01*
X92557143Y-41527438D02*
X92652381Y-41479819D01*
X92652381Y-41479819D02*
X92890476Y-41479819D01*
X92890476Y-41479819D02*
X92985714Y-41527438D01*
X92985714Y-41527438D02*
X93033333Y-41575057D01*
X93033333Y-41575057D02*
X93080952Y-41670295D01*
X93080952Y-41670295D02*
X93080952Y-41765533D01*
X93080952Y-41765533D02*
X93033333Y-41908390D01*
X93033333Y-41908390D02*
X92461905Y-42479819D01*
X92461905Y-42479819D02*
X93080952Y-42479819D01*
X93938095Y-41813152D02*
X93938095Y-42479819D01*
X93700000Y-41432200D02*
X93461905Y-42146485D01*
X93461905Y-42146485D02*
X94080952Y-42146485D01*
X94319048Y-41479819D02*
X94652381Y-42479819D01*
X94652381Y-42479819D02*
X94985714Y-41479819D01*
X85516666Y-49904819D02*
X85516666Y-50619104D01*
X85516666Y-50619104D02*
X85469047Y-50761961D01*
X85469047Y-50761961D02*
X85373809Y-50857200D01*
X85373809Y-50857200D02*
X85230952Y-50904819D01*
X85230952Y-50904819D02*
X85135714Y-50904819D01*
X86135714Y-50333390D02*
X86040476Y-50285771D01*
X86040476Y-50285771D02*
X85992857Y-50238152D01*
X85992857Y-50238152D02*
X85945238Y-50142914D01*
X85945238Y-50142914D02*
X85945238Y-50095295D01*
X85945238Y-50095295D02*
X85992857Y-50000057D01*
X85992857Y-50000057D02*
X86040476Y-49952438D01*
X86040476Y-49952438D02*
X86135714Y-49904819D01*
X86135714Y-49904819D02*
X86326190Y-49904819D01*
X86326190Y-49904819D02*
X86421428Y-49952438D01*
X86421428Y-49952438D02*
X86469047Y-50000057D01*
X86469047Y-50000057D02*
X86516666Y-50095295D01*
X86516666Y-50095295D02*
X86516666Y-50142914D01*
X86516666Y-50142914D02*
X86469047Y-50238152D01*
X86469047Y-50238152D02*
X86421428Y-50285771D01*
X86421428Y-50285771D02*
X86326190Y-50333390D01*
X86326190Y-50333390D02*
X86135714Y-50333390D01*
X86135714Y-50333390D02*
X86040476Y-50381009D01*
X86040476Y-50381009D02*
X85992857Y-50428628D01*
X85992857Y-50428628D02*
X85945238Y-50523866D01*
X85945238Y-50523866D02*
X85945238Y-50714342D01*
X85945238Y-50714342D02*
X85992857Y-50809580D01*
X85992857Y-50809580D02*
X86040476Y-50857200D01*
X86040476Y-50857200D02*
X86135714Y-50904819D01*
X86135714Y-50904819D02*
X86326190Y-50904819D01*
X86326190Y-50904819D02*
X86421428Y-50857200D01*
X86421428Y-50857200D02*
X86469047Y-50809580D01*
X86469047Y-50809580D02*
X86516666Y-50714342D01*
X86516666Y-50714342D02*
X86516666Y-50523866D01*
X86516666Y-50523866D02*
X86469047Y-50428628D01*
X86469047Y-50428628D02*
X86421428Y-50381009D01*
X86421428Y-50381009D02*
X86326190Y-50333390D01*
X97329819Y-50010714D02*
X97329819Y-50486904D01*
X97329819Y-50486904D02*
X96329819Y-50486904D01*
X97329819Y-49677380D02*
X96329819Y-49677380D01*
X97329819Y-49201190D02*
X96329819Y-49201190D01*
X96329819Y-49201190D02*
X97044104Y-48867857D01*
X97044104Y-48867857D02*
X96329819Y-48534524D01*
X96329819Y-48534524D02*
X97329819Y-48534524D01*
X97425057Y-48296429D02*
X97425057Y-47534524D01*
X96329819Y-47439285D02*
X96329819Y-46867857D01*
X97329819Y-47153571D02*
X96329819Y-47153571D01*
X96329819Y-46344047D02*
X96329819Y-46153571D01*
X96329819Y-46153571D02*
X96377438Y-46058333D01*
X96377438Y-46058333D02*
X96472676Y-45963095D01*
X96472676Y-45963095D02*
X96663152Y-45915476D01*
X96663152Y-45915476D02*
X96996485Y-45915476D01*
X96996485Y-45915476D02*
X97186961Y-45963095D01*
X97186961Y-45963095D02*
X97282200Y-46058333D01*
X97282200Y-46058333D02*
X97329819Y-46153571D01*
X97329819Y-46153571D02*
X97329819Y-46344047D01*
X97329819Y-46344047D02*
X97282200Y-46439285D01*
X97282200Y-46439285D02*
X97186961Y-46534523D01*
X97186961Y-46534523D02*
X96996485Y-46582142D01*
X96996485Y-46582142D02*
X96663152Y-46582142D01*
X96663152Y-46582142D02*
X96472676Y-46534523D01*
X96472676Y-46534523D02*
X96377438Y-46439285D01*
X96377438Y-46439285D02*
X96329819Y-46344047D01*
X97329819Y-45486904D02*
X96329819Y-45486904D01*
X96329819Y-45486904D02*
X96329819Y-45105952D01*
X96329819Y-45105952D02*
X96377438Y-45010714D01*
X96377438Y-45010714D02*
X96425057Y-44963095D01*
X96425057Y-44963095D02*
X96520295Y-44915476D01*
X96520295Y-44915476D02*
X96663152Y-44915476D01*
X96663152Y-44915476D02*
X96758390Y-44963095D01*
X96758390Y-44963095D02*
X96806009Y-45010714D01*
X96806009Y-45010714D02*
X96853628Y-45105952D01*
X96853628Y-45105952D02*
X96853628Y-45486904D01*
X43104819Y-102192856D02*
X42104819Y-102192856D01*
X42581009Y-102192856D02*
X42581009Y-101621428D01*
X43104819Y-101621428D02*
X42104819Y-101621428D01*
X42104819Y-101240475D02*
X43104819Y-100573809D01*
X42104819Y-100573809D02*
X43104819Y-101240475D01*
X43057200Y-100240475D02*
X43104819Y-100097618D01*
X43104819Y-100097618D02*
X43104819Y-99859523D01*
X43104819Y-99859523D02*
X43057200Y-99764285D01*
X43057200Y-99764285D02*
X43009580Y-99716666D01*
X43009580Y-99716666D02*
X42914342Y-99669047D01*
X42914342Y-99669047D02*
X42819104Y-99669047D01*
X42819104Y-99669047D02*
X42723866Y-99716666D01*
X42723866Y-99716666D02*
X42676247Y-99764285D01*
X42676247Y-99764285D02*
X42628628Y-99859523D01*
X42628628Y-99859523D02*
X42581009Y-100049999D01*
X42581009Y-100049999D02*
X42533390Y-100145237D01*
X42533390Y-100145237D02*
X42485771Y-100192856D01*
X42485771Y-100192856D02*
X42390533Y-100240475D01*
X42390533Y-100240475D02*
X42295295Y-100240475D01*
X42295295Y-100240475D02*
X42200057Y-100192856D01*
X42200057Y-100192856D02*
X42152438Y-100145237D01*
X42152438Y-100145237D02*
X42104819Y-100049999D01*
X42104819Y-100049999D02*
X42104819Y-99811904D01*
X42104819Y-99811904D02*
X42152438Y-99669047D01*
X43009580Y-98669047D02*
X43057200Y-98716666D01*
X43057200Y-98716666D02*
X43104819Y-98859523D01*
X43104819Y-98859523D02*
X43104819Y-98954761D01*
X43104819Y-98954761D02*
X43057200Y-99097618D01*
X43057200Y-99097618D02*
X42961961Y-99192856D01*
X42961961Y-99192856D02*
X42866723Y-99240475D01*
X42866723Y-99240475D02*
X42676247Y-99288094D01*
X42676247Y-99288094D02*
X42533390Y-99288094D01*
X42533390Y-99288094D02*
X42342914Y-99240475D01*
X42342914Y-99240475D02*
X42247676Y-99192856D01*
X42247676Y-99192856D02*
X42152438Y-99097618D01*
X42152438Y-99097618D02*
X42104819Y-98954761D01*
X42104819Y-98954761D02*
X42104819Y-98859523D01*
X42104819Y-98859523D02*
X42152438Y-98716666D01*
X42152438Y-98716666D02*
X42200057Y-98669047D01*
X43104819Y-98240475D02*
X42104819Y-98240475D01*
X43104819Y-97669047D02*
X42533390Y-98097618D01*
X42104819Y-97669047D02*
X42676247Y-98240475D01*
X39581009Y-102192856D02*
X39581009Y-101859523D01*
X40104819Y-101716666D02*
X40104819Y-102192856D01*
X40104819Y-102192856D02*
X39104819Y-102192856D01*
X39104819Y-102192856D02*
X39104819Y-101716666D01*
X40104819Y-101288094D02*
X39104819Y-101288094D01*
X39104819Y-101288094D02*
X40104819Y-100716666D01*
X40104819Y-100716666D02*
X39104819Y-100716666D01*
X29488095Y-101277438D02*
X29392857Y-101229819D01*
X29392857Y-101229819D02*
X29250000Y-101229819D01*
X29250000Y-101229819D02*
X29107143Y-101277438D01*
X29107143Y-101277438D02*
X29011905Y-101372676D01*
X29011905Y-101372676D02*
X28964286Y-101467914D01*
X28964286Y-101467914D02*
X28916667Y-101658390D01*
X28916667Y-101658390D02*
X28916667Y-101801247D01*
X28916667Y-101801247D02*
X28964286Y-101991723D01*
X28964286Y-101991723D02*
X29011905Y-102086961D01*
X29011905Y-102086961D02*
X29107143Y-102182200D01*
X29107143Y-102182200D02*
X29250000Y-102229819D01*
X29250000Y-102229819D02*
X29345238Y-102229819D01*
X29345238Y-102229819D02*
X29488095Y-102182200D01*
X29488095Y-102182200D02*
X29535714Y-102134580D01*
X29535714Y-102134580D02*
X29535714Y-101801247D01*
X29535714Y-101801247D02*
X29345238Y-101801247D01*
X29964286Y-102229819D02*
X29964286Y-101229819D01*
X29964286Y-101229819D02*
X30535714Y-102229819D01*
X30535714Y-102229819D02*
X30535714Y-101229819D01*
X31011905Y-102229819D02*
X31011905Y-101229819D01*
X31011905Y-101229819D02*
X31250000Y-101229819D01*
X31250000Y-101229819D02*
X31392857Y-101277438D01*
X31392857Y-101277438D02*
X31488095Y-101372676D01*
X31488095Y-101372676D02*
X31535714Y-101467914D01*
X31535714Y-101467914D02*
X31583333Y-101658390D01*
X31583333Y-101658390D02*
X31583333Y-101801247D01*
X31583333Y-101801247D02*
X31535714Y-101991723D01*
X31535714Y-101991723D02*
X31488095Y-102086961D01*
X31488095Y-102086961D02*
X31392857Y-102182200D01*
X31392857Y-102182200D02*
X31250000Y-102229819D01*
X31250000Y-102229819D02*
X31011905Y-102229819D01*
X51267319Y-101716666D02*
X51267319Y-102192856D01*
X51267319Y-102192856D02*
X51743509Y-102240475D01*
X51743509Y-102240475D02*
X51695890Y-102192856D01*
X51695890Y-102192856D02*
X51648271Y-102097618D01*
X51648271Y-102097618D02*
X51648271Y-101859523D01*
X51648271Y-101859523D02*
X51695890Y-101764285D01*
X51695890Y-101764285D02*
X51743509Y-101716666D01*
X51743509Y-101716666D02*
X51838747Y-101669047D01*
X51838747Y-101669047D02*
X52076842Y-101669047D01*
X52076842Y-101669047D02*
X52172080Y-101716666D01*
X52172080Y-101716666D02*
X52219700Y-101764285D01*
X52219700Y-101764285D02*
X52267319Y-101859523D01*
X52267319Y-101859523D02*
X52267319Y-102097618D01*
X52267319Y-102097618D02*
X52219700Y-102192856D01*
X52219700Y-102192856D02*
X52172080Y-102240475D01*
X51267319Y-101383332D02*
X52267319Y-101049999D01*
X52267319Y-101049999D02*
X51267319Y-100716666D01*
X51267319Y-100192856D02*
X51267319Y-100002380D01*
X51267319Y-100002380D02*
X51314938Y-99907142D01*
X51314938Y-99907142D02*
X51410176Y-99811904D01*
X51410176Y-99811904D02*
X51600652Y-99764285D01*
X51600652Y-99764285D02*
X51933985Y-99764285D01*
X51933985Y-99764285D02*
X52124461Y-99811904D01*
X52124461Y-99811904D02*
X52219700Y-99907142D01*
X52219700Y-99907142D02*
X52267319Y-100002380D01*
X52267319Y-100002380D02*
X52267319Y-100192856D01*
X52267319Y-100192856D02*
X52219700Y-100288094D01*
X52219700Y-100288094D02*
X52124461Y-100383332D01*
X52124461Y-100383332D02*
X51933985Y-100430951D01*
X51933985Y-100430951D02*
X51600652Y-100430951D01*
X51600652Y-100430951D02*
X51410176Y-100383332D01*
X51410176Y-100383332D02*
X51314938Y-100288094D01*
X51314938Y-100288094D02*
X51267319Y-100192856D01*
X51267319Y-99335713D02*
X52076842Y-99335713D01*
X52076842Y-99335713D02*
X52172080Y-99288094D01*
X52172080Y-99288094D02*
X52219700Y-99240475D01*
X52219700Y-99240475D02*
X52267319Y-99145237D01*
X52267319Y-99145237D02*
X52267319Y-98954761D01*
X52267319Y-98954761D02*
X52219700Y-98859523D01*
X52219700Y-98859523D02*
X52172080Y-98811904D01*
X52172080Y-98811904D02*
X52076842Y-98764285D01*
X52076842Y-98764285D02*
X51267319Y-98764285D01*
X51267319Y-98430951D02*
X51267319Y-97859523D01*
X52267319Y-98145237D02*
X51267319Y-98145237D01*
X85541666Y-64254819D02*
X85541666Y-64969104D01*
X85541666Y-64969104D02*
X85494047Y-65111961D01*
X85494047Y-65111961D02*
X85398809Y-65207200D01*
X85398809Y-65207200D02*
X85255952Y-65254819D01*
X85255952Y-65254819D02*
X85160714Y-65254819D01*
X85922619Y-64254819D02*
X86589285Y-64254819D01*
X86589285Y-64254819D02*
X86160714Y-65254819D01*
X96831009Y-64451190D02*
X96831009Y-64117857D01*
X97354819Y-63975000D02*
X97354819Y-64451190D01*
X97354819Y-64451190D02*
X96354819Y-64451190D01*
X96354819Y-64451190D02*
X96354819Y-63975000D01*
X97450057Y-63784524D02*
X97450057Y-63022619D01*
X97307200Y-62832142D02*
X97354819Y-62689285D01*
X97354819Y-62689285D02*
X97354819Y-62451190D01*
X97354819Y-62451190D02*
X97307200Y-62355952D01*
X97307200Y-62355952D02*
X97259580Y-62308333D01*
X97259580Y-62308333D02*
X97164342Y-62260714D01*
X97164342Y-62260714D02*
X97069104Y-62260714D01*
X97069104Y-62260714D02*
X96973866Y-62308333D01*
X96973866Y-62308333D02*
X96926247Y-62355952D01*
X96926247Y-62355952D02*
X96878628Y-62451190D01*
X96878628Y-62451190D02*
X96831009Y-62641666D01*
X96831009Y-62641666D02*
X96783390Y-62736904D01*
X96783390Y-62736904D02*
X96735771Y-62784523D01*
X96735771Y-62784523D02*
X96640533Y-62832142D01*
X96640533Y-62832142D02*
X96545295Y-62832142D01*
X96545295Y-62832142D02*
X96450057Y-62784523D01*
X96450057Y-62784523D02*
X96402438Y-62736904D01*
X96402438Y-62736904D02*
X96354819Y-62641666D01*
X96354819Y-62641666D02*
X96354819Y-62403571D01*
X96354819Y-62403571D02*
X96402438Y-62260714D01*
X96354819Y-61974999D02*
X96354819Y-61403571D01*
X97354819Y-61689285D02*
X96354819Y-61689285D01*
X96354819Y-60879761D02*
X96354819Y-60689285D01*
X96354819Y-60689285D02*
X96402438Y-60594047D01*
X96402438Y-60594047D02*
X96497676Y-60498809D01*
X96497676Y-60498809D02*
X96688152Y-60451190D01*
X96688152Y-60451190D02*
X97021485Y-60451190D01*
X97021485Y-60451190D02*
X97211961Y-60498809D01*
X97211961Y-60498809D02*
X97307200Y-60594047D01*
X97307200Y-60594047D02*
X97354819Y-60689285D01*
X97354819Y-60689285D02*
X97354819Y-60879761D01*
X97354819Y-60879761D02*
X97307200Y-60974999D01*
X97307200Y-60974999D02*
X97211961Y-61070237D01*
X97211961Y-61070237D02*
X97021485Y-61117856D01*
X97021485Y-61117856D02*
X96688152Y-61117856D01*
X96688152Y-61117856D02*
X96497676Y-61070237D01*
X96497676Y-61070237D02*
X96402438Y-60974999D01*
X96402438Y-60974999D02*
X96354819Y-60879761D01*
X97354819Y-60022618D02*
X96354819Y-60022618D01*
X96354819Y-60022618D02*
X96354819Y-59641666D01*
X96354819Y-59641666D02*
X96402438Y-59546428D01*
X96402438Y-59546428D02*
X96450057Y-59498809D01*
X96450057Y-59498809D02*
X96545295Y-59451190D01*
X96545295Y-59451190D02*
X96688152Y-59451190D01*
X96688152Y-59451190D02*
X96783390Y-59498809D01*
X96783390Y-59498809D02*
X96831009Y-59546428D01*
X96831009Y-59546428D02*
X96878628Y-59641666D01*
X96878628Y-59641666D02*
X96878628Y-60022618D01*
D12*
X56957419Y-23511904D02*
X57766942Y-23511904D01*
X57766942Y-23511904D02*
X57862180Y-23464285D01*
X57862180Y-23464285D02*
X57909800Y-23416666D01*
X57909800Y-23416666D02*
X57957419Y-23321428D01*
X57957419Y-23321428D02*
X57957419Y-23130952D01*
X57957419Y-23130952D02*
X57909800Y-23035714D01*
X57909800Y-23035714D02*
X57862180Y-22988095D01*
X57862180Y-22988095D02*
X57766942Y-22940476D01*
X57766942Y-22940476D02*
X56957419Y-22940476D01*
X57290752Y-22035714D02*
X57957419Y-22035714D01*
X56909800Y-22273809D02*
X57624085Y-22511904D01*
X57624085Y-22511904D02*
X57624085Y-21892857D01*
D11*
X82729819Y-67486906D02*
X82729819Y-67963096D01*
X82729819Y-67963096D02*
X81729819Y-67963096D01*
X82729819Y-67153572D02*
X81729819Y-67153572D01*
X81729819Y-67153572D02*
X82444104Y-66820239D01*
X82444104Y-66820239D02*
X81729819Y-66486906D01*
X81729819Y-66486906D02*
X82729819Y-66486906D01*
X81825057Y-66058334D02*
X81777438Y-66010715D01*
X81777438Y-66010715D02*
X81729819Y-65915477D01*
X81729819Y-65915477D02*
X81729819Y-65677382D01*
X81729819Y-65677382D02*
X81777438Y-65582144D01*
X81777438Y-65582144D02*
X81825057Y-65534525D01*
X81825057Y-65534525D02*
X81920295Y-65486906D01*
X81920295Y-65486906D02*
X82015533Y-65486906D01*
X82015533Y-65486906D02*
X82158390Y-65534525D01*
X82158390Y-65534525D02*
X82729819Y-66105953D01*
X82729819Y-66105953D02*
X82729819Y-65486906D01*
X81729819Y-64582144D02*
X81729819Y-65058334D01*
X81729819Y-65058334D02*
X82206009Y-65105953D01*
X82206009Y-65105953D02*
X82158390Y-65058334D01*
X82158390Y-65058334D02*
X82110771Y-64963096D01*
X82110771Y-64963096D02*
X82110771Y-64725001D01*
X82110771Y-64725001D02*
X82158390Y-64629763D01*
X82158390Y-64629763D02*
X82206009Y-64582144D01*
X82206009Y-64582144D02*
X82301247Y-64534525D01*
X82301247Y-64534525D02*
X82539342Y-64534525D01*
X82539342Y-64534525D02*
X82634580Y-64582144D01*
X82634580Y-64582144D02*
X82682200Y-64629763D01*
X82682200Y-64629763D02*
X82729819Y-64725001D01*
X82729819Y-64725001D02*
X82729819Y-64963096D01*
X82729819Y-64963096D02*
X82682200Y-65058334D01*
X82682200Y-65058334D02*
X82634580Y-65105953D01*
X82729819Y-64058334D02*
X82729819Y-63867858D01*
X82729819Y-63867858D02*
X82682200Y-63772620D01*
X82682200Y-63772620D02*
X82634580Y-63725001D01*
X82634580Y-63725001D02*
X82491723Y-63629763D01*
X82491723Y-63629763D02*
X82301247Y-63582144D01*
X82301247Y-63582144D02*
X81920295Y-63582144D01*
X81920295Y-63582144D02*
X81825057Y-63629763D01*
X81825057Y-63629763D02*
X81777438Y-63677382D01*
X81777438Y-63677382D02*
X81729819Y-63772620D01*
X81729819Y-63772620D02*
X81729819Y-63963096D01*
X81729819Y-63963096D02*
X81777438Y-64058334D01*
X81777438Y-64058334D02*
X81825057Y-64105953D01*
X81825057Y-64105953D02*
X81920295Y-64153572D01*
X81920295Y-64153572D02*
X82158390Y-64153572D01*
X82158390Y-64153572D02*
X82253628Y-64105953D01*
X82253628Y-64105953D02*
X82301247Y-64058334D01*
X82301247Y-64058334D02*
X82348866Y-63963096D01*
X82348866Y-63963096D02*
X82348866Y-63772620D01*
X82348866Y-63772620D02*
X82301247Y-63677382D01*
X82301247Y-63677382D02*
X82253628Y-63629763D01*
X82253628Y-63629763D02*
X82158390Y-63582144D01*
X81729819Y-62725001D02*
X81729819Y-62915477D01*
X81729819Y-62915477D02*
X81777438Y-63010715D01*
X81777438Y-63010715D02*
X81825057Y-63058334D01*
X81825057Y-63058334D02*
X81967914Y-63153572D01*
X81967914Y-63153572D02*
X82158390Y-63201191D01*
X82158390Y-63201191D02*
X82539342Y-63201191D01*
X82539342Y-63201191D02*
X82634580Y-63153572D01*
X82634580Y-63153572D02*
X82682200Y-63105953D01*
X82682200Y-63105953D02*
X82729819Y-63010715D01*
X82729819Y-63010715D02*
X82729819Y-62820239D01*
X82729819Y-62820239D02*
X82682200Y-62725001D01*
X82682200Y-62725001D02*
X82634580Y-62677382D01*
X82634580Y-62677382D02*
X82539342Y-62629763D01*
X82539342Y-62629763D02*
X82301247Y-62629763D01*
X82301247Y-62629763D02*
X82206009Y-62677382D01*
X82206009Y-62677382D02*
X82158390Y-62725001D01*
X82158390Y-62725001D02*
X82110771Y-62820239D01*
X82110771Y-62820239D02*
X82110771Y-63010715D01*
X82110771Y-63010715D02*
X82158390Y-63105953D01*
X82158390Y-63105953D02*
X82206009Y-63153572D01*
X82206009Y-63153572D02*
X82301247Y-63201191D01*
X82206009Y-61105953D02*
X82253628Y-60963096D01*
X82253628Y-60963096D02*
X82301247Y-60915477D01*
X82301247Y-60915477D02*
X82396485Y-60867858D01*
X82396485Y-60867858D02*
X82539342Y-60867858D01*
X82539342Y-60867858D02*
X82634580Y-60915477D01*
X82634580Y-60915477D02*
X82682200Y-60963096D01*
X82682200Y-60963096D02*
X82729819Y-61058334D01*
X82729819Y-61058334D02*
X82729819Y-61439286D01*
X82729819Y-61439286D02*
X81729819Y-61439286D01*
X81729819Y-61439286D02*
X81729819Y-61105953D01*
X81729819Y-61105953D02*
X81777438Y-61010715D01*
X81777438Y-61010715D02*
X81825057Y-60963096D01*
X81825057Y-60963096D02*
X81920295Y-60915477D01*
X81920295Y-60915477D02*
X82015533Y-60915477D01*
X82015533Y-60915477D02*
X82110771Y-60963096D01*
X82110771Y-60963096D02*
X82158390Y-61010715D01*
X82158390Y-61010715D02*
X82206009Y-61105953D01*
X82206009Y-61105953D02*
X82206009Y-61439286D01*
X82063152Y-60010715D02*
X82729819Y-60010715D01*
X82063152Y-60439286D02*
X82586961Y-60439286D01*
X82586961Y-60439286D02*
X82682200Y-60391667D01*
X82682200Y-60391667D02*
X82729819Y-60296429D01*
X82729819Y-60296429D02*
X82729819Y-60153572D01*
X82729819Y-60153572D02*
X82682200Y-60058334D01*
X82682200Y-60058334D02*
X82634580Y-60010715D01*
X82682200Y-59105953D02*
X82729819Y-59201191D01*
X82729819Y-59201191D02*
X82729819Y-59391667D01*
X82729819Y-59391667D02*
X82682200Y-59486905D01*
X82682200Y-59486905D02*
X82634580Y-59534524D01*
X82634580Y-59534524D02*
X82539342Y-59582143D01*
X82539342Y-59582143D02*
X82253628Y-59582143D01*
X82253628Y-59582143D02*
X82158390Y-59534524D01*
X82158390Y-59534524D02*
X82110771Y-59486905D01*
X82110771Y-59486905D02*
X82063152Y-59391667D01*
X82063152Y-59391667D02*
X82063152Y-59201191D01*
X82063152Y-59201191D02*
X82110771Y-59105953D01*
X82729819Y-58677381D02*
X81729819Y-58677381D01*
X82348866Y-58582143D02*
X82729819Y-58296429D01*
X82063152Y-58296429D02*
X82444104Y-58677381D01*
X82634580Y-56534524D02*
X82682200Y-56582143D01*
X82682200Y-56582143D02*
X82729819Y-56725000D01*
X82729819Y-56725000D02*
X82729819Y-56820238D01*
X82729819Y-56820238D02*
X82682200Y-56963095D01*
X82682200Y-56963095D02*
X82586961Y-57058333D01*
X82586961Y-57058333D02*
X82491723Y-57105952D01*
X82491723Y-57105952D02*
X82301247Y-57153571D01*
X82301247Y-57153571D02*
X82158390Y-57153571D01*
X82158390Y-57153571D02*
X81967914Y-57105952D01*
X81967914Y-57105952D02*
X81872676Y-57058333D01*
X81872676Y-57058333D02*
X81777438Y-56963095D01*
X81777438Y-56963095D02*
X81729819Y-56820238D01*
X81729819Y-56820238D02*
X81729819Y-56725000D01*
X81729819Y-56725000D02*
X81777438Y-56582143D01*
X81777438Y-56582143D02*
X81825057Y-56534524D01*
X82729819Y-55963095D02*
X82682200Y-56058333D01*
X82682200Y-56058333D02*
X82634580Y-56105952D01*
X82634580Y-56105952D02*
X82539342Y-56153571D01*
X82539342Y-56153571D02*
X82253628Y-56153571D01*
X82253628Y-56153571D02*
X82158390Y-56105952D01*
X82158390Y-56105952D02*
X82110771Y-56058333D01*
X82110771Y-56058333D02*
X82063152Y-55963095D01*
X82063152Y-55963095D02*
X82063152Y-55820238D01*
X82063152Y-55820238D02*
X82110771Y-55725000D01*
X82110771Y-55725000D02*
X82158390Y-55677381D01*
X82158390Y-55677381D02*
X82253628Y-55629762D01*
X82253628Y-55629762D02*
X82539342Y-55629762D01*
X82539342Y-55629762D02*
X82634580Y-55677381D01*
X82634580Y-55677381D02*
X82682200Y-55725000D01*
X82682200Y-55725000D02*
X82729819Y-55820238D01*
X82729819Y-55820238D02*
X82729819Y-55963095D01*
X82063152Y-55201190D02*
X82729819Y-55201190D01*
X82158390Y-55201190D02*
X82110771Y-55153571D01*
X82110771Y-55153571D02*
X82063152Y-55058333D01*
X82063152Y-55058333D02*
X82063152Y-54915476D01*
X82063152Y-54915476D02*
X82110771Y-54820238D01*
X82110771Y-54820238D02*
X82206009Y-54772619D01*
X82206009Y-54772619D02*
X82729819Y-54772619D01*
X82063152Y-54391666D02*
X82729819Y-54153571D01*
X82729819Y-54153571D02*
X82063152Y-53915476D01*
X82682200Y-53153571D02*
X82729819Y-53248809D01*
X82729819Y-53248809D02*
X82729819Y-53439285D01*
X82729819Y-53439285D02*
X82682200Y-53534523D01*
X82682200Y-53534523D02*
X82586961Y-53582142D01*
X82586961Y-53582142D02*
X82206009Y-53582142D01*
X82206009Y-53582142D02*
X82110771Y-53534523D01*
X82110771Y-53534523D02*
X82063152Y-53439285D01*
X82063152Y-53439285D02*
X82063152Y-53248809D01*
X82063152Y-53248809D02*
X82110771Y-53153571D01*
X82110771Y-53153571D02*
X82206009Y-53105952D01*
X82206009Y-53105952D02*
X82301247Y-53105952D01*
X82301247Y-53105952D02*
X82396485Y-53582142D01*
X82729819Y-52677380D02*
X82063152Y-52677380D01*
X82253628Y-52677380D02*
X82158390Y-52629761D01*
X82158390Y-52629761D02*
X82110771Y-52582142D01*
X82110771Y-52582142D02*
X82063152Y-52486904D01*
X82063152Y-52486904D02*
X82063152Y-52391666D01*
X82063152Y-52201189D02*
X82063152Y-51820237D01*
X81729819Y-52058332D02*
X82586961Y-52058332D01*
X82586961Y-52058332D02*
X82682200Y-52010713D01*
X82682200Y-52010713D02*
X82729819Y-51915475D01*
X82729819Y-51915475D02*
X82729819Y-51820237D01*
X82682200Y-51105951D02*
X82729819Y-51201189D01*
X82729819Y-51201189D02*
X82729819Y-51391665D01*
X82729819Y-51391665D02*
X82682200Y-51486903D01*
X82682200Y-51486903D02*
X82586961Y-51534522D01*
X82586961Y-51534522D02*
X82206009Y-51534522D01*
X82206009Y-51534522D02*
X82110771Y-51486903D01*
X82110771Y-51486903D02*
X82063152Y-51391665D01*
X82063152Y-51391665D02*
X82063152Y-51201189D01*
X82063152Y-51201189D02*
X82110771Y-51105951D01*
X82110771Y-51105951D02*
X82206009Y-51058332D01*
X82206009Y-51058332D02*
X82301247Y-51058332D01*
X82301247Y-51058332D02*
X82396485Y-51534522D01*
X82729819Y-50629760D02*
X82063152Y-50629760D01*
X82253628Y-50629760D02*
X82158390Y-50582141D01*
X82158390Y-50582141D02*
X82110771Y-50534522D01*
X82110771Y-50534522D02*
X82063152Y-50439284D01*
X82063152Y-50439284D02*
X82063152Y-50344046D01*
D12*
X60763252Y-31585806D02*
X60763252Y-31395330D01*
X60763252Y-31395330D02*
X60810871Y-31300092D01*
X60810871Y-31300092D02*
X60906109Y-31204854D01*
X60906109Y-31204854D02*
X61096585Y-31157235D01*
X61096585Y-31157235D02*
X61429918Y-31157235D01*
X61429918Y-31157235D02*
X61620394Y-31204854D01*
X61620394Y-31204854D02*
X61715633Y-31300092D01*
X61715633Y-31300092D02*
X61763252Y-31395330D01*
X61763252Y-31395330D02*
X61763252Y-31585806D01*
X61763252Y-31585806D02*
X61715633Y-31681044D01*
X61715633Y-31681044D02*
X61620394Y-31776282D01*
X61620394Y-31776282D02*
X61429918Y-31823901D01*
X61429918Y-31823901D02*
X61096585Y-31823901D01*
X61096585Y-31823901D02*
X60906109Y-31776282D01*
X60906109Y-31776282D02*
X60810871Y-31681044D01*
X60810871Y-31681044D02*
X60763252Y-31585806D01*
X60763252Y-30728663D02*
X61572775Y-30728663D01*
X61572775Y-30728663D02*
X61668013Y-30681044D01*
X61668013Y-30681044D02*
X61715633Y-30633425D01*
X61715633Y-30633425D02*
X61763252Y-30538187D01*
X61763252Y-30538187D02*
X61763252Y-30347711D01*
X61763252Y-30347711D02*
X61715633Y-30252473D01*
X61715633Y-30252473D02*
X61668013Y-30204854D01*
X61668013Y-30204854D02*
X61572775Y-30157235D01*
X61572775Y-30157235D02*
X60763252Y-30157235D01*
X60763252Y-29823901D02*
X60763252Y-29252473D01*
X61763252Y-29538187D02*
X60763252Y-29538187D01*
X61382299Y-28919139D02*
X61382299Y-28157235D01*
X61763252Y-28538187D02*
X61001347Y-28538187D01*
X61763252Y-62256282D02*
X60763252Y-62256282D01*
X61763252Y-61780092D02*
X60763252Y-61780092D01*
X60763252Y-61780092D02*
X61763252Y-61208664D01*
X61763252Y-61208664D02*
X60763252Y-61208664D01*
X61382299Y-60732473D02*
X61382299Y-59970569D01*
X61763252Y-60351521D02*
X61001347Y-60351521D01*
X78543252Y-31585806D02*
X78543252Y-31395330D01*
X78543252Y-31395330D02*
X78590871Y-31300092D01*
X78590871Y-31300092D02*
X78686109Y-31204854D01*
X78686109Y-31204854D02*
X78876585Y-31157235D01*
X78876585Y-31157235D02*
X79209918Y-31157235D01*
X79209918Y-31157235D02*
X79400394Y-31204854D01*
X79400394Y-31204854D02*
X79495633Y-31300092D01*
X79495633Y-31300092D02*
X79543252Y-31395330D01*
X79543252Y-31395330D02*
X79543252Y-31585806D01*
X79543252Y-31585806D02*
X79495633Y-31681044D01*
X79495633Y-31681044D02*
X79400394Y-31776282D01*
X79400394Y-31776282D02*
X79209918Y-31823901D01*
X79209918Y-31823901D02*
X78876585Y-31823901D01*
X78876585Y-31823901D02*
X78686109Y-31776282D01*
X78686109Y-31776282D02*
X78590871Y-31681044D01*
X78590871Y-31681044D02*
X78543252Y-31585806D01*
X78543252Y-30728663D02*
X79352775Y-30728663D01*
X79352775Y-30728663D02*
X79448013Y-30681044D01*
X79448013Y-30681044D02*
X79495633Y-30633425D01*
X79495633Y-30633425D02*
X79543252Y-30538187D01*
X79543252Y-30538187D02*
X79543252Y-30347711D01*
X79543252Y-30347711D02*
X79495633Y-30252473D01*
X79495633Y-30252473D02*
X79448013Y-30204854D01*
X79448013Y-30204854D02*
X79352775Y-30157235D01*
X79352775Y-30157235D02*
X78543252Y-30157235D01*
X78543252Y-29823901D02*
X78543252Y-29252473D01*
X79543252Y-29538187D02*
X78543252Y-29538187D01*
X79162299Y-28919139D02*
X79162299Y-28157235D01*
X79543252Y-62256282D02*
X78543252Y-62256282D01*
X79543252Y-61780092D02*
X78543252Y-61780092D01*
X78543252Y-61780092D02*
X79543252Y-61208664D01*
X79543252Y-61208664D02*
X78543252Y-61208664D01*
X79162299Y-60732473D02*
X79162299Y-59970569D01*
D11*
X85766666Y-78581009D02*
X85433333Y-78581009D01*
X85433333Y-79104819D02*
X85433333Y-78104819D01*
X85433333Y-78104819D02*
X85909523Y-78104819D01*
X86814285Y-79104819D02*
X86242857Y-79104819D01*
X86528571Y-79104819D02*
X86528571Y-78104819D01*
X86528571Y-78104819D02*
X86433333Y-78247676D01*
X86433333Y-78247676D02*
X86338095Y-78342914D01*
X86338095Y-78342914D02*
X86242857Y-78390533D01*
X96300057Y-78809523D02*
X96252438Y-78761904D01*
X96252438Y-78761904D02*
X96204819Y-78666666D01*
X96204819Y-78666666D02*
X96204819Y-78428571D01*
X96204819Y-78428571D02*
X96252438Y-78333333D01*
X96252438Y-78333333D02*
X96300057Y-78285714D01*
X96300057Y-78285714D02*
X96395295Y-78238095D01*
X96395295Y-78238095D02*
X96490533Y-78238095D01*
X96490533Y-78238095D02*
X96633390Y-78285714D01*
X96633390Y-78285714D02*
X97204819Y-78857142D01*
X97204819Y-78857142D02*
X97204819Y-78238095D01*
X96919104Y-77857142D02*
X96919104Y-77380952D01*
X97204819Y-77952380D02*
X96204819Y-77619047D01*
X96204819Y-77619047D02*
X97204819Y-77285714D01*
X96681009Y-75857142D02*
X96681009Y-76190475D01*
X97204819Y-76190475D02*
X96204819Y-76190475D01*
X96204819Y-76190475D02*
X96204819Y-75714285D01*
X96538152Y-74904761D02*
X97204819Y-74904761D01*
X96538152Y-75333332D02*
X97061961Y-75333332D01*
X97061961Y-75333332D02*
X97157200Y-75285713D01*
X97157200Y-75285713D02*
X97204819Y-75190475D01*
X97204819Y-75190475D02*
X97204819Y-75047618D01*
X97204819Y-75047618D02*
X97157200Y-74952380D01*
X97157200Y-74952380D02*
X97109580Y-74904761D01*
X97157200Y-74476189D02*
X97204819Y-74380951D01*
X97204819Y-74380951D02*
X97204819Y-74190475D01*
X97204819Y-74190475D02*
X97157200Y-74095237D01*
X97157200Y-74095237D02*
X97061961Y-74047618D01*
X97061961Y-74047618D02*
X97014342Y-74047618D01*
X97014342Y-74047618D02*
X96919104Y-74095237D01*
X96919104Y-74095237D02*
X96871485Y-74190475D01*
X96871485Y-74190475D02*
X96871485Y-74333332D01*
X96871485Y-74333332D02*
X96823866Y-74428570D01*
X96823866Y-74428570D02*
X96728628Y-74476189D01*
X96728628Y-74476189D02*
X96681009Y-74476189D01*
X96681009Y-74476189D02*
X96585771Y-74428570D01*
X96585771Y-74428570D02*
X96538152Y-74333332D01*
X96538152Y-74333332D02*
X96538152Y-74190475D01*
X96538152Y-74190475D02*
X96585771Y-74095237D01*
X97157200Y-73238094D02*
X97204819Y-73333332D01*
X97204819Y-73333332D02*
X97204819Y-73523808D01*
X97204819Y-73523808D02*
X97157200Y-73619046D01*
X97157200Y-73619046D02*
X97061961Y-73666665D01*
X97061961Y-73666665D02*
X96681009Y-73666665D01*
X96681009Y-73666665D02*
X96585771Y-73619046D01*
X96585771Y-73619046D02*
X96538152Y-73523808D01*
X96538152Y-73523808D02*
X96538152Y-73333332D01*
X96538152Y-73333332D02*
X96585771Y-73238094D01*
X96585771Y-73238094D02*
X96681009Y-73190475D01*
X96681009Y-73190475D02*
X96776247Y-73190475D01*
X96776247Y-73190475D02*
X96871485Y-73666665D01*
X54354819Y-102288094D02*
X54354819Y-101669047D01*
X54354819Y-101669047D02*
X54735771Y-102002380D01*
X54735771Y-102002380D02*
X54735771Y-101859523D01*
X54735771Y-101859523D02*
X54783390Y-101764285D01*
X54783390Y-101764285D02*
X54831009Y-101716666D01*
X54831009Y-101716666D02*
X54926247Y-101669047D01*
X54926247Y-101669047D02*
X55164342Y-101669047D01*
X55164342Y-101669047D02*
X55259580Y-101716666D01*
X55259580Y-101716666D02*
X55307200Y-101764285D01*
X55307200Y-101764285D02*
X55354819Y-101859523D01*
X55354819Y-101859523D02*
X55354819Y-102145237D01*
X55354819Y-102145237D02*
X55307200Y-102240475D01*
X55307200Y-102240475D02*
X55259580Y-102288094D01*
X54354819Y-101383332D02*
X55354819Y-101049999D01*
X55354819Y-101049999D02*
X54354819Y-100716666D01*
X54354819Y-100478570D02*
X54354819Y-99859523D01*
X54354819Y-99859523D02*
X54735771Y-100192856D01*
X54735771Y-100192856D02*
X54735771Y-100049999D01*
X54735771Y-100049999D02*
X54783390Y-99954761D01*
X54783390Y-99954761D02*
X54831009Y-99907142D01*
X54831009Y-99907142D02*
X54926247Y-99859523D01*
X54926247Y-99859523D02*
X55164342Y-99859523D01*
X55164342Y-99859523D02*
X55259580Y-99907142D01*
X55259580Y-99907142D02*
X55307200Y-99954761D01*
X55307200Y-99954761D02*
X55354819Y-100049999D01*
X55354819Y-100049999D02*
X55354819Y-100335713D01*
X55354819Y-100335713D02*
X55307200Y-100430951D01*
X55307200Y-100430951D02*
X55259580Y-100478570D01*
X84841666Y-40154819D02*
X84841666Y-40869104D01*
X84841666Y-40869104D02*
X84794047Y-41011961D01*
X84794047Y-41011961D02*
X84698809Y-41107200D01*
X84698809Y-41107200D02*
X84555952Y-41154819D01*
X84555952Y-41154819D02*
X84460714Y-41154819D01*
X85746428Y-40488152D02*
X85746428Y-41154819D01*
X85508333Y-40107200D02*
X85270238Y-40821485D01*
X85270238Y-40821485D02*
X85889285Y-40821485D01*
X56841666Y-89054819D02*
X56841666Y-89769104D01*
X56841666Y-89769104D02*
X56794047Y-89911961D01*
X56794047Y-89911961D02*
X56698809Y-90007200D01*
X56698809Y-90007200D02*
X56555952Y-90054819D01*
X56555952Y-90054819D02*
X56460714Y-90054819D01*
X57841666Y-90054819D02*
X57270238Y-90054819D01*
X57555952Y-90054819D02*
X57555952Y-89054819D01*
X57555952Y-89054819D02*
X57460714Y-89197676D01*
X57460714Y-89197676D02*
X57365476Y-89292914D01*
X57365476Y-89292914D02*
X57270238Y-89340533D01*
X57804819Y-95233333D02*
X56804819Y-95233333D01*
X56804819Y-95233333D02*
X57519104Y-94900000D01*
X57519104Y-94900000D02*
X56804819Y-94566667D01*
X56804819Y-94566667D02*
X57804819Y-94566667D01*
X57804819Y-93947619D02*
X57757200Y-94042857D01*
X57757200Y-94042857D02*
X57709580Y-94090476D01*
X57709580Y-94090476D02*
X57614342Y-94138095D01*
X57614342Y-94138095D02*
X57328628Y-94138095D01*
X57328628Y-94138095D02*
X57233390Y-94090476D01*
X57233390Y-94090476D02*
X57185771Y-94042857D01*
X57185771Y-94042857D02*
X57138152Y-93947619D01*
X57138152Y-93947619D02*
X57138152Y-93804762D01*
X57138152Y-93804762D02*
X57185771Y-93709524D01*
X57185771Y-93709524D02*
X57233390Y-93661905D01*
X57233390Y-93661905D02*
X57328628Y-93614286D01*
X57328628Y-93614286D02*
X57614342Y-93614286D01*
X57614342Y-93614286D02*
X57709580Y-93661905D01*
X57709580Y-93661905D02*
X57757200Y-93709524D01*
X57757200Y-93709524D02*
X57804819Y-93804762D01*
X57804819Y-93804762D02*
X57804819Y-93947619D01*
X57138152Y-93328571D02*
X57138152Y-92947619D01*
X56804819Y-93185714D02*
X57661961Y-93185714D01*
X57661961Y-93185714D02*
X57757200Y-93138095D01*
X57757200Y-93138095D02*
X57804819Y-93042857D01*
X57804819Y-93042857D02*
X57804819Y-92947619D01*
X57804819Y-92471428D02*
X57757200Y-92566666D01*
X57757200Y-92566666D02*
X57709580Y-92614285D01*
X57709580Y-92614285D02*
X57614342Y-92661904D01*
X57614342Y-92661904D02*
X57328628Y-92661904D01*
X57328628Y-92661904D02*
X57233390Y-92614285D01*
X57233390Y-92614285D02*
X57185771Y-92566666D01*
X57185771Y-92566666D02*
X57138152Y-92471428D01*
X57138152Y-92471428D02*
X57138152Y-92328571D01*
X57138152Y-92328571D02*
X57185771Y-92233333D01*
X57185771Y-92233333D02*
X57233390Y-92185714D01*
X57233390Y-92185714D02*
X57328628Y-92138095D01*
X57328628Y-92138095D02*
X57614342Y-92138095D01*
X57614342Y-92138095D02*
X57709580Y-92185714D01*
X57709580Y-92185714D02*
X57757200Y-92233333D01*
X57757200Y-92233333D02*
X57804819Y-92328571D01*
X57804819Y-92328571D02*
X57804819Y-92471428D01*
X57804819Y-91709523D02*
X57138152Y-91709523D01*
X57328628Y-91709523D02*
X57233390Y-91661904D01*
X57233390Y-91661904D02*
X57185771Y-91614285D01*
X57185771Y-91614285D02*
X57138152Y-91519047D01*
X57138152Y-91519047D02*
X57138152Y-91423809D01*
X85466666Y-57079819D02*
X85466666Y-57794104D01*
X85466666Y-57794104D02*
X85419047Y-57936961D01*
X85419047Y-57936961D02*
X85323809Y-58032200D01*
X85323809Y-58032200D02*
X85180952Y-58079819D01*
X85180952Y-58079819D02*
X85085714Y-58079819D01*
X85990476Y-58079819D02*
X86180952Y-58079819D01*
X86180952Y-58079819D02*
X86276190Y-58032200D01*
X86276190Y-58032200D02*
X86323809Y-57984580D01*
X86323809Y-57984580D02*
X86419047Y-57841723D01*
X86419047Y-57841723D02*
X86466666Y-57651247D01*
X86466666Y-57651247D02*
X86466666Y-57270295D01*
X86466666Y-57270295D02*
X86419047Y-57175057D01*
X86419047Y-57175057D02*
X86371428Y-57127438D01*
X86371428Y-57127438D02*
X86276190Y-57079819D01*
X86276190Y-57079819D02*
X86085714Y-57079819D01*
X86085714Y-57079819D02*
X85990476Y-57127438D01*
X85990476Y-57127438D02*
X85942857Y-57175057D01*
X85942857Y-57175057D02*
X85895238Y-57270295D01*
X85895238Y-57270295D02*
X85895238Y-57508390D01*
X85895238Y-57508390D02*
X85942857Y-57603628D01*
X85942857Y-57603628D02*
X85990476Y-57651247D01*
X85990476Y-57651247D02*
X86085714Y-57698866D01*
X86085714Y-57698866D02*
X86276190Y-57698866D01*
X86276190Y-57698866D02*
X86371428Y-57651247D01*
X86371428Y-57651247D02*
X86419047Y-57603628D01*
X86419047Y-57603628D02*
X86466666Y-57508390D01*
X97304819Y-57235714D02*
X97304819Y-57711904D01*
X97304819Y-57711904D02*
X96304819Y-57711904D01*
X97304819Y-56902380D02*
X96304819Y-56902380D01*
X97304819Y-56426190D02*
X96304819Y-56426190D01*
X96304819Y-56426190D02*
X97019104Y-56092857D01*
X97019104Y-56092857D02*
X96304819Y-55759524D01*
X96304819Y-55759524D02*
X97304819Y-55759524D01*
X97400057Y-55521429D02*
X97400057Y-54759524D01*
X96781009Y-54188095D02*
X96828628Y-54045238D01*
X96828628Y-54045238D02*
X96876247Y-53997619D01*
X96876247Y-53997619D02*
X96971485Y-53950000D01*
X96971485Y-53950000D02*
X97114342Y-53950000D01*
X97114342Y-53950000D02*
X97209580Y-53997619D01*
X97209580Y-53997619D02*
X97257200Y-54045238D01*
X97257200Y-54045238D02*
X97304819Y-54140476D01*
X97304819Y-54140476D02*
X97304819Y-54521428D01*
X97304819Y-54521428D02*
X96304819Y-54521428D01*
X96304819Y-54521428D02*
X96304819Y-54188095D01*
X96304819Y-54188095D02*
X96352438Y-54092857D01*
X96352438Y-54092857D02*
X96400057Y-54045238D01*
X96400057Y-54045238D02*
X96495295Y-53997619D01*
X96495295Y-53997619D02*
X96590533Y-53997619D01*
X96590533Y-53997619D02*
X96685771Y-54045238D01*
X96685771Y-54045238D02*
X96733390Y-54092857D01*
X96733390Y-54092857D02*
X96781009Y-54188095D01*
X96781009Y-54188095D02*
X96781009Y-54521428D01*
X96304819Y-53330952D02*
X96304819Y-53140476D01*
X96304819Y-53140476D02*
X96352438Y-53045238D01*
X96352438Y-53045238D02*
X96447676Y-52950000D01*
X96447676Y-52950000D02*
X96638152Y-52902381D01*
X96638152Y-52902381D02*
X96971485Y-52902381D01*
X96971485Y-52902381D02*
X97161961Y-52950000D01*
X97161961Y-52950000D02*
X97257200Y-53045238D01*
X97257200Y-53045238D02*
X97304819Y-53140476D01*
X97304819Y-53140476D02*
X97304819Y-53330952D01*
X97304819Y-53330952D02*
X97257200Y-53426190D01*
X97257200Y-53426190D02*
X97161961Y-53521428D01*
X97161961Y-53521428D02*
X96971485Y-53569047D01*
X96971485Y-53569047D02*
X96638152Y-53569047D01*
X96638152Y-53569047D02*
X96447676Y-53521428D01*
X96447676Y-53521428D02*
X96352438Y-53426190D01*
X96352438Y-53426190D02*
X96304819Y-53330952D01*
X96304819Y-52616666D02*
X96304819Y-52045238D01*
X97304819Y-52330952D02*
X96304819Y-52330952D01*
X54459819Y-41013094D02*
X53459819Y-41013094D01*
X53459819Y-41013094D02*
X53459819Y-40774999D01*
X53459819Y-40774999D02*
X53507438Y-40632142D01*
X53507438Y-40632142D02*
X53602676Y-40536904D01*
X53602676Y-40536904D02*
X53697914Y-40489285D01*
X53697914Y-40489285D02*
X53888390Y-40441666D01*
X53888390Y-40441666D02*
X54031247Y-40441666D01*
X54031247Y-40441666D02*
X54221723Y-40489285D01*
X54221723Y-40489285D02*
X54316961Y-40536904D01*
X54316961Y-40536904D02*
X54412200Y-40632142D01*
X54412200Y-40632142D02*
X54459819Y-40774999D01*
X54459819Y-40774999D02*
X54459819Y-41013094D01*
X53555057Y-40060713D02*
X53507438Y-40013094D01*
X53507438Y-40013094D02*
X53459819Y-39917856D01*
X53459819Y-39917856D02*
X53459819Y-39679761D01*
X53459819Y-39679761D02*
X53507438Y-39584523D01*
X53507438Y-39584523D02*
X53555057Y-39536904D01*
X53555057Y-39536904D02*
X53650295Y-39489285D01*
X53650295Y-39489285D02*
X53745533Y-39489285D01*
X53745533Y-39489285D02*
X53888390Y-39536904D01*
X53888390Y-39536904D02*
X54459819Y-40108332D01*
X54459819Y-40108332D02*
X54459819Y-39489285D01*
X54407200Y-34001190D02*
X54454819Y-33858333D01*
X54454819Y-33858333D02*
X54454819Y-33620238D01*
X54454819Y-33620238D02*
X54407200Y-33525000D01*
X54407200Y-33525000D02*
X54359580Y-33477381D01*
X54359580Y-33477381D02*
X54264342Y-33429762D01*
X54264342Y-33429762D02*
X54169104Y-33429762D01*
X54169104Y-33429762D02*
X54073866Y-33477381D01*
X54073866Y-33477381D02*
X54026247Y-33525000D01*
X54026247Y-33525000D02*
X53978628Y-33620238D01*
X53978628Y-33620238D02*
X53931009Y-33810714D01*
X53931009Y-33810714D02*
X53883390Y-33905952D01*
X53883390Y-33905952D02*
X53835771Y-33953571D01*
X53835771Y-33953571D02*
X53740533Y-34001190D01*
X53740533Y-34001190D02*
X53645295Y-34001190D01*
X53645295Y-34001190D02*
X53550057Y-33953571D01*
X53550057Y-33953571D02*
X53502438Y-33905952D01*
X53502438Y-33905952D02*
X53454819Y-33810714D01*
X53454819Y-33810714D02*
X53454819Y-33572619D01*
X53454819Y-33572619D02*
X53502438Y-33429762D01*
X53454819Y-33144047D02*
X53454819Y-32572619D01*
X54454819Y-32858333D02*
X53454819Y-32858333D01*
X54169104Y-32286904D02*
X54169104Y-31810714D01*
X54454819Y-32382142D02*
X53454819Y-32048809D01*
X53454819Y-32048809D02*
X54454819Y-31715476D01*
X53454819Y-31524999D02*
X53454819Y-30953571D01*
X54454819Y-31239285D02*
X53454819Y-31239285D01*
X53454819Y-30620237D02*
X54264342Y-30620237D01*
X54264342Y-30620237D02*
X54359580Y-30572618D01*
X54359580Y-30572618D02*
X54407200Y-30524999D01*
X54407200Y-30524999D02*
X54454819Y-30429761D01*
X54454819Y-30429761D02*
X54454819Y-30239285D01*
X54454819Y-30239285D02*
X54407200Y-30144047D01*
X54407200Y-30144047D02*
X54359580Y-30096428D01*
X54359580Y-30096428D02*
X54264342Y-30048809D01*
X54264342Y-30048809D02*
X53454819Y-30048809D01*
X54407200Y-29620237D02*
X54454819Y-29477380D01*
X54454819Y-29477380D02*
X54454819Y-29239285D01*
X54454819Y-29239285D02*
X54407200Y-29144047D01*
X54407200Y-29144047D02*
X54359580Y-29096428D01*
X54359580Y-29096428D02*
X54264342Y-29048809D01*
X54264342Y-29048809D02*
X54169104Y-29048809D01*
X54169104Y-29048809D02*
X54073866Y-29096428D01*
X54073866Y-29096428D02*
X54026247Y-29144047D01*
X54026247Y-29144047D02*
X53978628Y-29239285D01*
X53978628Y-29239285D02*
X53931009Y-29429761D01*
X53931009Y-29429761D02*
X53883390Y-29524999D01*
X53883390Y-29524999D02*
X53835771Y-29572618D01*
X53835771Y-29572618D02*
X53740533Y-29620237D01*
X53740533Y-29620237D02*
X53645295Y-29620237D01*
X53645295Y-29620237D02*
X53550057Y-29572618D01*
X53550057Y-29572618D02*
X53502438Y-29524999D01*
X53502438Y-29524999D02*
X53454819Y-29429761D01*
X53454819Y-29429761D02*
X53454819Y-29191666D01*
X53454819Y-29191666D02*
X53502438Y-29048809D01*
X21188095Y-74264819D02*
X21188095Y-75074342D01*
X21188095Y-75074342D02*
X21235714Y-75169580D01*
X21235714Y-75169580D02*
X21283333Y-75217200D01*
X21283333Y-75217200D02*
X21378571Y-75264819D01*
X21378571Y-75264819D02*
X21569047Y-75264819D01*
X21569047Y-75264819D02*
X21664285Y-75217200D01*
X21664285Y-75217200D02*
X21711904Y-75169580D01*
X21711904Y-75169580D02*
X21759523Y-75074342D01*
X21759523Y-75074342D02*
X21759523Y-74264819D01*
X22188095Y-74360057D02*
X22235714Y-74312438D01*
X22235714Y-74312438D02*
X22330952Y-74264819D01*
X22330952Y-74264819D02*
X22569047Y-74264819D01*
X22569047Y-74264819D02*
X22664285Y-74312438D01*
X22664285Y-74312438D02*
X22711904Y-74360057D01*
X22711904Y-74360057D02*
X22759523Y-74455295D01*
X22759523Y-74455295D02*
X22759523Y-74550533D01*
X22759523Y-74550533D02*
X22711904Y-74693390D01*
X22711904Y-74693390D02*
X22140476Y-75264819D01*
X22140476Y-75264819D02*
X22759523Y-75264819D01*
X36084524Y-79484819D02*
X36084524Y-78484819D01*
X36084524Y-78961009D02*
X36655952Y-78961009D01*
X36655952Y-79484819D02*
X36655952Y-78484819D01*
X37036905Y-78484819D02*
X37703571Y-79484819D01*
X37703571Y-78484819D02*
X37036905Y-79484819D01*
X37989286Y-78484819D02*
X38655952Y-78484819D01*
X38655952Y-78484819D02*
X38227381Y-79484819D01*
X39560714Y-79484819D02*
X38989286Y-79484819D01*
X39275000Y-79484819D02*
X39275000Y-78484819D01*
X39275000Y-78484819D02*
X39179762Y-78627676D01*
X39179762Y-78627676D02*
X39084524Y-78722914D01*
X39084524Y-78722914D02*
X38989286Y-78770533D01*
X40513095Y-79484819D02*
X39941667Y-79484819D01*
X40227381Y-79484819D02*
X40227381Y-78484819D01*
X40227381Y-78484819D02*
X40132143Y-78627676D01*
X40132143Y-78627676D02*
X40036905Y-78722914D01*
X40036905Y-78722914D02*
X39941667Y-78770533D01*
D12*
X22201667Y-80918609D02*
X22535000Y-80918609D01*
X22677857Y-81442419D02*
X22201667Y-81442419D01*
X22201667Y-81442419D02*
X22201667Y-80442419D01*
X22201667Y-80442419D02*
X22677857Y-80442419D01*
X23106429Y-81061466D02*
X23868334Y-81061466D01*
X23487381Y-81442419D02*
X23487381Y-80680514D01*
X22201667Y-83458609D02*
X22535000Y-83458609D01*
X22677857Y-83982419D02*
X22201667Y-83982419D01*
X22201667Y-83982419D02*
X22201667Y-82982419D01*
X22201667Y-82982419D02*
X22677857Y-82982419D01*
X23106429Y-83601466D02*
X23868334Y-83601466D01*
X22177857Y-86236704D02*
X22654047Y-86236704D01*
X22082619Y-86522419D02*
X22415952Y-85522419D01*
X22415952Y-85522419D02*
X22749285Y-86522419D01*
X23082619Y-86141466D02*
X23844524Y-86141466D01*
X22177857Y-88776704D02*
X22654047Y-88776704D01*
X22082619Y-89062419D02*
X22415952Y-88062419D01*
X22415952Y-88062419D02*
X22749285Y-89062419D01*
X23082619Y-88681466D02*
X23844524Y-88681466D01*
X23463571Y-89062419D02*
X23463571Y-88300514D01*
X22487381Y-91078609D02*
X22630238Y-91126228D01*
X22630238Y-91126228D02*
X22677857Y-91173847D01*
X22677857Y-91173847D02*
X22725476Y-91269085D01*
X22725476Y-91269085D02*
X22725476Y-91411942D01*
X22725476Y-91411942D02*
X22677857Y-91507180D01*
X22677857Y-91507180D02*
X22630238Y-91554800D01*
X22630238Y-91554800D02*
X22535000Y-91602419D01*
X22535000Y-91602419D02*
X22154048Y-91602419D01*
X22154048Y-91602419D02*
X22154048Y-90602419D01*
X22154048Y-90602419D02*
X22487381Y-90602419D01*
X22487381Y-90602419D02*
X22582619Y-90650038D01*
X22582619Y-90650038D02*
X22630238Y-90697657D01*
X22630238Y-90697657D02*
X22677857Y-90792895D01*
X22677857Y-90792895D02*
X22677857Y-90888133D01*
X22677857Y-90888133D02*
X22630238Y-90983371D01*
X22630238Y-90983371D02*
X22582619Y-91030990D01*
X22582619Y-91030990D02*
X22487381Y-91078609D01*
X22487381Y-91078609D02*
X22154048Y-91078609D01*
X23154048Y-91221466D02*
X23915953Y-91221466D01*
X22487381Y-93618609D02*
X22630238Y-93666228D01*
X22630238Y-93666228D02*
X22677857Y-93713847D01*
X22677857Y-93713847D02*
X22725476Y-93809085D01*
X22725476Y-93809085D02*
X22725476Y-93951942D01*
X22725476Y-93951942D02*
X22677857Y-94047180D01*
X22677857Y-94047180D02*
X22630238Y-94094800D01*
X22630238Y-94094800D02*
X22535000Y-94142419D01*
X22535000Y-94142419D02*
X22154048Y-94142419D01*
X22154048Y-94142419D02*
X22154048Y-93142419D01*
X22154048Y-93142419D02*
X22487381Y-93142419D01*
X22487381Y-93142419D02*
X22582619Y-93190038D01*
X22582619Y-93190038D02*
X22630238Y-93237657D01*
X22630238Y-93237657D02*
X22677857Y-93332895D01*
X22677857Y-93332895D02*
X22677857Y-93428133D01*
X22677857Y-93428133D02*
X22630238Y-93523371D01*
X22630238Y-93523371D02*
X22582619Y-93570990D01*
X22582619Y-93570990D02*
X22487381Y-93618609D01*
X22487381Y-93618609D02*
X22154048Y-93618609D01*
X23154048Y-93761466D02*
X23915953Y-93761466D01*
X23535000Y-94142419D02*
X23535000Y-93380514D01*
X53313095Y-83030038D02*
X53217857Y-82982419D01*
X53217857Y-82982419D02*
X53075000Y-82982419D01*
X53075000Y-82982419D02*
X52932143Y-83030038D01*
X52932143Y-83030038D02*
X52836905Y-83125276D01*
X52836905Y-83125276D02*
X52789286Y-83220514D01*
X52789286Y-83220514D02*
X52741667Y-83410990D01*
X52741667Y-83410990D02*
X52741667Y-83553847D01*
X52741667Y-83553847D02*
X52789286Y-83744323D01*
X52789286Y-83744323D02*
X52836905Y-83839561D01*
X52836905Y-83839561D02*
X52932143Y-83934800D01*
X52932143Y-83934800D02*
X53075000Y-83982419D01*
X53075000Y-83982419D02*
X53170238Y-83982419D01*
X53170238Y-83982419D02*
X53313095Y-83934800D01*
X53313095Y-83934800D02*
X53360714Y-83887180D01*
X53360714Y-83887180D02*
X53360714Y-83553847D01*
X53360714Y-83553847D02*
X53170238Y-83553847D01*
X53789286Y-83982419D02*
X53789286Y-82982419D01*
X53789286Y-82982419D02*
X54360714Y-83982419D01*
X54360714Y-83982419D02*
X54360714Y-82982419D01*
X54836905Y-83982419D02*
X54836905Y-82982419D01*
X54836905Y-82982419D02*
X55075000Y-82982419D01*
X55075000Y-82982419D02*
X55217857Y-83030038D01*
X55217857Y-83030038D02*
X55313095Y-83125276D01*
X55313095Y-83125276D02*
X55360714Y-83220514D01*
X55360714Y-83220514D02*
X55408333Y-83410990D01*
X55408333Y-83410990D02*
X55408333Y-83553847D01*
X55408333Y-83553847D02*
X55360714Y-83744323D01*
X55360714Y-83744323D02*
X55313095Y-83839561D01*
X55313095Y-83839561D02*
X55217857Y-83934800D01*
X55217857Y-83934800D02*
X55075000Y-83982419D01*
X55075000Y-83982419D02*
X54836905Y-83982419D01*
X53432143Y-86522419D02*
X53432143Y-85522419D01*
X53432143Y-85522419D02*
X53670238Y-85522419D01*
X53670238Y-85522419D02*
X53813095Y-85570038D01*
X53813095Y-85570038D02*
X53908333Y-85665276D01*
X53908333Y-85665276D02*
X53955952Y-85760514D01*
X53955952Y-85760514D02*
X54003571Y-85950990D01*
X54003571Y-85950990D02*
X54003571Y-86093847D01*
X54003571Y-86093847D02*
X53955952Y-86284323D01*
X53955952Y-86284323D02*
X53908333Y-86379561D01*
X53908333Y-86379561D02*
X53813095Y-86474800D01*
X53813095Y-86474800D02*
X53670238Y-86522419D01*
X53670238Y-86522419D02*
X53432143Y-86522419D01*
X54289286Y-85522419D02*
X54860714Y-85522419D01*
X54575000Y-86522419D02*
X54575000Y-85522419D01*
X52789286Y-89014800D02*
X52932143Y-89062419D01*
X52932143Y-89062419D02*
X53170238Y-89062419D01*
X53170238Y-89062419D02*
X53265476Y-89014800D01*
X53265476Y-89014800D02*
X53313095Y-88967180D01*
X53313095Y-88967180D02*
X53360714Y-88871942D01*
X53360714Y-88871942D02*
X53360714Y-88776704D01*
X53360714Y-88776704D02*
X53313095Y-88681466D01*
X53313095Y-88681466D02*
X53265476Y-88633847D01*
X53265476Y-88633847D02*
X53170238Y-88586228D01*
X53170238Y-88586228D02*
X52979762Y-88538609D01*
X52979762Y-88538609D02*
X52884524Y-88490990D01*
X52884524Y-88490990D02*
X52836905Y-88443371D01*
X52836905Y-88443371D02*
X52789286Y-88348133D01*
X52789286Y-88348133D02*
X52789286Y-88252895D01*
X52789286Y-88252895D02*
X52836905Y-88157657D01*
X52836905Y-88157657D02*
X52884524Y-88110038D01*
X52884524Y-88110038D02*
X52979762Y-88062419D01*
X52979762Y-88062419D02*
X53217857Y-88062419D01*
X53217857Y-88062419D02*
X53360714Y-88110038D01*
X54360714Y-88967180D02*
X54313095Y-89014800D01*
X54313095Y-89014800D02*
X54170238Y-89062419D01*
X54170238Y-89062419D02*
X54075000Y-89062419D01*
X54075000Y-89062419D02*
X53932143Y-89014800D01*
X53932143Y-89014800D02*
X53836905Y-88919561D01*
X53836905Y-88919561D02*
X53789286Y-88824323D01*
X53789286Y-88824323D02*
X53741667Y-88633847D01*
X53741667Y-88633847D02*
X53741667Y-88490990D01*
X53741667Y-88490990D02*
X53789286Y-88300514D01*
X53789286Y-88300514D02*
X53836905Y-88205276D01*
X53836905Y-88205276D02*
X53932143Y-88110038D01*
X53932143Y-88110038D02*
X54075000Y-88062419D01*
X54075000Y-88062419D02*
X54170238Y-88062419D01*
X54170238Y-88062419D02*
X54313095Y-88110038D01*
X54313095Y-88110038D02*
X54360714Y-88157657D01*
X54789286Y-89062419D02*
X54789286Y-88062419D01*
X55360714Y-89062419D02*
X54932143Y-88490990D01*
X55360714Y-88062419D02*
X54789286Y-88633847D01*
X52741667Y-90602419D02*
X53075000Y-91602419D01*
X53075000Y-91602419D02*
X53408333Y-90602419D01*
X54313095Y-91507180D02*
X54265476Y-91554800D01*
X54265476Y-91554800D02*
X54122619Y-91602419D01*
X54122619Y-91602419D02*
X54027381Y-91602419D01*
X54027381Y-91602419D02*
X53884524Y-91554800D01*
X53884524Y-91554800D02*
X53789286Y-91459561D01*
X53789286Y-91459561D02*
X53741667Y-91364323D01*
X53741667Y-91364323D02*
X53694048Y-91173847D01*
X53694048Y-91173847D02*
X53694048Y-91030990D01*
X53694048Y-91030990D02*
X53741667Y-90840514D01*
X53741667Y-90840514D02*
X53789286Y-90745276D01*
X53789286Y-90745276D02*
X53884524Y-90650038D01*
X53884524Y-90650038D02*
X54027381Y-90602419D01*
X54027381Y-90602419D02*
X54122619Y-90602419D01*
X54122619Y-90602419D02*
X54265476Y-90650038D01*
X54265476Y-90650038D02*
X54313095Y-90697657D01*
X55313095Y-91507180D02*
X55265476Y-91554800D01*
X55265476Y-91554800D02*
X55122619Y-91602419D01*
X55122619Y-91602419D02*
X55027381Y-91602419D01*
X55027381Y-91602419D02*
X54884524Y-91554800D01*
X54884524Y-91554800D02*
X54789286Y-91459561D01*
X54789286Y-91459561D02*
X54741667Y-91364323D01*
X54741667Y-91364323D02*
X54694048Y-91173847D01*
X54694048Y-91173847D02*
X54694048Y-91030990D01*
X54694048Y-91030990D02*
X54741667Y-90840514D01*
X54741667Y-90840514D02*
X54789286Y-90745276D01*
X54789286Y-90745276D02*
X54884524Y-90650038D01*
X54884524Y-90650038D02*
X55027381Y-90602419D01*
X55027381Y-90602419D02*
X55122619Y-90602419D01*
X55122619Y-90602419D02*
X55265476Y-90650038D01*
X55265476Y-90650038D02*
X55313095Y-90697657D01*
D11*
X56704819Y-41013094D02*
X55704819Y-41013094D01*
X55704819Y-41013094D02*
X55704819Y-40774999D01*
X55704819Y-40774999D02*
X55752438Y-40632142D01*
X55752438Y-40632142D02*
X55847676Y-40536904D01*
X55847676Y-40536904D02*
X55942914Y-40489285D01*
X55942914Y-40489285D02*
X56133390Y-40441666D01*
X56133390Y-40441666D02*
X56276247Y-40441666D01*
X56276247Y-40441666D02*
X56466723Y-40489285D01*
X56466723Y-40489285D02*
X56561961Y-40536904D01*
X56561961Y-40536904D02*
X56657200Y-40632142D01*
X56657200Y-40632142D02*
X56704819Y-40774999D01*
X56704819Y-40774999D02*
X56704819Y-41013094D01*
X56704819Y-39489285D02*
X56704819Y-40060713D01*
X56704819Y-39774999D02*
X55704819Y-39774999D01*
X55704819Y-39774999D02*
X55847676Y-39870237D01*
X55847676Y-39870237D02*
X55942914Y-39965475D01*
X55942914Y-39965475D02*
X55990533Y-40060713D01*
X56704819Y-34084523D02*
X55704819Y-34084523D01*
X55704819Y-34084523D02*
X55704819Y-33703571D01*
X55704819Y-33703571D02*
X55752438Y-33608333D01*
X55752438Y-33608333D02*
X55800057Y-33560714D01*
X55800057Y-33560714D02*
X55895295Y-33513095D01*
X55895295Y-33513095D02*
X56038152Y-33513095D01*
X56038152Y-33513095D02*
X56133390Y-33560714D01*
X56133390Y-33560714D02*
X56181009Y-33608333D01*
X56181009Y-33608333D02*
X56228628Y-33703571D01*
X56228628Y-33703571D02*
X56228628Y-34084523D01*
X55704819Y-32894047D02*
X55704819Y-32703571D01*
X55704819Y-32703571D02*
X55752438Y-32608333D01*
X55752438Y-32608333D02*
X55847676Y-32513095D01*
X55847676Y-32513095D02*
X56038152Y-32465476D01*
X56038152Y-32465476D02*
X56371485Y-32465476D01*
X56371485Y-32465476D02*
X56561961Y-32513095D01*
X56561961Y-32513095D02*
X56657200Y-32608333D01*
X56657200Y-32608333D02*
X56704819Y-32703571D01*
X56704819Y-32703571D02*
X56704819Y-32894047D01*
X56704819Y-32894047D02*
X56657200Y-32989285D01*
X56657200Y-32989285D02*
X56561961Y-33084523D01*
X56561961Y-33084523D02*
X56371485Y-33132142D01*
X56371485Y-33132142D02*
X56038152Y-33132142D01*
X56038152Y-33132142D02*
X55847676Y-33084523D01*
X55847676Y-33084523D02*
X55752438Y-32989285D01*
X55752438Y-32989285D02*
X55704819Y-32894047D01*
X55704819Y-32132142D02*
X56704819Y-31894047D01*
X56704819Y-31894047D02*
X55990533Y-31703571D01*
X55990533Y-31703571D02*
X56704819Y-31513095D01*
X56704819Y-31513095D02*
X55704819Y-31275000D01*
X56181009Y-30894047D02*
X56181009Y-30560714D01*
X56704819Y-30417857D02*
X56704819Y-30894047D01*
X56704819Y-30894047D02*
X55704819Y-30894047D01*
X55704819Y-30894047D02*
X55704819Y-30417857D01*
X56704819Y-29417857D02*
X56228628Y-29751190D01*
X56704819Y-29989285D02*
X55704819Y-29989285D01*
X55704819Y-29989285D02*
X55704819Y-29608333D01*
X55704819Y-29608333D02*
X55752438Y-29513095D01*
X55752438Y-29513095D02*
X55800057Y-29465476D01*
X55800057Y-29465476D02*
X55895295Y-29417857D01*
X55895295Y-29417857D02*
X56038152Y-29417857D01*
X56038152Y-29417857D02*
X56133390Y-29465476D01*
X56133390Y-29465476D02*
X56181009Y-29513095D01*
X56181009Y-29513095D02*
X56228628Y-29608333D01*
X56228628Y-29608333D02*
X56228628Y-29989285D01*
D12*
X56932419Y-78786904D02*
X57741942Y-78786904D01*
X57741942Y-78786904D02*
X57837180Y-78739285D01*
X57837180Y-78739285D02*
X57884800Y-78691666D01*
X57884800Y-78691666D02*
X57932419Y-78596428D01*
X57932419Y-78596428D02*
X57932419Y-78405952D01*
X57932419Y-78405952D02*
X57884800Y-78310714D01*
X57884800Y-78310714D02*
X57837180Y-78263095D01*
X57837180Y-78263095D02*
X57741942Y-78215476D01*
X57741942Y-78215476D02*
X56932419Y-78215476D01*
X56932419Y-77834523D02*
X56932419Y-77215476D01*
X56932419Y-77215476D02*
X57313371Y-77548809D01*
X57313371Y-77548809D02*
X57313371Y-77405952D01*
X57313371Y-77405952D02*
X57360990Y-77310714D01*
X57360990Y-77310714D02*
X57408609Y-77263095D01*
X57408609Y-77263095D02*
X57503847Y-77215476D01*
X57503847Y-77215476D02*
X57741942Y-77215476D01*
X57741942Y-77215476D02*
X57837180Y-77263095D01*
X57837180Y-77263095D02*
X57884800Y-77310714D01*
X57884800Y-77310714D02*
X57932419Y-77405952D01*
X57932419Y-77405952D02*
X57932419Y-77691666D01*
X57932419Y-77691666D02*
X57884800Y-77786904D01*
X57884800Y-77786904D02*
X57837180Y-77834523D01*
D11*
X78409819Y-82036904D02*
X78409819Y-81465476D01*
X79409819Y-81751190D02*
X78409819Y-81751190D01*
X79409819Y-81132142D02*
X78409819Y-81132142D01*
X78409819Y-81132142D02*
X79124104Y-80798809D01*
X79124104Y-80798809D02*
X78409819Y-80465476D01*
X78409819Y-80465476D02*
X79409819Y-80465476D01*
X79314580Y-79417857D02*
X79362200Y-79465476D01*
X79362200Y-79465476D02*
X79409819Y-79608333D01*
X79409819Y-79608333D02*
X79409819Y-79703571D01*
X79409819Y-79703571D02*
X79362200Y-79846428D01*
X79362200Y-79846428D02*
X79266961Y-79941666D01*
X79266961Y-79941666D02*
X79171723Y-79989285D01*
X79171723Y-79989285D02*
X78981247Y-80036904D01*
X78981247Y-80036904D02*
X78838390Y-80036904D01*
X78838390Y-80036904D02*
X78647914Y-79989285D01*
X78647914Y-79989285D02*
X78552676Y-79941666D01*
X78552676Y-79941666D02*
X78457438Y-79846428D01*
X78457438Y-79846428D02*
X78409819Y-79703571D01*
X78409819Y-79703571D02*
X78409819Y-79608333D01*
X78409819Y-79608333D02*
X78457438Y-79465476D01*
X78457438Y-79465476D02*
X78505057Y-79417857D01*
X78505057Y-79036904D02*
X78457438Y-78989285D01*
X78457438Y-78989285D02*
X78409819Y-78894047D01*
X78409819Y-78894047D02*
X78409819Y-78655952D01*
X78409819Y-78655952D02*
X78457438Y-78560714D01*
X78457438Y-78560714D02*
X78505057Y-78513095D01*
X78505057Y-78513095D02*
X78600295Y-78465476D01*
X78600295Y-78465476D02*
X78695533Y-78465476D01*
X78695533Y-78465476D02*
X78838390Y-78513095D01*
X78838390Y-78513095D02*
X79409819Y-79084523D01*
X79409819Y-79084523D02*
X79409819Y-78465476D01*
X78505057Y-78084523D02*
X78457438Y-78036904D01*
X78457438Y-78036904D02*
X78409819Y-77941666D01*
X78409819Y-77941666D02*
X78409819Y-77703571D01*
X78409819Y-77703571D02*
X78457438Y-77608333D01*
X78457438Y-77608333D02*
X78505057Y-77560714D01*
X78505057Y-77560714D02*
X78600295Y-77513095D01*
X78600295Y-77513095D02*
X78695533Y-77513095D01*
X78695533Y-77513095D02*
X78838390Y-77560714D01*
X78838390Y-77560714D02*
X79409819Y-78132142D01*
X79409819Y-78132142D02*
X79409819Y-77513095D01*
X78409819Y-76894047D02*
X78409819Y-76798809D01*
X78409819Y-76798809D02*
X78457438Y-76703571D01*
X78457438Y-76703571D02*
X78505057Y-76655952D01*
X78505057Y-76655952D02*
X78600295Y-76608333D01*
X78600295Y-76608333D02*
X78790771Y-76560714D01*
X78790771Y-76560714D02*
X79028866Y-76560714D01*
X79028866Y-76560714D02*
X79219342Y-76608333D01*
X79219342Y-76608333D02*
X79314580Y-76655952D01*
X79314580Y-76655952D02*
X79362200Y-76703571D01*
X79362200Y-76703571D02*
X79409819Y-76798809D01*
X79409819Y-76798809D02*
X79409819Y-76894047D01*
X79409819Y-76894047D02*
X79362200Y-76989285D01*
X79362200Y-76989285D02*
X79314580Y-77036904D01*
X79314580Y-77036904D02*
X79219342Y-77084523D01*
X79219342Y-77084523D02*
X79028866Y-77132142D01*
X79028866Y-77132142D02*
X78790771Y-77132142D01*
X78790771Y-77132142D02*
X78600295Y-77084523D01*
X78600295Y-77084523D02*
X78505057Y-77036904D01*
X78505057Y-77036904D02*
X78457438Y-76989285D01*
X78457438Y-76989285D02*
X78409819Y-76894047D01*
X78838390Y-75989285D02*
X78790771Y-76084523D01*
X78790771Y-76084523D02*
X78743152Y-76132142D01*
X78743152Y-76132142D02*
X78647914Y-76179761D01*
X78647914Y-76179761D02*
X78600295Y-76179761D01*
X78600295Y-76179761D02*
X78505057Y-76132142D01*
X78505057Y-76132142D02*
X78457438Y-76084523D01*
X78457438Y-76084523D02*
X78409819Y-75989285D01*
X78409819Y-75989285D02*
X78409819Y-75798809D01*
X78409819Y-75798809D02*
X78457438Y-75703571D01*
X78457438Y-75703571D02*
X78505057Y-75655952D01*
X78505057Y-75655952D02*
X78600295Y-75608333D01*
X78600295Y-75608333D02*
X78647914Y-75608333D01*
X78647914Y-75608333D02*
X78743152Y-75655952D01*
X78743152Y-75655952D02*
X78790771Y-75703571D01*
X78790771Y-75703571D02*
X78838390Y-75798809D01*
X78838390Y-75798809D02*
X78838390Y-75989285D01*
X78838390Y-75989285D02*
X78886009Y-76084523D01*
X78886009Y-76084523D02*
X78933628Y-76132142D01*
X78933628Y-76132142D02*
X79028866Y-76179761D01*
X79028866Y-76179761D02*
X79219342Y-76179761D01*
X79219342Y-76179761D02*
X79314580Y-76132142D01*
X79314580Y-76132142D02*
X79362200Y-76084523D01*
X79362200Y-76084523D02*
X79409819Y-75989285D01*
X79409819Y-75989285D02*
X79409819Y-75798809D01*
X79409819Y-75798809D02*
X79362200Y-75703571D01*
X79362200Y-75703571D02*
X79314580Y-75655952D01*
X79314580Y-75655952D02*
X79219342Y-75608333D01*
X79219342Y-75608333D02*
X79028866Y-75608333D01*
X79028866Y-75608333D02*
X78933628Y-75655952D01*
X78933628Y-75655952D02*
X78886009Y-75703571D01*
X78886009Y-75703571D02*
X78838390Y-75798809D01*
X37057200Y-102240476D02*
X37104819Y-102097619D01*
X37104819Y-102097619D02*
X37104819Y-101859524D01*
X37104819Y-101859524D02*
X37057200Y-101764286D01*
X37057200Y-101764286D02*
X37009580Y-101716667D01*
X37009580Y-101716667D02*
X36914342Y-101669048D01*
X36914342Y-101669048D02*
X36819104Y-101669048D01*
X36819104Y-101669048D02*
X36723866Y-101716667D01*
X36723866Y-101716667D02*
X36676247Y-101764286D01*
X36676247Y-101764286D02*
X36628628Y-101859524D01*
X36628628Y-101859524D02*
X36581009Y-102050000D01*
X36581009Y-102050000D02*
X36533390Y-102145238D01*
X36533390Y-102145238D02*
X36485771Y-102192857D01*
X36485771Y-102192857D02*
X36390533Y-102240476D01*
X36390533Y-102240476D02*
X36295295Y-102240476D01*
X36295295Y-102240476D02*
X36200057Y-102192857D01*
X36200057Y-102192857D02*
X36152438Y-102145238D01*
X36152438Y-102145238D02*
X36104819Y-102050000D01*
X36104819Y-102050000D02*
X36104819Y-101811905D01*
X36104819Y-101811905D02*
X36152438Y-101669048D01*
X36104819Y-101383333D02*
X36104819Y-100811905D01*
X37104819Y-101097619D02*
X36104819Y-101097619D01*
X36581009Y-100478571D02*
X36581009Y-100145238D01*
X37104819Y-100002381D02*
X37104819Y-100478571D01*
X37104819Y-100478571D02*
X36104819Y-100478571D01*
X36104819Y-100478571D02*
X36104819Y-100002381D01*
X37104819Y-99573809D02*
X36104819Y-99573809D01*
X36104819Y-99573809D02*
X36104819Y-99192857D01*
X36104819Y-99192857D02*
X36152438Y-99097619D01*
X36152438Y-99097619D02*
X36200057Y-99050000D01*
X36200057Y-99050000D02*
X36295295Y-99002381D01*
X36295295Y-99002381D02*
X36438152Y-99002381D01*
X36438152Y-99002381D02*
X36533390Y-99050000D01*
X36533390Y-99050000D02*
X36581009Y-99097619D01*
X36581009Y-99097619D02*
X36628628Y-99192857D01*
X36628628Y-99192857D02*
X36628628Y-99573809D01*
X46161069Y-102192856D02*
X45161069Y-102192856D01*
X45637259Y-102192856D02*
X45637259Y-101621428D01*
X46161069Y-101621428D02*
X45161069Y-101621428D01*
X45161069Y-101240475D02*
X46161069Y-100573809D01*
X45161069Y-100573809D02*
X46161069Y-101240475D01*
X46161069Y-100192856D02*
X45161069Y-100192856D01*
X45161069Y-100192856D02*
X45161069Y-99954761D01*
X45161069Y-99954761D02*
X45208688Y-99811904D01*
X45208688Y-99811904D02*
X45303926Y-99716666D01*
X45303926Y-99716666D02*
X45399164Y-99669047D01*
X45399164Y-99669047D02*
X45589640Y-99621428D01*
X45589640Y-99621428D02*
X45732497Y-99621428D01*
X45732497Y-99621428D02*
X45922973Y-99669047D01*
X45922973Y-99669047D02*
X46018211Y-99716666D01*
X46018211Y-99716666D02*
X46113450Y-99811904D01*
X46113450Y-99811904D02*
X46161069Y-99954761D01*
X46161069Y-99954761D02*
X46161069Y-100192856D01*
X45161069Y-99335713D02*
X45161069Y-98764285D01*
X46161069Y-99049999D02*
X45161069Y-99049999D01*
X82904819Y-75183333D02*
X83619104Y-75183333D01*
X83619104Y-75183333D02*
X83761961Y-75230952D01*
X83761961Y-75230952D02*
X83857200Y-75326190D01*
X83857200Y-75326190D02*
X83904819Y-75469047D01*
X83904819Y-75469047D02*
X83904819Y-75564285D01*
X83904819Y-74707142D02*
X82904819Y-74707142D01*
X82904819Y-74707142D02*
X82904819Y-74326190D01*
X82904819Y-74326190D02*
X82952438Y-74230952D01*
X82952438Y-74230952D02*
X83000057Y-74183333D01*
X83000057Y-74183333D02*
X83095295Y-74135714D01*
X83095295Y-74135714D02*
X83238152Y-74135714D01*
X83238152Y-74135714D02*
X83333390Y-74183333D01*
X83333390Y-74183333D02*
X83381009Y-74230952D01*
X83381009Y-74230952D02*
X83428628Y-74326190D01*
X83428628Y-74326190D02*
X83428628Y-74707142D01*
X83904819Y-73183333D02*
X83904819Y-73754761D01*
X83904819Y-73469047D02*
X82904819Y-73469047D01*
X82904819Y-73469047D02*
X83047676Y-73564285D01*
X83047676Y-73564285D02*
X83142914Y-73659523D01*
X83142914Y-73659523D02*
X83190533Y-73754761D01*
X34057200Y-102240475D02*
X34104819Y-102097618D01*
X34104819Y-102097618D02*
X34104819Y-101859523D01*
X34104819Y-101859523D02*
X34057200Y-101764285D01*
X34057200Y-101764285D02*
X34009580Y-101716666D01*
X34009580Y-101716666D02*
X33914342Y-101669047D01*
X33914342Y-101669047D02*
X33819104Y-101669047D01*
X33819104Y-101669047D02*
X33723866Y-101716666D01*
X33723866Y-101716666D02*
X33676247Y-101764285D01*
X33676247Y-101764285D02*
X33628628Y-101859523D01*
X33628628Y-101859523D02*
X33581009Y-102049999D01*
X33581009Y-102049999D02*
X33533390Y-102145237D01*
X33533390Y-102145237D02*
X33485771Y-102192856D01*
X33485771Y-102192856D02*
X33390533Y-102240475D01*
X33390533Y-102240475D02*
X33295295Y-102240475D01*
X33295295Y-102240475D02*
X33200057Y-102192856D01*
X33200057Y-102192856D02*
X33152438Y-102145237D01*
X33152438Y-102145237D02*
X33104819Y-102049999D01*
X33104819Y-102049999D02*
X33104819Y-101811904D01*
X33104819Y-101811904D02*
X33152438Y-101669047D01*
X34104819Y-101240475D02*
X33104819Y-101240475D01*
X33104819Y-101240475D02*
X33104819Y-101002380D01*
X33104819Y-101002380D02*
X33152438Y-100859523D01*
X33152438Y-100859523D02*
X33247676Y-100764285D01*
X33247676Y-100764285D02*
X33342914Y-100716666D01*
X33342914Y-100716666D02*
X33533390Y-100669047D01*
X33533390Y-100669047D02*
X33676247Y-100669047D01*
X33676247Y-100669047D02*
X33866723Y-100716666D01*
X33866723Y-100716666D02*
X33961961Y-100764285D01*
X33961961Y-100764285D02*
X34057200Y-100859523D01*
X34057200Y-100859523D02*
X34104819Y-101002380D01*
X34104819Y-101002380D02*
X34104819Y-101240475D01*
X34104819Y-100240475D02*
X33104819Y-100240475D01*
X34104819Y-99192857D02*
X33628628Y-99526190D01*
X34104819Y-99764285D02*
X33104819Y-99764285D01*
X33104819Y-99764285D02*
X33104819Y-99383333D01*
X33104819Y-99383333D02*
X33152438Y-99288095D01*
X33152438Y-99288095D02*
X33200057Y-99240476D01*
X33200057Y-99240476D02*
X33295295Y-99192857D01*
X33295295Y-99192857D02*
X33438152Y-99192857D01*
X33438152Y-99192857D02*
X33533390Y-99240476D01*
X33533390Y-99240476D02*
X33581009Y-99288095D01*
X33581009Y-99288095D02*
X33628628Y-99383333D01*
X33628628Y-99383333D02*
X33628628Y-99764285D01*
%TO.C,J3*%
D13*
X69675000Y-97575000D02*
X71475000Y-97575000D01*
X71475000Y-98325000D01*
X69675000Y-98325000D01*
X69675000Y-97575000D01*
X62175000Y-97575000D02*
X68175000Y-97575000D01*
X68175000Y-98325000D01*
X62175000Y-98325000D01*
X62175000Y-97575000D01*
X58875000Y-97575000D02*
X60675000Y-97575000D01*
X60675000Y-98325000D01*
X58875000Y-98325000D01*
X58875000Y-97575000D01*
X58865000Y-97565000D02*
X71485000Y-97565000D01*
X71485000Y-103535000D01*
X58865000Y-103535000D01*
X58865000Y-97565000D01*
X71475000Y-99825000D02*
X70725000Y-99825000D01*
X70725000Y-102775000D02*
X65175000Y-102775000D01*
X70725000Y-99825000D02*
X70725000Y-102775000D01*
X59825000Y-97275000D02*
X58575000Y-97275000D01*
X59625000Y-102775000D02*
X65175000Y-102775000D01*
X59625000Y-99825000D02*
X59625000Y-102775000D01*
X58875000Y-99825000D02*
X59625000Y-99825000D01*
X58575000Y-97275000D02*
X58575000Y-98525000D01*
%TO.C,J5*%
X84175000Y-97550000D02*
X85975000Y-97550000D01*
X85975000Y-98300000D01*
X84175000Y-98300000D01*
X84175000Y-97550000D01*
X76675000Y-97550000D02*
X82675000Y-97550000D01*
X82675000Y-98300000D01*
X76675000Y-98300000D01*
X76675000Y-97550000D01*
X73375000Y-97550000D02*
X75175000Y-97550000D01*
X75175000Y-98300000D01*
X73375000Y-98300000D01*
X73375000Y-97550000D01*
X73365000Y-97540000D02*
X85985000Y-97540000D01*
X85985000Y-103510000D01*
X73365000Y-103510000D01*
X73365000Y-97540000D01*
X85975000Y-99800000D02*
X85225000Y-99800000D01*
X85225000Y-102750000D02*
X79675000Y-102750000D01*
X85225000Y-99800000D02*
X85225000Y-102750000D01*
X74325000Y-97250000D02*
X73075000Y-97250000D01*
X74125000Y-102750000D02*
X79675000Y-102750000D01*
X74125000Y-99800000D02*
X74125000Y-102750000D01*
X73375000Y-99800000D02*
X74125000Y-99800000D01*
X73075000Y-97250000D02*
X73075000Y-98500000D01*
%TO.C,U1*%
D12*
X30400000Y-23670000D02*
X43100000Y-23670000D01*
X43100000Y-28750000D01*
X30400000Y-28750000D01*
X30400000Y-23670000D01*
X29130000Y-67620000D02*
X44370000Y-67620000D01*
X44370000Y-75240000D01*
X29130000Y-75240000D01*
X29130000Y-67620000D01*
D13*
X52050000Y-32560000D02*
X52050000Y-68180000D01*
X52050000Y-29960000D02*
X52050000Y-31290000D01*
X50720000Y-29960000D02*
X52050000Y-29960000D01*
X49450000Y-32560000D02*
X52050000Y-32560000D01*
X49450000Y-29960000D02*
X49450000Y-32560000D01*
X46850000Y-68180000D02*
X52050000Y-68180000D01*
X46850000Y-29960000D02*
X49450000Y-29960000D01*
X46850000Y-29960000D02*
X46850000Y-68180000D01*
X26650000Y-32560000D02*
X26650000Y-68180000D01*
X26650000Y-29960000D02*
X26650000Y-31290000D01*
X25320000Y-29960000D02*
X26650000Y-29960000D01*
X24050000Y-32560000D02*
X26650000Y-32560000D01*
X24050000Y-29960000D02*
X24050000Y-32560000D01*
X21450000Y-68180000D02*
X26650000Y-68180000D01*
X21450000Y-29960000D02*
X24050000Y-29960000D01*
X21450000Y-29960000D02*
X21450000Y-68180000D01*
%TO.C,J6*%
X89175000Y-89300000D02*
X90975000Y-89300000D01*
X90975000Y-90050000D01*
X89175000Y-90050000D01*
X89175000Y-89300000D01*
X76675000Y-89300000D02*
X87675000Y-89300000D01*
X87675000Y-90050000D01*
X76675000Y-90050000D01*
X76675000Y-89300000D01*
X73375000Y-89300000D02*
X75175000Y-89300000D01*
X75175000Y-90050000D01*
X73375000Y-90050000D01*
X73375000Y-89300000D01*
X73365000Y-89290000D02*
X90985000Y-89290000D01*
X90985000Y-95260000D01*
X73365000Y-95260000D01*
X73365000Y-89290000D01*
X90975000Y-91550000D02*
X90225000Y-91550000D01*
X90225000Y-94500000D02*
X82175000Y-94500000D01*
X90225000Y-91550000D02*
X90225000Y-94500000D01*
X74325000Y-89000000D02*
X73075000Y-89000000D01*
X74125000Y-94500000D02*
X82175000Y-94500000D01*
X74125000Y-91550000D02*
X74125000Y-94500000D01*
X73375000Y-91550000D02*
X74125000Y-91550000D01*
X73075000Y-89000000D02*
X73075000Y-90250000D01*
%TO.C,R1*%
X45485000Y-42452064D02*
X45485000Y-41997936D01*
X44015000Y-42452064D02*
X44015000Y-41997936D01*
%TO.C,R4*%
X45460000Y-31752064D02*
X45460000Y-31297936D01*
X43990000Y-31752064D02*
X43990000Y-31297936D01*
%TO.C,R3*%
X44040000Y-35327064D02*
X44040000Y-34872936D01*
X45510000Y-35327064D02*
X45510000Y-34872936D01*
%TO.C,R2*%
X44040000Y-38877064D02*
X44040000Y-38422936D01*
X45510000Y-38877064D02*
X45510000Y-38422936D01*
%TO.C,C2*%
X58135000Y-85513748D02*
X58135000Y-86036252D01*
X56665000Y-85513748D02*
X56665000Y-86036252D01*
%TO.C,C1*%
X87290000Y-87535000D02*
X89640000Y-87535000D01*
X94110000Y-87535000D02*
X91760000Y-87535000D01*
X87290000Y-81779437D02*
X87290000Y-87535000D01*
X94110000Y-81779437D02*
X94110000Y-87535000D01*
X88354437Y-80715000D02*
X87290000Y-81779437D01*
X88354437Y-80715000D02*
X89640000Y-80715000D01*
X93045563Y-80715000D02*
X94110000Y-81779437D01*
X93045563Y-80715000D02*
X91760000Y-80715000D01*
X92941250Y-80081250D02*
X92153750Y-80081250D01*
X92547500Y-79687500D02*
X92547500Y-80475000D01*
%TO.C,J10*%
X87125000Y-65675000D02*
X87125000Y-66925000D01*
X87425000Y-68225000D02*
X88175000Y-68225000D01*
X88175000Y-68225000D02*
X88175000Y-71175000D01*
X88175000Y-71175000D02*
X91225000Y-71175000D01*
X88375000Y-65675000D02*
X87125000Y-65675000D01*
X94275000Y-68225000D02*
X94275000Y-71175000D01*
X94275000Y-71175000D02*
X91225000Y-71175000D01*
X95025000Y-68225000D02*
X94275000Y-68225000D01*
X87415000Y-65965000D02*
X95035000Y-65965000D01*
X95035000Y-71935000D01*
X87415000Y-71935000D01*
X87415000Y-65965000D01*
X87425000Y-65975000D02*
X89225000Y-65975000D01*
X89225000Y-66725000D01*
X87425000Y-66725000D01*
X87425000Y-65975000D01*
X90725000Y-65975000D02*
X91725000Y-65975000D01*
X91725000Y-66725000D01*
X90725000Y-66725000D01*
X90725000Y-65975000D01*
X93225000Y-65975000D02*
X95025000Y-65975000D01*
X95025000Y-66725000D01*
X93225000Y-66725000D01*
X93225000Y-65975000D01*
%TO.C,TP5*%
X95975000Y-40825000D02*
X98375000Y-40825000D01*
X95975000Y-43225000D02*
X95975000Y-40825000D01*
X98375000Y-40825000D02*
X98375000Y-43225000D01*
X98375000Y-43225000D02*
X95975000Y-43225000D01*
%TO.C,J8*%
X87025000Y-44475000D02*
X87025000Y-45725000D01*
X87325000Y-47025000D02*
X88075000Y-47025000D01*
X88075000Y-47025000D02*
X88075000Y-49975000D01*
X88075000Y-49975000D02*
X91125000Y-49975000D01*
X88275000Y-44475000D02*
X87025000Y-44475000D01*
X94175000Y-47025000D02*
X94175000Y-49975000D01*
X94175000Y-49975000D02*
X91125000Y-49975000D01*
X94925000Y-47025000D02*
X94175000Y-47025000D01*
X87315000Y-44765000D02*
X94935000Y-44765000D01*
X94935000Y-50735000D01*
X87315000Y-50735000D01*
X87315000Y-44765000D01*
X87325000Y-44775000D02*
X89125000Y-44775000D01*
X89125000Y-45525000D01*
X87325000Y-45525000D01*
X87325000Y-44775000D01*
X90625000Y-44775000D02*
X91625000Y-44775000D01*
X91625000Y-45525000D01*
X90625000Y-45525000D01*
X90625000Y-44775000D01*
X93125000Y-44775000D02*
X94925000Y-44775000D01*
X94925000Y-45525000D01*
X93125000Y-45525000D01*
X93125000Y-44775000D01*
%TO.C,TP6*%
X41443750Y-102900000D02*
X43843750Y-102900000D01*
X41443750Y-105300000D02*
X41443750Y-102900000D01*
X43843750Y-102900000D02*
X43843750Y-105300000D01*
X43843750Y-105300000D02*
X41443750Y-105300000D01*
%TO.C,TP7*%
X38437500Y-102900000D02*
X40837500Y-102900000D01*
X38437500Y-105300000D02*
X38437500Y-102900000D01*
X40837500Y-102900000D02*
X40837500Y-105300000D01*
X40837500Y-105300000D02*
X38437500Y-105300000D01*
%TO.C,TP4*%
X29025000Y-102900000D02*
X31425000Y-102900000D01*
X29025000Y-105300000D02*
X29025000Y-102900000D01*
X31425000Y-102900000D02*
X31425000Y-105300000D01*
X31425000Y-105300000D02*
X29025000Y-105300000D01*
%TO.C,TP3*%
X50575000Y-102900000D02*
X52975000Y-102900000D01*
X50575000Y-105300000D02*
X50575000Y-102900000D01*
X52975000Y-102900000D02*
X52975000Y-105300000D01*
X52975000Y-105300000D02*
X50575000Y-105300000D01*
%TO.C,J7*%
X87050000Y-58725000D02*
X87050000Y-59975000D01*
X87350000Y-61275000D02*
X88100000Y-61275000D01*
X88100000Y-61275000D02*
X88100000Y-64225000D01*
X88100000Y-64225000D02*
X91150000Y-64225000D01*
X88300000Y-58725000D02*
X87050000Y-58725000D01*
X94200000Y-61275000D02*
X94200000Y-64225000D01*
X94200000Y-64225000D02*
X91150000Y-64225000D01*
X94950000Y-61275000D02*
X94200000Y-61275000D01*
X87340000Y-59015000D02*
X94960000Y-59015000D01*
X94960000Y-64985000D01*
X87340000Y-64985000D01*
X87340000Y-59015000D01*
X87350000Y-59025000D02*
X89150000Y-59025000D01*
X89150000Y-59775000D01*
X87350000Y-59775000D01*
X87350000Y-59025000D01*
X90650000Y-59025000D02*
X91650000Y-59025000D01*
X91650000Y-59775000D01*
X90650000Y-59775000D01*
X90650000Y-59025000D01*
X93150000Y-59025000D02*
X94950000Y-59025000D01*
X94950000Y-59775000D01*
X93150000Y-59775000D01*
X93150000Y-59025000D01*
%TO.C,U4*%
D12*
X58588833Y-21939833D02*
X83461167Y-21939833D01*
X83461167Y-68910167D01*
X58588833Y-68910167D01*
X58588833Y-21939833D01*
%TO.C,F1*%
D13*
X87150000Y-72750000D02*
X87150000Y-74000000D01*
X87450000Y-75300000D02*
X88200000Y-75300000D01*
X88200000Y-75300000D02*
X88200000Y-78250000D01*
X88200000Y-78250000D02*
X91250000Y-78250000D01*
X88400000Y-72750000D02*
X87150000Y-72750000D01*
X94300000Y-75300000D02*
X94300000Y-78250000D01*
X94300000Y-78250000D02*
X91250000Y-78250000D01*
X95050000Y-75300000D02*
X94300000Y-75300000D01*
X87440000Y-73040000D02*
X95060000Y-73040000D01*
X95060000Y-79010000D01*
X87440000Y-79010000D01*
X87440000Y-73040000D01*
X87450000Y-73050000D02*
X89250000Y-73050000D01*
X89250000Y-73800000D01*
X87450000Y-73800000D01*
X87450000Y-73050000D01*
X90750000Y-73050000D02*
X91750000Y-73050000D01*
X91750000Y-73800000D01*
X90750000Y-73800000D01*
X90750000Y-73050000D01*
X93250000Y-73050000D02*
X95050000Y-73050000D01*
X95050000Y-73800000D01*
X93250000Y-73800000D01*
X93250000Y-73050000D01*
%TO.C,TP1*%
X53675000Y-102900000D02*
X56075000Y-102900000D01*
X53675000Y-105300000D02*
X53675000Y-102900000D01*
X56075000Y-102900000D02*
X56075000Y-105300000D01*
X56075000Y-105300000D02*
X53675000Y-105300000D01*
%TO.C,J4*%
X84535000Y-39465000D02*
X84535000Y-37725000D01*
X84775000Y-30025000D02*
X86775000Y-30025000D01*
X84775000Y-32825000D02*
X84775000Y-30025000D01*
X84775000Y-39225000D02*
X84775000Y-36425000D01*
X86275000Y-39465000D02*
X84535000Y-39465000D01*
X90375000Y-30025000D02*
X99375000Y-30025000D01*
X99375000Y-30025000D02*
X99375000Y-39225000D01*
X99375000Y-39225000D02*
X84775000Y-39225000D01*
%TO.C,J1*%
X58575000Y-89025000D02*
X58575000Y-90275000D01*
X58875000Y-91575000D02*
X59625000Y-91575000D01*
X59625000Y-91575000D02*
X59625000Y-94525000D01*
X59625000Y-94525000D02*
X65175000Y-94525000D01*
X59825000Y-89025000D02*
X58575000Y-89025000D01*
X70725000Y-91575000D02*
X70725000Y-94525000D01*
X70725000Y-94525000D02*
X65175000Y-94525000D01*
X71475000Y-91575000D02*
X70725000Y-91575000D01*
X58865000Y-89315000D02*
X71485000Y-89315000D01*
X71485000Y-95285000D01*
X58865000Y-95285000D01*
X58865000Y-89315000D01*
X58875000Y-89325000D02*
X60675000Y-89325000D01*
X60675000Y-90075000D01*
X58875000Y-90075000D01*
X58875000Y-89325000D01*
X62175000Y-89325000D02*
X68175000Y-89325000D01*
X68175000Y-90075000D01*
X62175000Y-90075000D01*
X62175000Y-89325000D01*
X69675000Y-89325000D02*
X71475000Y-89325000D01*
X71475000Y-90075000D01*
X69675000Y-90075000D01*
X69675000Y-89325000D01*
%TO.C,J9*%
X87000000Y-51675000D02*
X87000000Y-52925000D01*
X87300000Y-54225000D02*
X88050000Y-54225000D01*
X88050000Y-54225000D02*
X88050000Y-57175000D01*
X88050000Y-57175000D02*
X91100000Y-57175000D01*
X88250000Y-51675000D02*
X87000000Y-51675000D01*
X94150000Y-54225000D02*
X94150000Y-57175000D01*
X94150000Y-57175000D02*
X91100000Y-57175000D01*
X94900000Y-54225000D02*
X94150000Y-54225000D01*
X87290000Y-51965000D02*
X94910000Y-51965000D01*
X94910000Y-57935000D01*
X87290000Y-57935000D01*
X87290000Y-51965000D01*
X87300000Y-51975000D02*
X89100000Y-51975000D01*
X89100000Y-52725000D01*
X87300000Y-52725000D01*
X87300000Y-51975000D01*
X90600000Y-51975000D02*
X91600000Y-51975000D01*
X91600000Y-52725000D01*
X90600000Y-52725000D01*
X90600000Y-51975000D01*
X93100000Y-51975000D02*
X94900000Y-51975000D01*
X94900000Y-52725000D01*
X93100000Y-52725000D01*
X93100000Y-51975000D01*
%TO.C,D2*%
X53040000Y-35750000D02*
X53040000Y-38610000D01*
X53040000Y-38610000D02*
X54960000Y-38610000D01*
X54960000Y-38610000D02*
X54960000Y-35750000D01*
%TO.C,U2*%
D12*
X21175000Y-76050000D02*
X55575000Y-76050000D01*
X55575000Y-97250000D01*
X21175000Y-97250000D01*
X21175000Y-76050000D01*
%TO.C,D1*%
D13*
X55285000Y-35775000D02*
X55285000Y-38635000D01*
X55285000Y-38635000D02*
X57205000Y-38635000D01*
X57205000Y-38635000D02*
X57205000Y-35775000D01*
%TO.C,U3*%
D12*
X58635000Y-69805000D02*
X81715000Y-69805000D01*
X81715000Y-87745000D01*
X58635000Y-87745000D01*
X58635000Y-69805000D01*
%TO.C,TP8*%
D13*
X35431250Y-102900000D02*
X37831250Y-102900000D01*
X35431250Y-105300000D02*
X35431250Y-102900000D01*
X37831250Y-102900000D02*
X37831250Y-105300000D01*
X37831250Y-105300000D02*
X35431250Y-105300000D01*
%TO.C,TP2*%
X44475000Y-102900000D02*
X46875000Y-102900000D01*
X44475000Y-105300000D02*
X44475000Y-102900000D01*
X46875000Y-102900000D02*
X46875000Y-105300000D01*
X46875000Y-105300000D02*
X44475000Y-105300000D01*
%TO.C,JP1*%
X84250000Y-72950000D02*
X86250000Y-72950000D01*
X84250000Y-75750000D02*
X84250000Y-72950000D01*
X86250000Y-72950000D02*
X86250000Y-75750000D01*
X86250000Y-75750000D02*
X84250000Y-75750000D01*
%TO.C,TP9*%
X32425000Y-102900000D02*
X34825000Y-102900000D01*
X32425000Y-105300000D02*
X32425000Y-102900000D01*
X34825000Y-102900000D02*
X34825000Y-105300000D01*
X34825000Y-105300000D02*
X32425000Y-105300000D01*
%TD*%
M02*
